{
.appVersion = "3525";
.formatVersion = 3;
DisplayStrings = (
mam
);
customParameters = (
{
name = panose;
value = (
2,
11,
6,
9,
3,
8,
4,
2,
2,
4
);
},
{
name = unicodeRanges;
value = (
0,
1,
2,
3,
5,
7,
31,
33,
35,
38,
45,
60
);
},
{
name = fsType;
value = (
);
},
{
name = glyphOrder;
value = (
.notdef,
.null,
CR,
space,
exclam,
quotedbl,
numbersign,
dollar,
percent,
ampersand,
quotesingle,
parenleft,
parenright,
asterisk,
plus,
comma,
hyphen,
period,
slash,
zero,
one,
two,
three,
four,
five,
six,
seven,
eight,
nine,
colon,
semicolon,
less,
equal,
greater,
question,
at,
A,
B,
C,
D,
E,
F,
G,
H,
I,
J,
K,
L,
M,
N,
O,
P,
Q,
R,
S,
T,
U,
V,
W,
X,
Y,
Z,
bracketleft,
backslash,
bracketright,
asciicircum,
underscore,
grave,
a,
b,
c,
d,
e,
f,
g,
h,
i,
j,
k,
l,
m,
n,
o,
p,
q,
r,
s,
t,
u,
v,
w,
x,
y,
z,
braceleft,
bar,
braceright,
asciitilde,
Adieresis,
Aring,
Ccedilla,
Eacute,
Ntilde,
Odieresis,
Udieresis,
aacute,
agrave,
acircumflex,
adieresis,
atilde,
aring,
ccedilla,
eacute,
egrave,
ecircumflex,
edieresis,
iacute,
igrave,
icircumflex,
idieresis,
ntilde,
oacute,
ograve,
ocircumflex,
odieresis,
otilde,
uacute,
ugrave,
ucircumflex,
udieresis,
dagger,
degree,
cent,
sterling,
section,
bullet,
paragraph,
germandbls,
registered,
copyright,
trademark,
acute,
dieresis,
notequal,
AE,
Oslash,
infinity,
plusminus,
lessequal,
greaterequal,
yen,
mu,
partialdiff,
summation,
product,
pi,
integral,
ordfeminine,
ordmasculine,
Omega,
ae,
oslash,
questiondown,
exclamdown,
logicalnot,
radical,
florin,
approxequal,
Delta,
guillemotleft,
guillemotright,
ellipsis,
nonbreakingspace,
Agrave,
Atilde,
Otilde,
OE,
oe,
endash,
emdash,
quotedblleft,
quotedblright,
quoteleft,
quoteright,
divide,
lozenge,
ydieresis,
Ydieresis,
fraction,
currency,
guilsinglleft,
guilsinglright,
fi,
fl,
daggerdbl,
periodcentered,
quotesinglbase,
quotedblbase,
perthousand,
Acircumflex,
Ecircumflex,
Aacute,
Edieresis,
Egrave,
Iacute,
Icircumflex,
Idieresis,
Igrave,
Oacute,
Ocircumflex,
Ograve,
Uacute,
Ucircumflex,
Ugrave,

glyphs = (
{
glyphname = .notdef;
lastChange = "2026-05-14 15:04:39 +0000";
layers = (
{
layerId = m01;
shapes = (
{
closed = 1;
nodes = (
(1128,1444,l),
(104,1444,l),
(104,-362,l),
(1128,-362,l)
);
},
{
closed = 1;
nodes = (
(1014,1329,l),
(1014,-248,l),
(219,-248,l),
(219,1329,l)
);
}
);
userData = {
assembly = "PUSHW[ ]	/* 5 values pushed */
4 276 0 6 276
PUSHB[ ]	/* 7 values pushed */
1 8 5 131 2 4 0
MDAP[1]	/* MoveDirectAbsPt */
MDRP[00100]	/* MoveDirectRelPt */
MDRP[10100]	/* MoveDirectRelPt */
MIRP[01100]	/* MoveIndirectRelPt */
IUP[1]	/* InterpolateUntPts */
SVTCA[0]	/* SetFreedomAndProjectionVectorToAxis */
SRP0[ ]	/* SetRefPoint0 */
MDRP[10100]	/* MoveDirectRelPt */
MIRP[01100]	/* MoveIndirectRelPt */
MDRP[10100]	/* MoveDirectRelPt */
MIRP[01100]	/* MoveIndirectRelPt */
IUP[0]	/* InterpolateUntPts */";
};
width = 1233;
}
);
note = .notdef;
},
{
glyphname = exclam;
layers = (
{
layerId = m01;
shapes = (
{
closed = 1;
nodes = (
(537,481,l),
(698,481,l),
(719,838,l),
(719,1493,l),
(516,1493,l),
(516,838,l)
);
},
{
closed = 1;
nodes = (
(719,0,l),
(719,254,l),
(516,254,l),
(516,0,l)
);
}
);
userData = {
assembly = "NPUSHB[ ]	/* 15 values pushed */
3 135 6 134 0 136 8 4 3 7 1 3 6 0 10
SRP0[ ]	/* SetRefPoint0 */
MDRP[10100]	/* MoveDirectRelPt */
ALIGNRP[ ]	/* AlignRelativePt */
MIRP[01100]	/* MoveIndirectRelPt */
SHP[0]	/* ShiftPointByLastPoint */
IP[ ]	/* InterpolatePts */
IP[ ]	/* InterpolatePts */
IUP[1]	/* InterpolateUntPts */
SVTCA[0]	/* SetFreedomAndProjectionVectorToAxis */
MDAP[1]	/* MoveDirectAbsPt */
MIRP[00100]	/* MoveIndirectRelPt */
MIRP[11100]	/* MoveIndirectRelPt */
MIRP[01100]	/* MoveIndirectRelPt */
IUP[0]	/* InterpolateUntPts */";
};
width = 1233;
}
);
note = exclam;
unicode = 33;
},
{
glyphname = quotedbl;
layers = (
{
layerId = m01;
shapes = (
{
closed = 1;
nodes = (
(721,938,l),
(895,938,l),
(895,1493,l),
(721,1493,l)
);
},
{
closed = 1;
nodes = (
(338,938,l),
(512,938,l),
(512,1493,l),
(338,1493,l)
);
}
);
userData = {
assembly = "NPUSHB[ ]	/* 14 values pushed */
5 1 137 4 0 136 8 0 4 2 6 4 4 8
SRP0[ ]	/* SetRefPoint0 */
MDRP[10100]	/* MoveDirectRelPt */
MIRP[01100]	/* MoveIndirectRelPt */
MDRP[11100]	/* MoveDirectRelPt */
MIRP[01100]	/* MoveIndirectRelPt */
IUP[1]	/* InterpolateUntPts */
SVTCA[0]	/* SetFreedomAndProjectionVectorToAxis */
SRP0[ ]	/* SetRefPoint0 */
MIRP[10100]	/* MoveIndirectRelPt */
ALIGNRP[ ]	/* AlignRelativePt */
MIRP[01100]	/* MoveIndirectRelPt */
SHP[0]	/* ShiftPointByLastPoint */
IUP[0]	/* InterpolateUntPts */";
};
width = 1233;
}
);
note = quotedbl;
unicode = 34;
},
{
glyphname = numbersign;
layers = (
{
layerId = m01;
shapes = (
{
closed = 1;
nodes = (
(420,1055,l),
(117,1055,l),
(117,901,l),
(383,901,l),
(299,567,l),
(2,567,l),
(2,414,l),
(260,414,l),
(156,0,l),
(315,0,l),
(420,414,l),
(666,414,l),
(561,0,l),
(721,0,l),
(825,414,l),
(1114,414,l),
(1114,567,l),
(864,567,l),
(948,901,l),
(1229,901,l),
(1229,1055,l),
(985,1055,l),
(1090,1470,l),
(930,1470,l),
(825,1055,l),
(580,1055,l),
(684,1470,l),
(524,1470,l)
);
},
{
closed = 1;
nodes = (
(459,567,l),
(543,901,l),
(788,901,l),
(705,567,l)
);
}
);
userData = {
assembly = "NPUSHB[ ]	/* 48 values pushed */
28 23 7 140 3 0 25 5 1 30 21 9 140 19 15 11 17 13 31 30 29 28 27 26 24 23 22 19 18 17 16 15 14 13 12 10 9 8 5 4 3 2 1 0 26 6 20 32
SRP0[ ]	/* SetRefPoint0 */
MDRP[10100]	/* MoveDirectRelPt */
MDRP[01100]	/* MoveDirectRelPt */
SLOOP[ ]	/* SetLoopVariable */
IP[ ]	/* InterpolatePts */
IUP[1]	/* InterpolateUntPts */
SVTCA[0]	/* SetFreedomAndProjectionVectorToAxis */
MDAP[1]	/* MoveDirectAbsPt */
ALIGNRP[ ]	/* AlignRelativePt */
MDRP[10100]	/* MoveDirectRelPt */
ALIGNRP[ ]	/* AlignRelativePt */
ALIGNRP[ ]	/* AlignRelativePt */
MIRP[11100]	/* MoveIndirectRelPt */
ALIGNRP[ ]	/* AlignRelativePt */
ALIGNRP[ ]	/* AlignRelativePt */
MDRP[10100]	/* MoveDirectRelPt */
ALIGNRP[ ]	/* AlignRelativePt */
ALIGNRP[ ]	/* AlignRelativePt */
MDRP[00100]	/* MoveDirectRelPt */
SHP[0]	/* ShiftPointByLastPoint */
MIRP[01100]	/* MoveIndirectRelPt */
SHP[0]	/* ShiftPointByLastPoint */
SHP[0]	/* ShiftPointByLastPoint */
IUP[0]	/* InterpolateUntPts */";
};
width = 1233;
}
);
note = numbersign;
unicode = 35;
},
{
glyphname = dollar;
layers = (
{
layerId = m01;
shapes = (
{
closed = 1;
nodes = (
(926,458,o),
(926,365,qs),
(926,265,o),
(802,149,o),
(692,146,q),
(692,580,l),
(814,561,o)
);
},
{
closed = 1;
nodes = (
(371,887,o),
(371,973,qs),
(371,1067,o),
(488,1179,o),
(592,1183,q),
(592,770,l),
(480,787,o)
);
},
{
closed = 1;
nodes = (
(881,11,o),
(1114,217,o),
(1114,371,qs),
(1114,525,o),
(898,719,o),
(692,750,q),
(692,1181,l),
(772,1177,o),
(933,1130,o),
(1018,1087,q),
(1018,1260,l),
(934,1286,o),
(772,1316,o),
(693,1321,q),
(692,1556,l),
(592,1556,l),
(592,1321,l),
(401,1307,o),
(190,1120,o),
(190,963,qs),
(190,813,o),
(392,631,o),
(592,600,q),
(592,142,l),
(493,144,o),
(290,210,o),
(190,272,q),
(190,92,l),
(288,51,o),
(489,5,o),
(591,0,q),
(592,-301,l),
(692,-301,l),
(693,2,l)
);
}
);
userData = {
assembly = "NPUSHB[ ]	/* 57 values pushed */
8 40 36 0 7 41 24 4 37 20 47 16 23 19 1 37 139 36 142 31 40 143 30 20 139 19 142 1 143 14 33 30 16 4 6 36 8 44 5 0 11 6 27 19 5 40 32 14 3 0 7 30 23 15 3 7 48
SRP0[ ]	/* SetRefPoint0 */
MDRP[10100]	/* MoveDirectRelPt */
SLOOP[ ]	/* SetLoopVariable */
ALIGNRP[ ]	/* AlignRelativePt */
MIRP[01100]	/* MoveIndirectRelPt */
SLOOP[ ]	/* SetLoopVariable */
SHP[0]	/* ShiftPointByLastPoint */
MIRP[11100]	/* MoveIndirectRelPt */
ALIGNRP[ ]	/* AlignRelativePt */
MIRP[01100]	/* MoveIndirectRelPt */
SRP0[ ]	/* SetRefPoint0 */
MIRP[11100]	/* MoveIndirectRelPt */
MIRP[00100]	/* MoveIndirectRelPt */
MIRP[01110]	/* MoveIndirectRelPt */
IUP[1]	/* InterpolateUntPts */
SVTCA[0]	/* SetFreedomAndProjectionVectorToAxis */
MDAP[1]	/* MoveDirectAbsPt */
MDRP[00110]	/* MoveDirectRelPt */
SHP[0]	/* ShiftPointByLastPoint */
MDRP[00100]	/* MoveDirectRelPt */
MIRP[01110]	/* MoveIndirectRelPt */
MIRP[10110]	/* MoveIndirectRelPt */
MIRP[01110]	/* MoveIndirectRelPt */
SRP0[ ]	/* SetRefPoint0 */
MIRP[01110]	/* MoveIndirectRelPt */
MDRP[00110]	/* MoveDirectRelPt */
MIRP[10110]	/* MoveIndirectRelPt */
MIRP[01110]	/* MoveIndirectRelPt */
SRP1[ ]	/* SetRefPoint1 */
SRP2[ ]	/* SetRefPoint2 */
IP[ ]	/* InterpolatePts */
SRP1[ ]	/* SetRefPoint1 */
IP[ ]	/* InterpolatePts */
SRP1[ ]	/* SetRefPoint1 */
SRP2[ ]	/* SetRefPoint2 */
SLOOP[ ]	/* SetLoopVariable */
IP[ ]	/* InterpolatePts */
SRP1[ ]	/* SetRefPoint1 */
SRP2[ ]	/* SetRefPoint2 */
IP[ ]	/* InterpolatePts */
IUP[0]	/* InterpolateUntPts */";
};
width = 1233;
}
);
note = dollar;
unicode = 36;
},
{
glyphname = percent;
layers = (
{
layerId = m01;
shapes = (
{
closed = 1;
nodes = (
(801,504,o),
(879,504,qs),
(955,504,o),
(1063,396,o),
(1063,319,qs),
(1063,242,o),
(956,135,o),
(879,135,qs),
(801,135,o),
(696,241,o),
(696,319,qs),
(696,398,o)
);
},
{
closed = 1;
nodes = (
(743,0,o),
(879,0,qs),
(1014,0,o),
(1200,186,o),
(1200,319,qs),
(1200,382,o),
(1150,498,o),
(1104,545,qs),
(1058,591,o),
(943,639,o),
(879,639,qs),
(745,639,o),
(561,454,o),
(561,319,qs),
(561,183,o)
);
},
{
closed = 1;
nodes = (
(1128,979,l),
(86,561,l),
(121,465,l),
(1169,883,l)
);
},
{
closed = 1;
nodes = (
(275,1296,o),
(352,1296,qs),
(429,1296,o),
(537,1189,o),
(537,1112,qs),
(537,1035,o),
(429,928,o),
(352,928,qs),
(273,928,o),
(168,1033,o),
(168,1112,qs),
(168,1190,o)
);
},
{
closed = 1;
nodes = (
(217,793,o),
(352,793,qs),
(486,793,o),
(672,978,o),
(672,1112,qs),
(672,1177,o),
(623,1294,o),
(578,1339,qs),
(533,1384,o),
(416,1432,o),
(352,1432,qs),
(217,1432,o),
(33,1247,o),
(33,1112,qs),
(33,977,o)
);
}
);
userData = {
assembly = "NPUSHB[ ]	/* 47 values pushed */
30 55 29 40 34 28 15 27 3 9 146 15 34 146 55 147 40 146 46 145 15 147 3 146 24 28 27 43 31 30 29 6 10 21 11 0 10 12 37 10 52 11 31 10 43 12 58
SRP0[ ]	/* SetRefPoint0 */
MDRP[00100]	/* MoveDirectRelPt */
MDRP[10100]	/* MoveDirectRelPt */
MIRP[01100]	/* MoveIndirectRelPt */
MIRP[11100]	/* MoveIndirectRelPt */
MIRP[01100]	/* MoveIndirectRelPt */
SRP0[ ]	/* SetRefPoint0 */
MIRP[01110]	/* MoveIndirectRelPt */
MIRP[11110]	/* MoveIndirectRelPt */
MIRP[01110]	/* MoveIndirectRelPt */
IP[ ]	/* InterpolatePts */
IP[ ]	/* InterpolatePts */
SRP1[ ]	/* SetRefPoint1 */
SRP2[ ]	/* SetRefPoint2 */
IP[ ]	/* InterpolatePts */
IP[ ]	/* InterpolatePts */
IUP[1]	/* InterpolateUntPts */
SVTCA[0]	/* SetFreedomAndProjectionVectorToAxis */
MDAP[1]	/* MoveDirectAbsPt */
MIRP[01110]	/* MoveIndirectRelPt */
MIRP[01110]	/* MoveIndirectRelPt */
MIRP[10110]	/* MoveIndirectRelPt */
MIRP[01110]	/* MoveIndirectRelPt */
MIRP[11110]	/* MoveIndirectRelPt */
MIRP[01110]	/* MoveIndirectRelPt */
SRP0[ ]	/* SetRefPoint0 */
MIRP[01110]	/* MoveIndirectRelPt */
SRP1[ ]	/* SetRefPoint1 */
IP[ ]	/* InterpolatePts */
SRP1[ ]	/* SetRefPoint1 */
IP[ ]	/* InterpolatePts */
SRP1[ ]	/* SetRefPoint1 */
SRP2[ ]	/* SetRefPoint2 */
IP[ ]	/* InterpolatePts */
SRP2[ ]	/* SetRefPoint2 */
IP[ ]	/* InterpolatePts */
IUP[0]	/* InterpolateUntPts */";
};
width = 1233;
}
);
note = percent;
unicode = 37;
},
{
glyphname = ampersand;
layers = (
{
layerId = m01;
shapes = (
{
closed = 1;
nodes = (
(412,1139,o),
(412,1198,qs),
(412,1275,o),
(524,1366,o),
(621,1366,qs),
(690,1366,o),
(815,1329,o),
(874,1290,q),
(874,1473,l),
(804,1496,o),
(673,1520,o),
(608,1520,qs),
(435,1520,o),
(236,1346,o),
(236,1196,qs),
(236,1125,o),
(284,987,o),
(334,915,q),
(195,815,o),
(57,581,o),
(57,444,qs),
(57,240,o),
(339,-29,o),
(555,-29,qs),
(661,-29,o),
(847,39,o),
(930,109,q),
(1008,0,l),
(1221,0,l),
(1051,229,l),
(1126,317,o),
(1200,560,o),
(1200,721,qs),
(1200,760,l),
(1036,760,l),
(1037,753,ls),
(1040,683,o),
(1040,651,qs),
(1040,547,o),
(1002,397,o),
(963,348,q),
(547,907,ls),
(470,1010,o)
);
},
{
closed = 1;
nodes = (
(828,210,o),
(793,187,o),
(766,172,qs),
(722,149,o),
(630,125,o),
(588,125,qs),
(433,125,o),
(233,324,o),
(233,475,qs),
(233,567,o),
(324,730,o),
(416,803,q),
(844,223,l)
);
}
);
userData = {
assembly = "NPUSHB[ ]	/* 98 values pushed */
17 16 2 18 15 23 12 13 12 14 23 13 13 12 45 44 2 46 43 23 0 1 0 50 51 52 53 54 5 49 55 23 1 1 0 66 55 12 9 6 1 5 7 15 49 13 24 0 43 3 34 7 49 151 18 34 33 37 151 30 150 18 153 7 13 0 40 1 7 6 3 33 12 8 4 55 43 33 24 40 27 15 33 4 19 8 40 18 33 27 8 13 16 27 46 18 21 56
SRP0[ ]	/* SetRefPoint0 */
MDRP[11100]	/* MoveDirectRelPt */
MIRP[01100]	/* MoveIndirectRelPt */
MDRP[00100]	/* MoveDirectRelPt */
MIRP[11100]	/* MoveIndirectRelPt */
MDRP[00100]	/* MoveDirectRelPt */
SRP0[ ]	/* SetRefPoint0 */
MDRP[00110]	/* MoveDirectRelPt */
MIRP[01110]	/* MoveIndirectRelPt */
SRP0[ ]	/* SetRefPoint0 */
MIRP[01110]	/* MoveIndirectRelPt */
SRP1[ ]	/* SetRefPoint1 */
IP[ ]	/* InterpolatePts */
SRP1[ ]	/* SetRefPoint1 */
SRP2[ ]	/* SetRefPoint2 */
IP[ ]	/* InterpolatePts */
SRP1[ ]	/* SetRefPoint1 */
IP[ ]	/* InterpolatePts */
IP[ ]	/* InterpolatePts */
SRP1[ ]	/* SetRefPoint1 */
SRP2[ ]	/* SetRefPoint2 */
IP[ ]	/* InterpolatePts */
SRP2[ ]	/* SetRefPoint2 */
SLOOP[ ]	/* SetLoopVariable */
IP[ ]	/* InterpolatePts */
SRP1[ ]	/* SetRefPoint1 */
IP[ ]	/* InterpolatePts */
IUP[1]	/* InterpolateUntPts */
SVTCA[0]	/* SetFreedomAndProjectionVectorToAxis */
MDAP[1]	/* MoveDirectAbsPt */
MDRP[00110]	/* MoveDirectRelPt */
MIRP[00100]	/* MoveIndirectRelPt */
MIRP[10110]	/* MoveIndirectRelPt */
MIRP[01110]	/* MoveIndirectRelPt */
MDRP[10110]	/* MoveDirectRelPt */
MDRP[01110]	/* MoveDirectRelPt */
SRP0[ ]	/* SetRefPoint0 */
MIRP[01110]	/* MoveIndirectRelPt */
SRP1[ ]	/* SetRefPoint1 */
SRP2[ ]	/* SetRefPoint2 */
SLOOP[ ]	/* SetLoopVariable */
IP[ ]	/* InterpolatePts */
SRP1[ ]	/* SetRefPoint1 */
SRP2[ ]	/* SetRefPoint2 */
IP[ ]	/* InterpolatePts */
SRP1[ ]	/* SetRefPoint1 */
SLOOP[ ]	/* SetLoopVariable */
IP[ ]	/* InterpolatePts */
IUP[0]	/* InterpolateUntPts */
MPPEM[ ]	/* MeasurePixelPerEm */
GTEQ[ ]	/* GreaterThanOrEqual */
IF[ ]	/* If */
SPVTL[1]	/* SetPVectorToLine */
SRP0[ ]	/* SetRefPoint0 */
SFVTPV[ ]	/* SetFVectorToPVector */
MIRP[01101]	/* MoveIndirectRelPt */
SRP1[ ]	/* SetRefPoint1 */
SLOOP[ ]	/* SetLoopVariable */
IP[ ]	/* InterpolatePts */
SPVTL[1]	/* SetPVectorToLine */
SRP0[ ]	/* SetRefPoint0 */
SFVTPV[ ]	/* SetFVectorToPVector */
MIRP[01101]	/* MoveIndirectRelPt */
SRP1[ ]	/* SetRefPoint1 */
SLOOP[ ]	/* SetLoopVariable */
IP[ ]	/* InterpolatePts */
SPVTL[1]	/* SetPVectorToLine */
SRP0[ ]	/* SetRefPoint0 */
SFVTCA[1]	/* SetFVectorToAxis */
MIRP[01101]	/* MoveIndirectRelPt */
SPVTL[1]	/* SetPVectorToLine */
SRP0[ ]	/* SetRefPoint0 */
SFVTCA[1]	/* SetFVectorToAxis */
MIRP[01101]	/* MoveIndirectRelPt */
SRP1[ ]	/* SetRefPoint1 */
SLOOP[ ]	/* SetLoopVariable */
IP[ ]	/* InterpolatePts */
EIF[ ]	/* EndIf */
CLEAR[ ]	/* ClearStack */";
};
width = 1233;
}
);
note = ampersand;
unicode = 38;
},
{
glyphname = quotesingle;
lastChange = "2026-05-14 14:56:30 +0000";
layers = (
{
layerId = m01;
shapes = (
{
closed = 1;
nodes = (
(529,938,l),
(703,938,l),
(703,1493,l),
(529,1493,l)
);
}
);
userData = {
assembly = "PUSHB[ ]	/* 8 values pushed */
1 0 136 4 0 4 2 4
SRP0[ ]	/* SetRefPoint0 */
MDRP[10100]	/* MoveDirectRelPt */
MIRP[01100]	/* MoveIndirectRelPt */
IUP[1]	/* InterpolateUntPts */
SVTCA[0]	/* SetFreedomAndProjectionVectorToAxis */
SRP0[ ]	/* SetRefPoint0 */
MIRP[10100]	/* MoveIndirectRelPt */
MDRP[00100]	/* MoveDirectRelPt */
IUP[0]	/* InterpolateUntPts */";
};
width = 1233;
}
);
note = quotesingle;
unicode = 39;
},
{
glyphname = parenleft;
layers = (
{
layerId = m01;
shapes = (
{
closed = 1;
nodes = (
(574,1318,o),
(426,866,o),
(426,643,qs),
(426,419,o),
(574,-32,o),
(725,-270,q),
(885,-270,l),
(752,-40,o),
(621,414,o),
(621,643,qs),
(621,873,o),
(752,1326,o),
(885,1554,q),
(725,1554,l)
);
}
);
userData = {
assembly = "NPUSHB[ ]	/* 15 values pushed */
6 156 0 155 14 13 7 0 3 18 6 0 24 10 14
SRP0[ ]	/* SetRefPoint0 */
MDRP[10100]	/* MoveDirectRelPt */
MIRP[01100]	/* MoveIndirectRelPt */
SHP[0]	/* ShiftPointByLastPoint */
MIRP[01100]	/* MoveIndirectRelPt */
SRP1[ ]	/* SetRefPoint1 */
IP[ ]	/* InterpolatePts */
IP[ ]	/* InterpolatePts */
IUP[1]	/* InterpolateUntPts */
SVTCA[0]	/* SetFreedomAndProjectionVectorToAxis */
SRP0[ ]	/* SetRefPoint0 */
MIRP[11100]	/* MoveIndirectRelPt */
MIRP[01100]	/* MoveIndirectRelPt */
IUP[0]	/* InterpolateUntPts */";
};
width = 1233;
}
);
note = parenleft;
unicode = 40;
},
{
glyphname = parenright;
layers = (
{
layerId = m01;
shapes = (
{
closed = 1;
nodes = (
(612,871,o),
(612,643,qs),
(612,416,o),
(481,-38,o),
(348,-270,q),
(508,-270,l),
(659,-34,o),
(807,418,o),
(807,643,qs),
(807,866,o),
(659,1318,o),
(508,1554,q),
(348,1554,l),
(481,1325,o)
);
}
);
userData = {
assembly = "NPUSHB[ ]	/* 15 values pushed */
7 156 0 155 14 7 1 11 8 0 24 4 18 11 14
SRP0[ ]	/* SetRefPoint0 */
MDRP[10100]	/* MoveDirectRelPt */
MIRP[11100]	/* MoveIndirectRelPt */
MIRP[01100]	/* MoveIndirectRelPt */
SHP[0]	/* ShiftPointByLastPoint */
SRP1[ ]	/* SetRefPoint1 */
IP[ ]	/* InterpolatePts */
IP[ ]	/* InterpolatePts */
IUP[1]	/* InterpolateUntPts */
SVTCA[0]	/* SetFreedomAndProjectionVectorToAxis */
SRP0[ ]	/* SetRefPoint0 */
MIRP[11100]	/* MoveIndirectRelPt */
MIRP[01100]	/* MoveIndirectRelPt */
IUP[0]	/* InterpolateUntPts */";
};
width = 1233;
}
);
note = parenright;
unicode = 41;
},
{
glyphname = asterisk;
lastChange = "2026-05-14 14:47:47 +0000";
layers = (
{
layerId = m01;
shapes = (
{
closed = 1;
nodes = (
(684,748,l),
(684,1190,l),
(549,1190,l),
(549,748,l),
(155,986,l),
(88,870,l),
(508,642,l),
(88,413,l),
(155,298,l),
(549,536,l),
(549,94,l),
(684,94,l),
(684,536,l),
(1078,298,l),
(1145,413,l),
(725,642,l),
(1145,870,l),
(1078,986,l)
);
}
);
userData = {
assembly = "NPUSHB[ ]	/* 44 values pushed */
16 13 11 0 4 12 9 7 4 2 4 8 3 157 5 17 12 157 10 1 14 150 18 8 12 10 3 9 6 17 3 1 3 2 0 25 15 4 11 9 25 13 6 18
SRP0[ ]	/* SetRefPoint0 */
MDRP[10100]	/* MoveDirectRelPt */
ALIGNRP[ ]	/* AlignRelativePt */
MIRP[01100]	/* MoveIndirectRelPt */
SHP[0]	/* ShiftPointByLastPoint */
MDRP[11100]	/* MoveDirectRelPt */
ALIGNRP[ ]	/* AlignRelativePt */
MIRP[01100]	/* MoveIndirectRelPt */
SHP[0]	/* ShiftPointByLastPoint */
SLOOP[ ]	/* SetLoopVariable */
IP[ ]	/* InterpolatePts */
SRP1[ ]	/* SetRefPoint1 */
SRP2[ ]	/* SetRefPoint2 */
SLOOP[ ]	/* SetLoopVariable */
IP[ ]	/* InterpolatePts */
IUP[1]	/* InterpolateUntPts */
SVTCA[0]	/* SetFreedomAndProjectionVectorToAxis */
SRP0[ ]	/* SetRefPoint0 */
MIRP[10100]	/* MoveIndirectRelPt */
MDRP[10100]	/* MoveDirectRelPt */
ALIGNRP[ ]	/* AlignRelativePt */
MIRP[01100]	/* MoveIndirectRelPt */
SHP[0]	/* ShiftPointByLastPoint */
MDRP[00100]	/* MoveDirectRelPt */
MIRP[01100]	/* MoveIndirectRelPt */
SHP[0]	/* ShiftPointByLastPoint */
SLOOP[ ]	/* SetLoopVariable */
IP[ ]	/* InterpolatePts */
SRP2[ ]	/* SetRefPoint2 */
SLOOP[ ]	/* SetLoopVariable */
IP[ ]	/* InterpolatePts */
IUP[0]	/* InterpolateUntPts */";
};
width = 1233;
}
);
note = asterisk;
unicode = 42;
},
{
glyphname = plus;
lastChange = "2026-05-14 14:47:10 +0000";
layers = (
{
layerId = m01;
shapes = (
{
closed = 1;
nodes = (
(532,727,l),
(88,727,l),
(88,557,l),
(532,557,l),
(532,113,l),
(701,113,l),
(701,557,l),
(1145,557,l),
(1145,727,l),
(701,727,l),
(701,1171,l),
(532,1171,l)
);
}
);
userData = {
assembly = "NPUSHB[ ]	/* 20 values pushed */
0 161 9 1 160 5 161 7 3 12 2 26 4 0 28 8 26 10 6 12
SRP0[ ]	/* SetRefPoint0 */
MDRP[10100]	/* MoveDirectRelPt */
ALIGNRP[ ]	/* AlignRelativePt */
MIRP[01100]	/* MoveIndirectRelPt */
MIRP[11100]	/* MoveIndirectRelPt */
ALIGNRP[ ]	/* AlignRelativePt */
MIRP[01100]	/* MoveIndirectRelPt */
IUP[1]	/* InterpolateUntPts */
SVTCA[0]	/* SetFreedomAndProjectionVectorToAxis */
SRP0[ ]	/* SetRefPoint0 */
MDRP[10100]	/* MoveDirectRelPt */
ALIGNRP[ ]	/* AlignRelativePt */
MIRP[01100]	/* MoveIndirectRelPt */
MIRP[11100]	/* MoveIndirectRelPt */
ALIGNRP[ ]	/* AlignRelativePt */
MIRP[01100]	/* MoveIndirectRelPt */
IUP[0]	/* InterpolateUntPts */";
};
width = 1233;
}
);
note = plus;
unicode = 43;
},
{
glyphname = comma;
lastChange = "2026-05-14 14:50:19 +0000";
layers = (
{
layerId = m01;
shapes = (
{
closed = 1;
nodes = (
(391,-287,l),
(545,-287,l),
(742,96,l),
(742,303,l),
(490,303,l),
(490,96,l)
);
}
);
userData = {
assembly = "NPUSHB[ ]	/* 11 values pushed */
3 163 0 162 6 3 4 1 29 0 6
SRP0[ ]	/* SetRefPoint0 */
MDRP[10100]	/* MoveDirectRelPt */
MIRP[01100]	/* MoveIndirectRelPt */
MDRP[10100]	/* MoveDirectRelPt */
MDRP[01100]	/* MoveDirectRelPt */
IUP[1]	/* InterpolateUntPts */
SVTCA[0]	/* SetFreedomAndProjectionVectorToAxis */
SRP0[ ]	/* SetRefPoint0 */
MIRP[11100]	/* MoveIndirectRelPt */
MIRP[01100]	/* MoveIndirectRelPt */
IUP[0]	/* InterpolateUntPts */";
};
width = 1233;
}
);
note = comma;
unicode = 44;
},
{
glyphname = hyphen;
lastChange = "2026-05-14 14:44:58 +0000";
layers = (
{
layerId = m01;
shapes = (
{
closed = 1;
nodes = (
(1145,557,l),
(1145,727,l),
(88,727,l),
(88,557,l)
);
}
);
userData = {
assembly = "PUSHB[ ]	/* 7 values pushed */
0 160 2 4 1 0 4
SRP0[ ]	/* SetRefPoint0 */
MDRP[10100]	/* MoveDirectRelPt */
MDRP[00100]	/* MoveDirectRelPt */
IUP[1]	/* InterpolateUntPts */
SVTCA[0]	/* SetFreedomAndProjectionVectorToAxis */
SRP0[ ]	/* SetRefPoint0 */
MDRP[10100]	/* MoveDirectRelPt */
MIRP[01100]	/* MoveIndirectRelPt */
IUP[0]	/* InterpolateUntPts */";
};
width = 1233;
}
);
note = hyphen;
unicode = 45;
},
{
glyphname = period;
lastChange = "2026-05-14 14:50:41 +0000";
layers = (
{
layerId = m01;
shapes = (
{
closed = 1;
nodes = (
(742,0,l),
(742,303,l),
(490,303,l),
(490,0,l)
);
}
);
userData = {
assembly = "PUSHB[ ]	/* 7 values pushed */
0 162 2 1 29 0 4
SRP0[ ]	/* SetRefPoint0 */
MDRP[10100]	/* MoveDirectRelPt */
MIRP[01100]	/* MoveIndirectRelPt */
IUP[1]	/* InterpolateUntPts */
SVTCA[0]	/* SetFreedomAndProjectionVectorToAxis */
MDAP[1]	/* MoveDirectAbsPt */
MIRP[01100]	/* MoveIndirectRelPt */
IUP[0]	/* InterpolateUntPts */";
};
width = 1233;
}
);
note = period;
unicode = 46;
},
{
glyphname = slash;
lastChange = "2026-05-14 14:51:24 +0000";
layers = (
{
layerId = m01;
shapes = (
{
closed = 1;
nodes = (
(255,-270,l),
(1108,1556,l),
(919,1556,l),
(65,-270,l)
);
}
);
userData = {
assembly = "NPUSHB[ ]	/* 11 values pushed */
2 0 136 4 1 30 0 2 30 3 4
SRP0[ ]	/* SetRefPoint0 */
MDRP[10100]	/* MoveDirectRelPt */
MIRP[01100]	/* MoveIndirectRelPt */
MDRP[10100]	/* MoveDirectRelPt */
MIRP[01100]	/* MoveIndirectRelPt */
IUP[1]	/* InterpolateUntPts */
SVTCA[0]	/* SetFreedomAndProjectionVectorToAxis */
SRP0[ ]	/* SetRefPoint0 */
MIRP[10100]	/* MoveIndirectRelPt */
MDRP[00100]	/* MoveDirectRelPt */
IUP[0]	/* InterpolateUntPts */";
};
width = 1233;
}
);
note = slash;
unicode = 47;
},
{
glyphname = zero;
lastChange = "2026-05-14 14:54:31 +0000";
layers = (
{
layerId = m01;
shapes = (
{
closed = 1;
nodes = (
(711,1360,o),
(781,1310,o),
(828,1208,cs),
(833,1196,o),
(837,1186,o),
(842,1174,c),
(353,478,l),
(342,553,o),
(336,643,o),
(336,745,cs),
(336,952,o),
(359,1106,o),
(406,1208,cs),
(452,1309,o),
(522,1360,o),
(616,1360,cs)
);
},
{
closed = 1;
nodes = (
(297,1520,o),
(133,1256,o),
(133,745,cs),
(133,236,o),
(297,-29,o),
(616,-29,cs),
(935,-29,o),
(1100,236,o),
(1100,745,cs),
(1100,1256,o),
(935,1520,o),
(616,1520,cs)
);
},
{
closed = 1;
nodes = (
(880,1013,l),
(891,937,o),
(897,847,o),
(897,745,cs),
(897,538,o),
(874,384,o),
(828,283,cs),
(781,181,o),
(711,131,o),
(616,131,cs),
(522,131,o),
(452,182,o),
(406,283,cs),
(401,294,o),
(396,306,o),
(392,317,c)
);
}
);
userData = {
assembly = "NPUSHB[ ]	/* 26 values pushed */
3 165 9 18 151 30 12 151 24 150 30 153 36 21 30 27 6 33 0 27 34 15 30 33 31 36
SRP0[ ]	/* SetRefPoint0 */
MIRP[11100]	/* MoveIndirectRelPt */
MIRP[01100]	/* MoveIndirectRelPt */
MIRP[01100]	/* MoveIndirectRelPt */
MDRP[10100]	/* MoveDirectRelPt */
MIRP[01100]	/* MoveIndirectRelPt */
SRP0[ ]	/* SetRefPoint0 */
MIRP[01110]	/* MoveIndirectRelPt */
IUP[1]	/* InterpolateUntPts */
SVTCA[0]	/* SetFreedomAndProjectionVectorToAxis */
SRP0[ ]	/* SetRefPoint0 */
MIRP[00100]	/* MoveIndirectRelPt */
MIRP[10100]	/* MoveIndirectRelPt */
MIRP[01100]	/* MoveIndirectRelPt */
SRP0[ ]	/* SetRefPoint0 */
MIRP[01110]	/* MoveIndirectRelPt */
MDRP[10100]	/* MoveDirectRelPt */
MIRP[01110]	/* MoveIndirectRelPt */
IUP[0]	/* InterpolateUntPts */
NPUSHB[ ]	/* 214 values pushed */
47 0 47 1 47 2 47 3 47 4 47 5 47 6 47 7 47 8 47 9 47 10 47 11 63 0 63 1 63 2 63 3 63 4 63 5 63 6 63 7 63 8 63 9 63 10 63 11 79 0 79 1 79 2 79 10 79 11 95 0 95 1 95 2 95 10 95 11 159 0 159 1 159 2 159 3 159 4 159 5 159 6 159 7 159 8 159 9 159 10 159 11 175 0 175 1 175 2 175 3 175 4 175 5 175 6 175 7 175 8 175 9 175 10 175 11 191 0 191 1 191 2 191 3 191 4 191 5 191 6 191 7 191 8 191 9 191 10 191 11 70 47 0 47 1 47 2 47 3 47 4 47 5 47 6 47 7 47 8 47 9 47 10 47 11 95 0 95 1 95 2 95 3 95 4 95 5 95 6 95 7 95 8 95 9 95 10 95 11 191 0 191 1 191 2 191 3 191 4 191 5 191 6 191 7 191 8 191 9 191 10 191 11 36
DELTAP1[ ]	/* DeltaExceptionP1 */
SVTCA[1]	/* SetFreedomAndProjectionVectorToAxis */
DELTAP1[ ]	/* DeltaExceptionP1 */";
};
width = 1233;
}
);
note = zero;
unicode = 48;
},
{
glyphname = one;
layers = (
{
layerId = m01;
shapes = (
{
closed = 1;
nodes = (
(1094,0,l),
(1094,170,l),
(784,170,l),
(784,1493,l),
(582,1493,l),
(246,1419,l),
(246,1235,l),
(584,1311,l),
(584,170,l),
(270,170,l),
(270,0,l)
);
}
);
userData = {
assembly = "NPUSHB[ ]	/* 20 values pushed */
3 151 4 2 151 5 136 7 0 151 9 8 35 6 30 3 0 35 1 11
SRP0[ ]	/* SetRefPoint0 */
MDRP[10100]	/* MoveDirectRelPt */
MIRP[01100]	/* MoveIndirectRelPt */
MDRP[00100]	/* MoveDirectRelPt */
MIRP[11100]	/* MoveIndirectRelPt */
MIRP[01100]	/* MoveIndirectRelPt */
IUP[1]	/* InterpolateUntPts */
SVTCA[0]	/* SetFreedomAndProjectionVectorToAxis */
MDAP[1]	/* MoveDirectAbsPt */
MIRP[01100]	/* MoveIndirectRelPt */
SHP[0]	/* ShiftPointByLastPoint */
MIRP[10100]	/* MoveIndirectRelPt */
MIRP[01100]	/* MoveIndirectRelPt */
MDRP[10100]	/* MoveDirectRelPt */
MIRP[01100]	/* MoveIndirectRelPt */
IUP[0]	/* InterpolateUntPts */";
};
width = 1233;
}
);
note = one;
unicode = 49;
},
{
glyphname = two;
layers = (
{
layerId = m01;
shapes = (
{
closed = 1;
nodes = (
(804,629,o),
(860,694,qs),
(960,810,o),
(1049,1002,o),
(1049,1098,qs),
(1049,1287,o),
(782,1520,o),
(563,1520,qs),
(466,1520,o),
(267,1470,o),
(164,1421,q),
(164,1217,l),
(276,1284,o),
(476,1350,o),
(567,1350,qs),
(695,1350,o),
(842,1208,o),
(842,1083,qs),
(842,1004,o),
(772,853,o),
(672,731,qs),
(619,669,o),
(339,367,o),
(152,170,q),
(152,0,l),
(1059,0,l),
(1059,170,l),
(373,170,l),
(591,399,o)
);
}
);
userData = {
assembly = "NPUSHB[ ]	/* 41 values pushed */
0 28 37 5 6 5 24 25 26 3 23 27 37 6 6 5 66 16 17 167 13 151 20 150 4 0 151 2 0 16 10 2 1 10 30 23 34 16 3 36 29
SRP0[ ]	/* SetRefPoint0 */
MIRP[11100]	/* MoveIndirectRelPt */
MDRP[00100]	/* MoveDirectRelPt */
MIRP[11100]	/* MoveIndirectRelPt */
MIRP[01100]	/* MoveIndirectRelPt */
MDRP[00000]	/* MoveDirectRelPt */
MDRP[00000]	/* MoveDirectRelPt */
SRP1[ ]	/* SetRefPoint1 */
SRP2[ ]	/* SetRefPoint2 */
IP[ ]	/* InterpolatePts */
IUP[1]	/* InterpolateUntPts */
SVTCA[0]	/* SetFreedomAndProjectionVectorToAxis */
MDAP[1]	/* MoveDirectAbsPt */
MIRP[01100]	/* MoveIndirectRelPt */
SHP[0]	/* ShiftPointByLastPoint */
MIRP[10100]	/* MoveIndirectRelPt */
MIRP[01100]	/* MoveIndirectRelPt */
MIRP[10100]	/* MoveIndirectRelPt */
MDRP[01100]	/* MoveDirectRelPt */
IUP[0]	/* InterpolateUntPts */
MPPEM[ ]	/* MeasurePixelPerEm */
GTEQ[ ]	/* GreaterThanOrEqual */
IF[ ]	/* If */
SPVTL[1]	/* SetPVectorToLine */
SRP0[ ]	/* SetRefPoint0 */
SFVTCA[1]	/* SetFVectorToAxis */
MIRP[01101]	/* MoveIndirectRelPt */
SRP1[ ]	/* SetRefPoint1 */
SLOOP[ ]	/* SetLoopVariable */
IP[ ]	/* InterpolatePts */
SPVTL[1]	/* SetPVectorToLine */
SRP0[ ]	/* SetRefPoint0 */
SFVTCA[1]	/* SetFVectorToAxis */
MIRP[01101]	/* MoveIndirectRelPt */
SLOOP[ ]	/* SetLoopVariable */
SHP[0]	/* ShiftPointByLastPoint */
EIF[ ]	/* EndIf */
CLEAR[ ]	/* ClearStack */";
};
width = 1233;
}
);
note = two;
unicode = 50;
},
{
glyphname = three;
layers = (
{
layerId = m01;
shapes = (
{
closed = 1;
nodes = (
(1044,997,o),
(1044,1120,qs),
(1044,1301,o),
(783,1520,o),
(565,1520,qs),
(492,1520,o),
(303,1488,o),
(182,1456,q),
(182,1270,l),
(286,1310,o),
(476,1350,o),
(565,1350,qs),
(699,1350,o),
(844,1227,o),
(844,1112,qs),
(844,1003,o),
(688,881,o),
(549,881,qs),
(395,881,l),
(395,715,l),
(549,715,ls),
(701,715,o),
(879,562,o),
(879,432,qs),
(879,291,o),
(701,141,o),
(535,141,qs),
(437,141,o),
(239,193,o),
(137,246,q),
(137,45,l),
(240,9,o),
(454,-29,o),
(557,-29,qs),
(802,-29,o),
(1079,206,o),
(1079,412,qs),
(1079,561,o),
(923,760,o),
(776,799,q),
(907,833,o)
);
}
);
userData = {
assembly = "NPUSHB[ ]	/* 41 values pushed */
0 19 151 21 10 139 9 166 13 151 6 31 139 32 166 28 151 35 150 6 153 21 169 41 22 19 0 3 20 25 30 38 16 30 3 34 31 20 9 31 41
SRP0[ ]	/* SetRefPoint0 */
MIRP[11100]	/* MoveIndirectRelPt */
MDRP[00100]	/* MoveDirectRelPt */
MDRP[00100]	/* MoveDirectRelPt */
MIRP[11100]	/* MoveIndirectRelPt */
MIRP[01100]	/* MoveIndirectRelPt */
MDRP[10100]	/* MoveDirectRelPt */
MIRP[01100]	/* MoveIndirectRelPt */
SRP1[ ]	/* SetRefPoint1 */
SLOOP[ ]	/* SetLoopVariable */
IP[ ]	/* InterpolatePts */
IUP[1]	/* InterpolateUntPts */
SVTCA[0]	/* SetFreedomAndProjectionVectorToAxis */
SRP0[ ]	/* SetRefPoint0 */
MIRP[01100]	/* MoveIndirectRelPt */
MIRP[00100]	/* MoveIndirectRelPt */
MIRP[10100]	/* MoveIndirectRelPt */
MIRP[01100]	/* MoveIndirectRelPt */
MIRP[10100]	/* MoveIndirectRelPt */
MIRP[01100]	/* MoveIndirectRelPt */
SRP0[ ]	/* SetRefPoint0 */
MIRP[01110]	/* MoveIndirectRelPt */
MIRP[10110]	/* MoveIndirectRelPt */
MIRP[01110]	/* MoveIndirectRelPt */
SRP0[ ]	/* SetRefPoint0 */
MIRP[01110]	/* MoveIndirectRelPt */
IP[ ]	/* InterpolatePts */
IUP[0]	/* InterpolateUntPts */";
};
width = 1233;
}
);
note = three;
unicode = 51;
},
{
glyphname = four;
layers = (
{
layerId = m01;
shapes = (
{
closed = 1;
nodes = (
(264,520,l),
(735,1309,l),
(735,520,l)
);
},
{
closed = 1;
nodes = (
(102,356,l),
(735,356,l),
(735,0,l),
(936,0,l),
(936,356,l),
(1135,356,l),
(1135,520,l),
(936,520,l),
(936,1493,l),
(702,1493,l),
(102,547,l)
);
}
);
userData = {
assembly = "NPUSHB[ ]	/* 31 values pushed */
1 13 3 13 0 3 3 13 66 0 3 11 7 151 5 1 3 136 9 1 12 10 0 30 8 4 6 15 12 36 14
SRP0[ ]	/* SetRefPoint0 */
MIRP[11100]	/* MoveIndirectRelPt */
MIRP[11100]	/* MoveIndirectRelPt */
MDRP[10100]	/* MoveDirectRelPt */
ALIGNRP[ ]	/* AlignRelativePt */
MIRP[01100]	/* MoveIndirectRelPt */
SHP[0]	/* ShiftPointByLastPoint */
SRP1[ ]	/* SetRefPoint1 */
IP[ ]	/* InterpolatePts */
IUP[1]	/* InterpolateUntPts */
SVTCA[0]	/* SetFreedomAndProjectionVectorToAxis */
MDAP[1]	/* MoveDirectAbsPt */
MIRP[00100]	/* MoveIndirectRelPt */
MDRP[10100]	/* MoveDirectRelPt */
ALIGNRP[ ]	/* AlignRelativePt */
MIRP[01100]	/* MoveIndirectRelPt */
SHP[0]	/* ShiftPointByLastPoint */
SRP2[ ]	/* SetRefPoint2 */
IP[ ]	/* InterpolatePts */
IUP[0]	/* InterpolateUntPts */
MPPEM[ ]	/* MeasurePixelPerEm */
GTEQ[ ]	/* GreaterThanOrEqual */
IF[ ]	/* If */
SPVTL[1]	/* SetPVectorToLine */
SRP0[ ]	/* SetRefPoint0 */
SFVTCA[0]	/* SetFVectorToAxis */
MDRP[01001]	/* MoveDirectRelPt */
SPVTL[1]	/* SetPVectorToLine */
SRP0[ ]	/* SetRefPoint0 */
SFVTCA[1]	/* SetFVectorToAxis */
MDRP[01001]	/* MoveDirectRelPt */
EIF[ ]	/* EndIf */
CLEAR[ ]	/* ClearStack */";
};
width = 1233;
}
);
note = four;
unicode = 52;
},
{
glyphname = five;
layers = (
{
layerId = m01;
shapes = (
{
closed = 1;
nodes = (
(277,780,o),
(431,817,o),
(512,817,qs),
(679,817,o),
(866,639,o),
(866,479,qs),
(866,317,o),
(685,141,o),
(518,141,qs),
(421,141,o),
(235,190,o),
(143,240,q),
(143,35,l),
(221,3,o),
(418,-29,o),
(537,-29,qs),
(784,-29,o),
(1069,243,o),
(1069,479,qs),
(1069,713,o),
(797,987,o),
(565,987,qs),
(521,987,o),
(434,972,o),
(391,956,q),
(391,1323,l),
(963,1323,l),
(963,1493,l),
(207,1493,l),
(207,743,l)
);
}
);
userData = {
assembly = "NPUSHB[ ]	/* 34 values pushed */
4 7 29 26 151 7 17 139 16 142 20 151 13 2 151 0 136 13 153 7 170 30 3 30 0 23 30 1 10 34 0 16 31 30
SRP0[ ]	/* SetRefPoint0 */
MIRP[11100]	/* MoveIndirectRelPt */
MDRP[00100]	/* MoveDirectRelPt */
MIRP[11100]	/* MoveIndirectRelPt */
MDRP[00100]	/* MoveDirectRelPt */
MIRP[01100]	/* MoveIndirectRelPt */
SRP0[ ]	/* SetRefPoint0 */
MIRP[01110]	/* MoveIndirectRelPt */
IUP[1]	/* InterpolateUntPts */
SVTCA[0]	/* SetFreedomAndProjectionVectorToAxis */
SRP0[ ]	/* SetRefPoint0 */
MIRP[00100]	/* MoveIndirectRelPt */
MIRP[00100]	/* MoveIndirectRelPt */
MIRP[10100]	/* MoveIndirectRelPt */
MIRP[01100]	/* MoveIndirectRelPt */
SRP0[ ]	/* SetRefPoint0 */
MIRP[01110]	/* MoveIndirectRelPt */
MIRP[10110]	/* MoveIndirectRelPt */
MIRP[01110]	/* MoveIndirectRelPt */
SRP0[ ]	/* SetRefPoint0 */
MIRP[11110]	/* MoveIndirectRelPt */
MDRP[00100]	/* MoveDirectRelPt */
SRP2[ ]	/* SetRefPoint2 */
IP[ ]	/* InterpolatePts */
IUP[0]	/* InterpolateUntPts */";
};
width = 1233;
}
);
note = five;
unicode = 53;
},
{
glyphname = six;
layers = (
{
layerId = m01;
shapes = (
{
closed = 1;
nodes = (
(774,1520,o),
(700,1520,qs),
(424,1520,o),
(133,1123,o),
(133,745,qs),
(133,344,o),
(375,-29,o),
(635,-29,qs),
(856,-29,o),
(1100,237,o),
(1100,479,qs),
(1100,722,o),
(863,987,o),
(647,987,qs),
(537,987,o),
(367,880,o),
(319,780,q),
(319,1061,o),
(517,1350,o),
(709,1350,qs),
(786,1350,o),
(928,1311,o),
(991,1274,q),
(991,1460,l),
(922,1489,o)
);
},
{
closed = 1;
nodes = (
(901,653,o),
(901,479,qs),
(901,306,o),
(765,129,o),
(631,129,qs),
(502,129,o),
(354,315,o),
(354,479,qs),
(354,643,o),
(502,829,o),
(631,829,qs),
(765,829,o)
);
}
);
userData = {
assembly = "NPUSHB[ ]	/* 35 values pushed */
7 31 25 151 10 31 151 16 10 171 4 1 139 0 142 4 151 22 150 16 153 37 34 30 0 38 13 34 7 6 28 1 19 31 37
SRP0[ ]	/* SetRefPoint0 */
MIRP[11100]	/* MoveIndirectRelPt */
MIRP[01100]	/* MoveIndirectRelPt */
MIRP[01100]	/* MoveIndirectRelPt */
MIRP[11100]	/* MoveIndirectRelPt */
MIRP[00100]	/* MoveIndirectRelPt */
MIRP[01100]	/* MoveIndirectRelPt */
IUP[1]	/* InterpolateUntPts */
SVTCA[0]	/* SetFreedomAndProjectionVectorToAxis */
SRP0[ ]	/* SetRefPoint0 */
MIRP[00100]	/* MoveIndirectRelPt */
MIRP[10100]	/* MoveIndirectRelPt */
MIRP[01100]	/* MoveIndirectRelPt */
MIRP[10100]	/* MoveIndirectRelPt */
MIRP[01100]	/* MoveIndirectRelPt */
SRP0[ ]	/* SetRefPoint0 */
MIRP[00101]	/* MoveIndirectRelPt */
SRP0[ ]	/* SetRefPoint0 */
MIRP[01110]	/* MoveIndirectRelPt */
SRP0[ ]	/* SetRefPoint0 */
MIRP[01110]	/* MoveIndirectRelPt */
SRP1[ ]	/* SetRefPoint1 */
IP[ ]	/* InterpolatePts */
IUP[0]	/* InterpolateUntPts */";
};
width = 1233;
}
);
note = six;
unicode = 54;
},
{
glyphname = seven;
layers = (
{
layerId = m01;
shapes = (
{
closed = 1;
nodes = (
(854,1323,l),
(334,0,l),
(545,0,l),
(1079,1407,l),
(1079,1493,l),
(139,1493,l),
(139,1323,l)
);
}
);
userData = {
assembly = "NPUSHB[ ]	/* 25 values pushed */
5 37 2 3 2 3 37 4 5 4 66 5 151 0 136 3 5 3 1 4 1 34 0 31 7
SRP0[ ]	/* SetRefPoint0 */
MIRP[11100]	/* MoveIndirectRelPt */
MIRP[01100]	/* MoveIndirectRelPt */
MDRP[00100]	/* MoveDirectRelPt */
SRP1[ ]	/* SetRefPoint1 */
IP[ ]	/* InterpolatePts */
IP[ ]	/* InterpolatePts */
IUP[1]	/* InterpolateUntPts */
SVTCA[0]	/* SetFreedomAndProjectionVectorToAxis */
MDAP[1]	/* MoveDirectAbsPt */
MIRP[10100]	/* MoveIndirectRelPt */
MIRP[01100]	/* MoveIndirectRelPt */
IUP[0]	/* InterpolateUntPts */
MPPEM[ ]	/* MeasurePixelPerEm */
GTEQ[ ]	/* GreaterThanOrEqual */
IF[ ]	/* If */
SPVTL[1]	/* SetPVectorToLine */
SRP0[ ]	/* SetRefPoint0 */
SFVTCA[1]	/* SetFVectorToAxis */
MIRP[01101]	/* MoveIndirectRelPt */
SPVTL[1]	/* SetPVectorToLine */
SRP0[ ]	/* SetRefPoint0 */
SFVTCA[1]	/* SetFVectorToAxis */
MIRP[01101]	/* MoveIndirectRelPt */
EIF[ ]	/* EndIf */
CLEAR[ ]	/* ClearStack */";
};
width = 1233;
}
);
note = seven;
unicode = 55;
},
{
glyphname = eight;
layers = (
{
layerId = m01;
shapes = (
{
closed = 1;
nodes = (
(899,557,o),
(899,420,qs),
(899,280,o),
(752,129,o),
(616,129,qs),
(483,129,o),
(334,282,o),
(334,420,qs),
(334,558,o),
(481,709,o),
(616,709,qs),
(750,709,o)
);
},
{
closed = 1;
nodes = (
(131,559,o),
(131,399,qs),
(131,198,o),
(388,-29,o),
(616,-29,qs),
(844,-29,o),
(1102,199,o),
(1102,401,qs),
(1102,560,o),
(943,760,o),
(793,793,q),
(922,826,o),
(1067,1006,o),
(1067,1133,qs),
(1067,1311,o),
(825,1520,o),
(616,1520,qs),
(408,1520,o),
(166,1311,o),
(166,1133,qs),
(166,1006,o),
(311,826,o),
(440,793,q),
(290,760,o)
);
},
{
closed = 1;
nodes = (
(495,1364,o),
(616,1364,qs),
(739,1364,o),
(866,1236,o),
(866,1114,qs),
(866,994,o),
(738,868,o),
(616,868,qs),
(495,868,o),
(367,994,o),
(367,1114,qs),
(367,1235,o)
);
}
);
userData = {
assembly = "NPUSHB[ ]	/* 37 values pushed */
24 12 0 151 39 6 151 30 45 151 18 150 30 153 39 169 48 24 12 36 42 30 21 36 30 15 9 30 21 27 34 3 30 15 33 31 48
SRP0[ ]	/* SetRefPoint0 */
MIRP[11100]	/* MoveIndirectRelPt */
MDRP[00100]	/* MoveDirectRelPt */
MIRP[01100]	/* MoveIndirectRelPt */
MIRP[11100]	/* MoveIndirectRelPt */
MDRP[00100]	/* MoveDirectRelPt */
MIRP[01100]	/* MoveIndirectRelPt */
SRP0[ ]	/* SetRefPoint0 */
MIRP[01110]	/* MoveIndirectRelPt */
SRP0[ ]	/* SetRefPoint0 */
MIRP[01110]	/* MoveIndirectRelPt */
SRP1[ ]	/* SetRefPoint1 */
IP[ ]	/* InterpolatePts */
IP[ ]	/* InterpolatePts */
IUP[1]	/* InterpolateUntPts */
SVTCA[0]	/* SetFreedomAndProjectionVectorToAxis */
SRP0[ ]	/* SetRefPoint0 */
MIRP[01100]	/* MoveIndirectRelPt */
MIRP[00100]	/* MoveIndirectRelPt */
MIRP[10100]	/* MoveIndirectRelPt */
MIRP[01100]	/* MoveIndirectRelPt */
SRP0[ ]	/* SetRefPoint0 */
MIRP[01110]	/* MoveIndirectRelPt */
SRP0[ ]	/* SetRefPoint0 */
MIRP[01110]	/* MoveIndirectRelPt */
IP[ ]	/* InterpolatePts */
IP[ ]	/* InterpolatePts */
IUP[0]	/* InterpolateUntPts */";
};
width = 1233;
}
);
note = eight;
unicode = 56;
},
{
glyphname = nine;
layers = (
{
layerId = m01;
shapes = (
{
closed = 1;
nodes = (
(326,838,o),
(326,1012,qs),
(326,1185,o),
(462,1362,o),
(596,1362,qs),
(725,1362,o),
(872,1176,o),
(872,1012,qs),
(872,848,o),
(725,662,o),
(596,662,qs),
(461,662,o)
);
},
{
closed = 1;
nodes = (
(453,-29,o),
(526,-29,qs),
(803,-29,o),
(1094,368,o),
(1094,745,qs),
(1094,1146,o),
(852,1520,o),
(592,1520,qs),
(370,1520,o),
(127,1255,o),
(127,1014,qs),
(127,770,o),
(364,504,o),
(580,504,qs),
(690,504,o),
(860,611,o),
(907,711,q),
(907,430,o),
(710,141,o),
(518,141,qs),
(441,141,o),
(299,180,o),
(236,217,q),
(236,31,l),
(305,2,o)
);
}
);
userData = {
assembly = "NPUSHB[ ]	/* 34 values pushed */
19 6 0 151 22 171 16 13 139 12 142 16 151 34 6 151 28 150 34 153 37 19 6 3 1 31 34 9 30 12 38 25 31 37
SRP0[ ]	/* SetRefPoint0 */
MIRP[11100]	/* MoveIndirectRelPt */
MIRP[00100]	/* MoveIndirectRelPt */
MIRP[01100]	/* MoveIndirectRelPt */
MIRP[11100]	/* MoveIndirectRelPt */
MIRP[01100]	/* MoveIndirectRelPt */
MIRP[01100]	/* MoveIndirectRelPt */
IUP[1]	/* InterpolateUntPts */
SVTCA[0]	/* SetFreedomAndProjectionVectorToAxis */
SRP0[ ]	/* SetRefPoint0 */
MIRP[00100]	/* MoveIndirectRelPt */
MIRP[10100]	/* MoveIndirectRelPt */
MIRP[01100]	/* MoveIndirectRelPt */
SRP0[ ]	/* SetRefPoint0 */
MIRP[01110]	/* MoveIndirectRelPt */
MIRP[10110]	/* MoveIndirectRelPt */
MIRP[01110]	/* MoveIndirectRelPt */
SRP0[ ]	/* SetRefPoint0 */
MIRP[10101]	/* MoveIndirectRelPt */
MIRP[01110]	/* MoveIndirectRelPt */
SRP1[ ]	/* SetRefPoint1 */
IP[ ]	/* InterpolatePts */
IUP[0]	/* InterpolateUntPts */";
};
width = 1233;
}
);
note = nine;
unicode = 57;
},
{
glyphname = colon;
lastChange = "2026-05-14 14:49:18 +0000";
layers = (
{
layerId = m01;
shapes = (
{
closed = 1;
nodes = (
(742,760,l),
(742,1063,l),
(490,1063,l),
(490,760,l)
);
},
{
closed = 1;
nodes = (
(742,0,l),
(742,303,l),
(490,303,l),
(490,0,l)
);
}
);
userData = {
assembly = "NPUSHB[ ]	/* 13 values pushed */
2 162 0 172 4 162 6 5 1 29 4 0 8
SRP0[ ]	/* SetRefPoint0 */
MDRP[10100]	/* MoveDirectRelPt */
ALIGNRP[ ]	/* AlignRelativePt */
MIRP[01100]	/* MoveIndirectRelPt */
SHP[0]	/* ShiftPointByLastPoint */
IUP[1]	/* InterpolateUntPts */
SVTCA[0]	/* SetFreedomAndProjectionVectorToAxis */
MDAP[1]	/* MoveDirectAbsPt */
MIRP[01100]	/* MoveIndirectRelPt */
MIRP[10100]	/* MoveIndirectRelPt */
MIRP[01100]	/* MoveIndirectRelPt */
IUP[0]	/* InterpolateUntPts */";
};
width = 1233;
}
);
note = colon;
unicode = 58;
},
{
glyphname = semicolon;
lastChange = "2026-05-14 14:49:29 +0000";
layers = (
{
layerId = m01;
shapes = (
{
closed = 1;
nodes = (
(391,-287,l),
(545,-287,l),
(742,96,l),
(742,303,l),
(490,303,l),
(490,96,l)
);
},
{
closed = 1;
nodes = (
(742,760,l),
(742,1063,l),
(490,1063,l),
(490,760,l)
);
}
);
userData = {
assembly = "NPUSHB[ ]	/* 19 values pushed */
8 162 6 3 163 0 162 6 172 10 3 4 0 29 1 7 29 6 10
SRP0[ ]	/* SetRefPoint0 */
MDRP[10100]	/* MoveDirectRelPt */
MIRP[11100]	/* MoveIndirectRelPt */
MDRP[10100]	/* MoveDirectRelPt */
MIRP[11100]	/* MoveIndirectRelPt */
MDRP[10100]	/* MoveDirectRelPt */
MDRP[01100]	/* MoveDirectRelPt */
IUP[1]	/* InterpolateUntPts */
SVTCA[0]	/* SetFreedomAndProjectionVectorToAxis */
SRP0[ ]	/* SetRefPoint0 */
MIRP[00100]	/* MoveIndirectRelPt */
MIRP[11100]	/* MoveIndirectRelPt */
MIRP[01100]	/* MoveIndirectRelPt */
SRP0[ ]	/* SetRefPoint0 */
MIRP[01110]	/* MoveIndirectRelPt */
IUP[0]	/* InterpolateUntPts */";
};
width = 1233;
}
);
note = semicolon;
unicode = 59;
},
{
glyphname = less;
layers = (
{
layerId = m01;
shapes = (
{
closed = 1;
nodes = (
(88,725,l),
(88,559,l),
(1145,141,l),
(1145,324,l),
(295,641,l),
(1145,961,l),
(1145,1143,l)
);
}
);
userData = {
assembly = "NPUSHB[ ]	/* 18 values pushed */
5 4 2 1 0 5 3 174 6 173 7 1 2 0 40 4 39 7
SRP0[ ]	/* SetRefPoint0 */
MIRP[11100]	/* MoveIndirectRelPt */
MIRP[01100]	/* MoveIndirectRelPt */
SHP[0]	/* ShiftPointByLastPoint */
IP[ ]	/* InterpolatePts */
IUP[1]	/* InterpolateUntPts */
SVTCA[0]	/* SetFreedomAndProjectionVectorToAxis */
SRP0[ ]	/* SetRefPoint0 */
MIRP[10100]	/* MoveIndirectRelPt */
MIRP[01100]	/* MoveIndirectRelPt */
SLOOP[ ]	/* SetLoopVariable */
IP[ ]	/* InterpolatePts */
IUP[0]	/* InterpolateUntPts */";
};
width = 1233;
}
);
note = less;
unicode = 60;
},
{
glyphname = equal;
lastChange = "2026-05-14 14:52:03 +0000";
layers = (
{
layerId = m01;
shapes = (
{
closed = 1;
nodes = (
(1145,319,l),
(1145,489,l),
(88,489,l),
(88,319,l)
);
},
{
closed = 1;
nodes = (
(1145,795,l),
(1145,965,l),
(88,965,l),
(88,795,l)
);
}
);
userData = {
assembly = "NPUSHB[ ]	/* 12 values pushed */
4 160 6 2 160 0 8 5 1 4 0 8
SRP0[ ]	/* SetRefPoint0 */
MDRP[10100]	/* MoveDirectRelPt */
ALIGNRP[ ]	/* AlignRelativePt */
MDRP[00100]	/* MoveDirectRelPt */
SHP[0]	/* ShiftPointByLastPoint */
IUP[1]	/* InterpolateUntPts */
SVTCA[0]	/* SetFreedomAndProjectionVectorToAxis */
SRP0[ ]	/* SetRefPoint0 */
MDRP[10100]	/* MoveDirectRelPt */
MIRP[01100]	/* MoveIndirectRelPt */
MDRP[10100]	/* MoveDirectRelPt */
MIRP[01100]	/* MoveIndirectRelPt */
IUP[0]	/* InterpolateUntPts */";
};
width = 1233;
}
);
note = equal;
unicode = 61;
},
{
glyphname = greater;
layers = (
{
layerId = m01;
shapes = (
{
closed = 1;
nodes = (
(88,324,l),
(88,141,l),
(1145,559,l),
(1145,725,l),
(88,1143,l),
(88,961,l),
(938,641,l)
);
}
);
userData = {
assembly = "NPUSHB[ ]	/* 18 values pushed */
6 5 3 2 0 5 4 174 1 173 7 6 2 40 4 0 39 7
SRP0[ ]	/* SetRefPoint0 */
MIRP[11100]	/* MoveIndirectRelPt */
ALIGNRP[ ]	/* AlignRelativePt */
MIRP[01100]	/* MoveIndirectRelPt */
IP[ ]	/* InterpolatePts */
IUP[1]	/* InterpolateUntPts */
SVTCA[0]	/* SetFreedomAndProjectionVectorToAxis */
SRP0[ ]	/* SetRefPoint0 */
MIRP[10100]	/* MoveIndirectRelPt */
MIRP[01100]	/* MoveIndirectRelPt */
SLOOP[ ]	/* SetLoopVariable */
IP[ ]	/* InterpolatePts */
IUP[0]	/* InterpolateUntPts */";
};
width = 1233;
}
);
note = greater;
unicode = 62;
},
{
glyphname = question;
layers = (
{
layerId = m01;
shapes = (
{
closed = 1;
nodes = (
(684,571,ls),
(684,632,o),
(722,716,o),
(791,782,qs),
(879,868,ls),
(973,960,o),
(1040,1091,o),
(1040,1167,qs),
(1040,1328,o),
(819,1520,o),
(633,1520,qs),
(529,1520,o),
(338,1464,o),
(244,1407,q),
(244,1219,l),
(342,1287,o),
(520,1356,o),
(598,1356,qs),
(707,1356,o),
(838,1246,o),
(838,1157,qs),
(838,1108,o),
(791,1020,o),
(729,961,qs),
(639,872,ls),
(555,790,o),
(494,653,o),
(494,555,qs),
(494,401,l),
(684,401,l),
(684,524,l)
);
},
{
closed = 1;
nodes = (
(690,0,l),
(690,254,l),
(487,254,l),
(487,0,l)
);
}
);
userData = {
assembly = "NPUSHB[ ]	/* 66 values pushed */
11 10 9 8 7 5 12 6 37 25 26 25 3 4 2 2 5 37 26 26 25 66 29 26 5 2 4 6 25 15 0 31 16 139 15 141 12 151 19 150 31 134 33 6 32 25 22 9 5 1 0 26 32 9 0 3 1 9 41 22 15 1 32 3 31 35
SRP0[ ]	/* SetRefPoint0 */
MDRP[10100]	/* MoveDirectRelPt */
MIRP[01100]	/* MoveIndirectRelPt */
MDRP[00100]	/* MoveDirectRelPt */
MDRP[10100]	/* MoveDirectRelPt */
MDRP[10100]	/* MoveDirectRelPt */
MIRP[01100]	/* MoveIndirectRelPt */
SRP0[ ]	/* SetRefPoint0 */
MIRP[01110]	/* MoveIndirectRelPt */
SRP1[ ]	/* SetRefPoint1 */
SRP2[ ]	/* SetRefPoint2 */
IP[ ]	/* InterpolatePts */
SRP1[ ]	/* SetRefPoint1 */
SRP2[ ]	/* SetRefPoint2 */
IP[ ]	/* InterpolatePts */
SRP1[ ]	/* SetRefPoint1 */
SRP2[ ]	/* SetRefPoint2 */
IP[ ]	/* InterpolatePts */
SRP2[ ]	/* SetRefPoint2 */
IP[ ]	/* InterpolatePts */
IUP[1]	/* InterpolateUntPts */
SVTCA[0]	/* SetFreedomAndProjectionVectorToAxis */
MDAP[1]	/* MoveDirectAbsPt */
MIRP[01110]	/* MoveIndirectRelPt */
MIRP[10110]	/* MoveIndirectRelPt */
MIRP[11110]	/* MoveIndirectRelPt */
MIRP[10100]	/* MoveIndirectRelPt */
MIRP[01110]	/* MoveIndirectRelPt */
SRP0[ ]	/* SetRefPoint0 */
MDRP[01101]	/* MoveDirectRelPt */
SRP1[ ]	/* SetRefPoint1 */
IP[ ]	/* InterpolatePts */
IP[ ]	/* InterpolatePts */
SLOOP[ ]	/* SetLoopVariable */
IP[ ]	/* InterpolatePts */
IUP[0]	/* InterpolateUntPts */
MPPEM[ ]	/* MeasurePixelPerEm */
GTEQ[ ]	/* GreaterThanOrEqual */
IF[ ]	/* If */
SPVTL[1]	/* SetPVectorToLine */
SRP0[ ]	/* SetRefPoint0 */
SFVTCA[0]	/* SetFVectorToAxis */
MIRP[01101]	/* MoveIndirectRelPt */
SRP1[ ]	/* SetRefPoint1 */
SLOOP[ ]	/* SetLoopVariable */
IP[ ]	/* InterpolatePts */
SPVTL[1]	/* SetPVectorToLine */
SRP0[ ]	/* SetRefPoint0 */
SFVTCA[0]	/* SetFVectorToAxis */
MIRP[01101]	/* MoveIndirectRelPt */
SRP1[ ]	/* SetRefPoint1 */
SLOOP[ ]	/* SetLoopVariable */
IP[ ]	/* InterpolatePts */
EIF[ ]	/* EndIf */
CLEAR[ ]	/* ClearStack */";
};
width = 1233;
}
);
note = question;
unicode = 63;
},
{
glyphname = at;
layers = (
{
layerId = m01;
shapes = (
{
closed = 1;
nodes = (
(910,260,o),
(803,260,qs),
(696,260,o),
(567,415,o),
(567,545,qs),
(567,674,o),
(696,829,o),
(803,829,qs),
(910,829,o),
(1038,674,o),
(1038,545,qs),
(1038,415,o)
);
},
{
closed = 1;
nodes = (
(1178,1129,o),
(928,1395,o),
(719,1395,qs),
(403,1395,o),
(27,933,o),
(27,543,qs),
(27,147,o),
(446,-319,o),
(803,-319,qs),
(861,-319,o),
(984,-295,o),
(1047,-270,q),
(999,-135,l),
(942,-156,o),
(834,-176,o),
(780,-176,qs),
(506,-176,o),
(176,214,o),
(176,543,qs),
(176,870,o),
(467,1253,o),
(713,1253,qs),
(858,1253,o),
(1034,1063,o),
(1034,907,qs),
(1034,844,l),
(998,905,o),
(864,975,o),
(784,975,qs),
(623,975,o),
(412,733,o),
(412,545,qs),
(412,357,o),
(623,115,o),
(784,115,qs),
(866,115,o),
(997,183,o),
(1034,246,q),
(1034,135,l),
(1178,135,l),
(1178,905,ls)
);
}
);
userData = {
assembly = "NPUSHB[ ]	/* 49 values pushed */
40 43 36 26 23 3 14 12 9 27 52 3 175 23 9 175 12 17 39 36 175 43 23 30 175 49 43 53 39 13 6 40 12 0 6 43 20 0 26 13 46 12 20 33 43 12 45 46 53
SRP0[ ]	/* SetRefPoint0 */
MDRP[11100]	/* MoveDirectRelPt */
MIRP[01100]	/* MoveIndirectRelPt */
MIRP[11100]	/* MoveIndirectRelPt */
MDRP[00100]	/* MoveDirectRelPt */
SRP0[ ]	/* SetRefPoint0 */
MIRP[11110]	/* MoveIndirectRelPt */
ALIGNRP[ ]	/* AlignRelativePt */
MDRP[00100]	/* MoveDirectRelPt */
SRP0[ ]	/* SetRefPoint0 */
MIRP[01110]	/* MoveIndirectRelPt */
SRP1[ ]	/* SetRefPoint1 */
SRP2[ ]	/* SetRefPoint2 */
IP[ ]	/* InterpolatePts */
SRP1[ ]	/* SetRefPoint1 */
SRP2[ ]	/* SetRefPoint2 */
IP[ ]	/* InterpolatePts */
IUP[1]	/* InterpolateUntPts */
SVTCA[0]	/* SetFreedomAndProjectionVectorToAxis */
SRP0[ ]	/* SetRefPoint0 */
MDRP[00100]	/* MoveDirectRelPt */
MDRP[10100]	/* MoveDirectRelPt */
MIRP[11100]	/* MoveIndirectRelPt */
MDRP[00100]	/* MoveDirectRelPt */
SRP0[ ]	/* SetRefPoint0 */
MIRP[11110]	/* MoveIndirectRelPt */
MDRP[00100]	/* MoveDirectRelPt */
MDRP[10101]	/* MoveDirectRelPt */
MDRP[00100]	/* MoveDirectRelPt */
MIRP[01110]	/* MoveIndirectRelPt */
SRP0[ ]	/* SetRefPoint0 */
MIRP[01110]	/* MoveIndirectRelPt */
IP[ ]	/* InterpolatePts */
IP[ ]	/* InterpolatePts */
SRP1[ ]	/* SetRefPoint1 */
SRP2[ ]	/* SetRefPoint2 */
IP[ ]	/* InterpolatePts */
SRP1[ ]	/* SetRefPoint1 */
SRP2[ ]	/* SetRefPoint2 */
IP[ ]	/* InterpolatePts */
SRP1[ ]	/* SetRefPoint1 */
SRP2[ ]	/* SetRefPoint2 */
IP[ ]	/* InterpolatePts */
IUP[0]	/* InterpolateUntPts */
NPUSHB[ ]	/* 13 values pushed */
128 5 128 6 128 7 128 19 128 20 128 21 6
SVTCA[1]	/* SetFreedomAndProjectionVectorToAxis */
DELTAP1[ ]	/* DeltaExceptionP1 */";
};
width = 1233;
}
);
note = at;
unicode = 64;
},
{
glyphname = A;
layers = (
{
layerId = m01;
shapes = (
{
closed = 1;
nodes = (
(403,551,l),
(616,1315,l),
(829,551,l)
);
},
{
closed = 1;
nodes = (
(246,0,l),
(354,389,l),
(877,389,l),
(987,0,l),
(1196,0,l),
(739,1493,l),
(494,1493,l),
(37,0,l)
);
}
);
userData = {
assembly = "NPUSHB[ ]	/* 65 values pushed */
0 37 1 0 4 5 4 2 37 5 4 7 37 5 4 6 37 5 5 4 9 37 3 10 8 37 3 10 1 37 10 3 10 0 37 2 0 3 3 10 66 0 3 7 151 1 176 3 136 9 5 9 8 7 6 4 3 2 1 0 9 5 47 10 11
SRP0[ ]	/* SetRefPoint0 */
MDRP[11100]	/* MoveDirectRelPt */
MIRP[01100]	/* MoveIndirectRelPt */
SLOOP[ ]	/* SetLoopVariable */
IP[ ]	/* InterpolatePts */
IUP[1]	/* InterpolateUntPts */
SVTCA[0]	/* SetFreedomAndProjectionVectorToAxis */
MDAP[1]	/* MoveDirectAbsPt */
ALIGNRP[ ]	/* AlignRelativePt */
MIRP[00100]	/* MoveIndirectRelPt */
MIRP[11100]	/* MoveIndirectRelPt */
MIRP[01100]	/* MoveIndirectRelPt */
SRP2[ ]	/* SetRefPoint2 */
IP[ ]	/* InterpolatePts */
IUP[0]	/* InterpolateUntPts */
MPPEM[ ]	/* MeasurePixelPerEm */
GTEQ[ ]	/* GreaterThanOrEqual */
IF[ ]	/* If */
SPVTL[1]	/* SetPVectorToLine */
SRP0[ ]	/* SetRefPoint0 */
SFVTL[0]	/* SetFVectorToLine */
MIRP[01101]	/* MoveIndirectRelPt */
SPVTL[1]	/* SetPVectorToLine */
SRP0[ ]	/* SetRefPoint0 */
SFVTCA[1]	/* SetFVectorToAxis */
MIRP[01101]	/* MoveIndirectRelPt */
SPVTL[1]	/* SetPVectorToLine */
SFVTCA[1]	/* SetFVectorToAxis */
MIRP[01101]	/* MoveIndirectRelPt */
SPVTL[1]	/* SetPVectorToLine */
SFVTCA[1]	/* SetFVectorToAxis */
MIRP[01101]	/* MoveIndirectRelPt */
SPVTL[1]	/* SetPVectorToLine */
SRP0[ ]	/* SetRefPoint0 */
SFVTCA[1]	/* SetFVectorToAxis */
MIRP[01101]	/* MoveIndirectRelPt */
SPVTL[1]	/* SetPVectorToLine */
SFVTCA[1]	/* SetFVectorToAxis */
MIRP[01101]	/* MoveIndirectRelPt */
SPVTL[1]	/* SetPVectorToLine */
SFVTCA[1]	/* SetFVectorToAxis */
MIRP[01101]	/* MoveIndirectRelPt */
SPVTL[1]	/* SetPVectorToLine */
SRP0[ ]	/* SetRefPoint0 */
SFVTL[0]	/* SetFVectorToLine */
MIRP[01101]	/* MoveIndirectRelPt */
EIF[ ]	/* EndIf */
CLEAR[ ]	/* ClearStack */
PUSHB[ ]	/* 3 values pushed */
7 3 1
SVTCA[1]	/* SetFreedomAndProjectionVectorToAxis */
DELTAP1[ ]	/* DeltaExceptionP1 */
NPUSHB[ ]	/* 26 values pushed */
10 0 15 0 143 0 143 0 4 3 1 11 2 4 3 12 4 9 7 6 8 134 1 137 2 8
DELTAP1[ ]	/* DeltaExceptionP1 */
SVTCA[0]	/* SetFreedomAndProjectionVectorToAxis */
DELTAP1[ ]	/* DeltaExceptionP1 */";
};
width = 1233;
}
);
note = A;
unicode = 65;
},
{
glyphname = B;
layers = (
{
layerId = m01;
shapes = (
{
closed = 1;
nodes = (
(776,713,o),
(934,576,o),
(934,430,qs),
(934,289,o),
(784,166,o),
(608,166,qs),
(369,166,l),
(369,713,l),
(608,713,ls)
);
},
{
closed = 1;
nodes = (
(752,1327,o),
(881,1227,o),
(881,1114,qs),
(881,989,o),
(750,877,o),
(604,877,qs),
(369,877,l),
(369,1327,l),
(604,1327,ls)
);
},
{
closed = 1;
nodes = (
(608,0,ls),
(871,0,o),
(1137,207,o),
(1137,410,qs),
(1137,570,o),
(970,777,o),
(823,799,q),
(954,819,o),
(1085,977,o),
(1085,1114,qs),
(1085,1295,o),
(837,1493,o),
(608,1493,qs),
(166,1493,l),
(166,0,l)
);
}
);
userData = {
assembly = "NPUSHB[ ]	/* 35 values pushed */
25 0 151 10 9 151 18 136 1 151 10 177 31 17 11 25 31 19 8 2 5 0 14 30 22 5 50 28 49 9 0 30 18 48 33
SRP0[ ]	/* SetRefPoint0 */
MIRP[11100]	/* MoveIndirectRelPt */
MIRP[01100]	/* MoveIndirectRelPt */
SHP[0]	/* ShiftPointByLastPoint */
MIRP[11100]	/* MoveIndirectRelPt */
MIRP[01100]	/* MoveIndirectRelPt */
MDRP[10100]	/* MoveDirectRelPt */
MIRP[01100]	/* MoveIndirectRelPt */
SRP1[ ]	/* SetRefPoint1 */
SLOOP[ ]	/* SetLoopVariable */
IP[ ]	/* InterpolatePts */
IP[ ]	/* InterpolatePts */
IP[ ]	/* InterpolatePts */
IUP[1]	/* InterpolateUntPts */
SVTCA[0]	/* SetFreedomAndProjectionVectorToAxis */
MDAP[1]	/* MoveDirectAbsPt */
MIRP[01100]	/* MoveIndirectRelPt */
MIRP[01100]	/* MoveIndirectRelPt */
MIRP[10100]	/* MoveIndirectRelPt */
MIRP[01100]	/* MoveIndirectRelPt */
SRP0[ ]	/* SetRefPoint0 */
MIRP[01110]	/* MoveIndirectRelPt */
IP[ ]	/* InterpolatePts */
IUP[0]	/* InterpolateUntPts */";
};
width = 1233;
}
);
note = B;
unicode = 66;
},
{
glyphname = C;
layers = (
{
layerId = m01;
shapes = (
{
closed = 1;
nodes = (
(1000,199,o),
(831,135,o),
(743,135,qs),
(546,135,o),
(350,439,o),
(350,745,qs),
(350,1052,o),
(546,1356,o),
(743,1356,qs),
(829,1356,o),
(999,1292,o),
(1073,1231,q),
(1073,1438,l),
(996,1479,o),
(834,1520,o),
(743,1520,qs),
(458,1520,o),
(139,1111,o),
(139,745,qs),
(139,377,o),
(456,-29,o),
(743,-29,qs),
(834,-29,o),
(996,12,o),
(1073,53,q),
(1073,260,l)
);
}
);
userData = {
assembly = "NPUSHB[ ]	/* 26 values pushed */
25 179 0 178 22 151 3 13 179 12 178 16 151 9 150 3 153 26 19 50 12 0 49 6 48 26
SRP0[ ]	/* SetRefPoint0 */
MIRP[11100]	/* MoveIndirectRelPt */
MIRP[01100]	/* MoveIndirectRelPt */
SHP[0]	/* ShiftPointByLastPoint */
MIRP[01100]	/* MoveIndirectRelPt */
IUP[1]	/* InterpolateUntPts */
SVTCA[0]	/* SetFreedomAndProjectionVectorToAxis */
SRP0[ ]	/* SetRefPoint0 */
MIRP[00100]	/* MoveIndirectRelPt */
MIRP[10100]	/* MoveIndirectRelPt */
MIRP[01100]	/* MoveIndirectRelPt */
MIRP[10100]	/* MoveIndirectRelPt */
MIRP[01100]	/* MoveIndirectRelPt */
SRP0[ ]	/* SetRefPoint0 */
MIRP[01110]	/* MoveIndirectRelPt */
MIRP[10110]	/* MoveIndirectRelPt */
MIRP[01110]	/* MoveIndirectRelPt */
IUP[0]	/* InterpolateUntPts */";
};
width = 1233;
}
);
note = C;
unicode = 67;
},
{
glyphname = D;
layers = (
{
layerId = m01;
shapes = (
{
closed = 1;
nodes = (
(340,1327,l),
(436,1327,ls),
(692,1327,o),
(893,1076,o),
(893,745,qs),
(893,417,o),
(691,166,o),
(436,166,qs),
(340,166,l)
);
},
{
closed = 1;
nodes = (
(137,0,l),
(440,0,ls),
(782,0,o),
(1106,363,o),
(1106,745,qs),
(1106,1129,o),
(782,1493,o),
(440,1493,qs),
(137,1493,l)
);
}
);
userData = {
assembly = "NPUSHB[ ]	/* 21 values pushed */
6 151 9 136 0 151 15 6 0 15 9 7 3 50 12 49 7 30 16 48 18
SRP0[ ]	/* SetRefPoint0 */
MIRP[11100]	/* MoveIndirectRelPt */
MIRP[01100]	/* MoveIndirectRelPt */
MIRP[11100]	/* MoveIndirectRelPt */
MIRP[01100]	/* MoveIndirectRelPt */
SRP1[ ]	/* SetRefPoint1 */
IP[ ]	/* InterpolatePts */
IP[ ]	/* InterpolatePts */
IP[ ]	/* InterpolatePts */
IP[ ]	/* InterpolatePts */
IUP[1]	/* InterpolateUntPts */
SVTCA[0]	/* SetFreedomAndProjectionVectorToAxis */
MDAP[1]	/* MoveDirectAbsPt */
MIRP[01100]	/* MoveIndirectRelPt */
MIRP[10100]	/* MoveIndirectRelPt */
MIRP[01100]	/* MoveIndirectRelPt */
IUP[0]	/* InterpolateUntPts */";
};
width = 1233;
}
);
note = D;
unicode = 68;
},
{
glyphname = E;
layers = (
{
layerId = m01;
shapes = (
{
closed = 1;
nodes = (
(1102,0,l),
(1102,170,l),
(399,170,l),
(399,711,l),
(1053,711,l),
(1053,881,l),
(399,881,l),
(399,1323,l),
(1083,1323,l),
(1083,1493,l),
(197,1493,l),
(197,0,l)
);
}
);
userData = {
assembly = "NPUSHB[ ]	/* 22 values pushed */
6 151 4 2 151 0 136 8 151 4 177 10 1 5 9 49 7 3 30 0 51 12
SRP0[ ]	/* SetRefPoint0 */
MIRP[11100]	/* MoveIndirectRelPt */
MIRP[01100]	/* MoveIndirectRelPt */
SHP[0]	/* ShiftPointByLastPoint */
MIRP[11100]	/* MoveIndirectRelPt */
MDRP[00100]	/* MoveDirectRelPt */
MDRP[00100]	/* MoveDirectRelPt */
IUP[1]	/* InterpolateUntPts */
SVTCA[0]	/* SetFreedomAndProjectionVectorToAxis */
MDAP[1]	/* MoveDirectAbsPt */
MIRP[01100]	/* MoveIndirectRelPt */
MIRP[01100]	/* MoveIndirectRelPt */
MIRP[10100]	/* MoveIndirectRelPt */
MIRP[01100]	/* MoveIndirectRelPt */
SRP0[ ]	/* SetRefPoint0 */
MIRP[01110]	/* MoveIndirectRelPt */
IUP[0]	/* InterpolateUntPts */";
};
width = 1233;
}
);
note = E;
unicode = 69;
},
{
glyphname = F;
layers = (
{
layerId = m01;
shapes = (
{
closed = 1;
nodes = (
(436,0,l),
(436,713,l),
(1049,713,l),
(1049,883,l),
(436,883,l),
(436,1323,l),
(1112,1323,l),
(1112,1493,l),
(233,1493,l),
(233,0,l)
);
}
);
userData = {
assembly = "NPUSHB[ ]	/* 19 values pushed */
6 151 4 2 151 0 136 4 177 8 5 1 49 7 3 30 0 52 10
SRP0[ ]	/* SetRefPoint0 */
MIRP[11100]	/* MoveIndirectRelPt */
MIRP[01100]	/* MoveIndirectRelPt */
SHP[0]	/* ShiftPointByLastPoint */
MIRP[11100]	/* MoveIndirectRelPt */
MDRP[00100]	/* MoveDirectRelPt */
IUP[1]	/* InterpolateUntPts */
SVTCA[0]	/* SetFreedomAndProjectionVectorToAxis */
MDAP[1]	/* MoveDirectAbsPt */
MIRP[01100]	/* MoveIndirectRelPt */
MIRP[10100]	/* MoveIndirectRelPt */
MIRP[01100]	/* MoveIndirectRelPt */
SRP0[ ]	/* SetRefPoint0 */
MIRP[01110]	/* MoveIndirectRelPt */
IUP[0]	/* InterpolateUntPts */";
};
width = 1233;
}
);
note = F;
unicode = 70;
},
{
glyphname = G;
layers = (
{
layerId = m01;
shapes = (
{
closed = 1;
nodes = (
(694,766,l),
(694,600,l),
(911,600,l),
(911,199,l),
(870,166,o),
(769,135,o),
(702,135,qs),
(504,135,o),
(313,434,o),
(313,745,qs),
(313,1051,o),
(510,1356,o),
(707,1356,qs),
(802,1356,o),
(972,1283,o),
(1053,1206,q),
(1053,1413,l),
(973,1467,o),
(801,1520,o),
(707,1520,qs),
(422,1520,o),
(102,1111,o),
(102,745,qs),
(102,378,o),
(418,-29,o),
(702,-29,qs),
(820,-29,o),
(1023,48,o),
(1104,123,q),
(1104,766,l)
);
}
);
userData = {
assembly = "NPUSHB[ ]	/* 33 values pushed */
25 26 0 22 3 26 151 28 22 151 3 13 179 12 178 16 151 9 150 3 153 30 27 25 30 12 0 54 19 50 6 53 30
SRP0[ ]	/* SetRefPoint0 */
MIRP[11100]	/* MoveIndirectRelPt */
MIRP[01100]	/* MoveIndirectRelPt */
MIRP[11100]	/* MoveIndirectRelPt */
MDRP[00100]	/* MoveDirectRelPt */
MIRP[11100]	/* MoveIndirectRelPt */
MDRP[00100]	/* MoveDirectRelPt */
IUP[1]	/* InterpolateUntPts */
SVTCA[0]	/* SetFreedomAndProjectionVectorToAxis */
SRP0[ ]	/* SetRefPoint0 */
MIRP[00100]	/* MoveIndirectRelPt */
MIRP[10100]	/* MoveIndirectRelPt */
MIRP[01100]	/* MoveIndirectRelPt */
MIRP[10100]	/* MoveIndirectRelPt */
MIRP[01100]	/* MoveIndirectRelPt */
SRP0[ ]	/* SetRefPoint0 */
MIRP[11110]	/* MoveIndirectRelPt */
MDRP[10100]	/* MoveDirectRelPt */
MIRP[01110]	/* MoveIndirectRelPt */
SRP1[ ]	/* SetRefPoint1 */
SRP2[ ]	/* SetRefPoint2 */
IP[ ]	/* InterpolatePts */
SRP1[ ]	/* SetRefPoint1 */
IP[ ]	/* InterpolatePts */
IUP[0]	/* InterpolateUntPts */";
};
width = 1233;
}
);
note = G;
unicode = 71;
},
{
glyphname = H;
layers = (
{
layerId = m01;
shapes = (
{
closed = 1;
nodes = (
(340,0,l),
(340,711,l),
(893,711,l),
(893,0,l),
(1096,0,l),
(1096,1493,l),
(893,1493,l),
(893,881,l),
(340,881,l),
(340,1493,l),
(137,1493,l),
(137,0,l)
);
}
);
userData = {
assembly = "NPUSHB[ ]	/* 20 values pushed */
8 151 2 177 4 0 136 10 6 7 3 30 5 49 9 1 30 0 48 12
SRP0[ ]	/* SetRefPoint0 */
MIRP[11100]	/* MoveIndirectRelPt */
MIRP[01100]	/* MoveIndirectRelPt */
SHP[0]	/* ShiftPointByLastPoint */
MIRP[11100]	/* MoveIndirectRelPt */
MIRP[01100]	/* MoveIndirectRelPt */
SHP[0]	/* ShiftPointByLastPoint */
IUP[1]	/* InterpolateUntPts */
SVTCA[0]	/* SetFreedomAndProjectionVectorToAxis */
MDAP[1]	/* MoveDirectAbsPt */
ALIGNRP[ ]	/* AlignRelativePt */
MIRP[00100]	/* MoveIndirectRelPt */
SHP[0]	/* ShiftPointByLastPoint */
MIRP[11100]	/* MoveIndirectRelPt */
MIRP[01100]	/* MoveIndirectRelPt */
IUP[0]	/* InterpolateUntPts */";
};
width = 1233;
}
);
note = H;
unicode = 72;
},
{
glyphname = I;
layers = (
{
layerId = m01;
shapes = (
{
closed = 1;
nodes = (
(514,1323,l),
(514,170,l),
(201,170,l),
(201,0,l),
(1030,0,l),
(1030,170,l),
(717,170,l),
(717,1323,l),
(1030,1323,l),
(1030,1493,l),
(201,1493,l),
(201,1323,l)
);
}
);
userData = {
assembly = "NPUSHB[ ]	/* 19 values pushed */
10 2 151 0 136 8 4 151 6 5 1 55 3 30 7 0 55 9 12
SRP0[ ]	/* SetRefPoint0 */
MDRP[10100]	/* MoveDirectRelPt */
MIRP[01100]	/* MoveIndirectRelPt */
SHP[0]	/* ShiftPointByLastPoint */
MIRP[11100]	/* MoveIndirectRelPt */
MIRP[01100]	/* MoveIndirectRelPt */
SHP[0]	/* ShiftPointByLastPoint */
IUP[1]	/* InterpolateUntPts */
SVTCA[0]	/* SetFreedomAndProjectionVectorToAxis */
MDAP[1]	/* MoveDirectAbsPt */
MIRP[01100]	/* MoveIndirectRelPt */
SHP[0]	/* ShiftPointByLastPoint */
MIRP[10100]	/* MoveIndirectRelPt */
MIRP[01100]	/* MoveIndirectRelPt */
SHP[0]	/* ShiftPointByLastPoint */
IUP[0]	/* InterpolateUntPts */";
};
width = 1233;
}
);
note = I;
unicode = 73;
},
{
glyphname = J;
layers = (
{
layerId = m01;
shapes = (
{
closed = 1;
nodes = (
(402,-29,o),
(498,-29,qs),
(745,-29,o),
(956,205,o),
(956,487,qs),
(956,1493,l),
(373,1493,l),
(373,1323,l),
(754,1323,l),
(754,487,ls),
(754,284,o),
(641,135,o),
(498,135,qs),
(394,135,o),
(200,216,o),
(109,297,q),
(109,61,l),
(212,15,o)
);
}
);
userData = {
assembly = "NPUSHB[ ]	/* 23 values pushed */
12 7 8 1 0 178 4 151 15 8 151 10 136 15 153 18 9 7 30 11 0 53 18
SRP0[ ]	/* SetRefPoint0 */
MIRP[11100]	/* MoveIndirectRelPt */
MDRP[10100]	/* MoveDirectRelPt */
MIRP[11100]	/* MoveIndirectRelPt */
MDRP[00100]	/* MoveDirectRelPt */
IUP[1]	/* InterpolateUntPts */
SVTCA[0]	/* SetFreedomAndProjectionVectorToAxis */
SRP0[ ]	/* SetRefPoint0 */
MIRP[00100]	/* MoveIndirectRelPt */
MIRP[10100]	/* MoveIndirectRelPt */
MIRP[01100]	/* MoveIndirectRelPt */
SRP0[ ]	/* SetRefPoint0 */
MIRP[01110]	/* MoveIndirectRelPt */
MIRP[10110]	/* MoveIndirectRelPt */
MDRP[01110]	/* MoveDirectRelPt */
SRP1[ ]	/* SetRefPoint1 */
IP[ ]	/* InterpolatePts */
IP[ ]	/* InterpolatePts */
IUP[0]	/* InterpolateUntPts */";
};
width = 1233;
}
);
note = J;
unicode = 74;
},
{
glyphname = K;
layers = (
{
layerId = m01;
shapes = (
{
closed = 1;
nodes = (
(340,0,l),
(340,584,l),
(494,748,l),
(981,0,l),
(1225,0,l),
(627,883,l),
(1208,1493,l),
(971,1493,l),
(340,829,l),
(340,1493,l),
(137,1493,l),
(137,0,l)
);
}
);
userData = {
assembly = "NPUSHB[ ]	/* 33 values pushed */
8 37 9 8 5 6 5 7 37 6 5 66 8 5 2 3 3 0 180 10 6 8 5 4 3 6 1 9 1 30 0 48 12
SRP0[ ]	/* SetRefPoint0 */
MIRP[11100]	/* MoveIndirectRelPt */
MIRP[01100]	/* MoveIndirectRelPt */
SHP[0]	/* ShiftPointByLastPoint */
SRP0[ ]	/* SetRefPoint0 */
MDRP[00000]	/* MoveDirectRelPt */
SLOOP[ ]	/* SetLoopVariable */
IP[ ]	/* InterpolatePts */
IUP[1]	/* InterpolateUntPts */
SVTCA[0]	/* SetFreedomAndProjectionVectorToAxis */
MDAP[1]	/* MoveDirectAbsPt */
ALIGNRP[ ]	/* AlignRelativePt */
MIRP[01100]	/* MoveIndirectRelPt */
SHP[0]	/* ShiftPointByLastPoint */
SLOOP[ ]	/* SetLoopVariable */
IP[ ]	/* InterpolatePts */
IUP[0]	/* InterpolateUntPts */
MPPEM[ ]	/* MeasurePixelPerEm */
GTEQ[ ]	/* GreaterThanOrEqual */
IF[ ]	/* If */
SPVTL[1]	/* SetPVectorToLine */
SFVTCA[1]	/* SetFVectorToAxis */
MIRP[01101]	/* MoveIndirectRelPt */
SPVTL[1]	/* SetPVectorToLine */
SRP0[ ]	/* SetRefPoint0 */
SFVTL[0]	/* SetFVectorToLine */
MIRP[01101]	/* MoveIndirectRelPt */
EIF[ ]	/* EndIf */
CLEAR[ ]	/* ClearStack */
PUSHB[ ]	/* 3 values pushed */
8 4 1
SVTCA[1]	/* SetFreedomAndProjectionVectorToAxis */
DELTAP1[ ]	/* DeltaExceptionP1 */
NPUSHB[ ]	/* 76 values pushed */
7 5 22 5 23 8 38 5 38 8 54 2 70 2 85 2 87 8 88 9 100 2 122 5 121 8 123 9 14 2 3 1 4 7 5 0 6 2 7 22 5 23 8 39 5 44 6 43 7 38 8 58 3 73 3 71 6 71 7 91 3 87 5 88 6 88 7 87 8 107 3 122 3 120 7 23
DELTAP1[ ]	/* DeltaExceptionP1 */
SVTCA[0]	/* SetFreedomAndProjectionVectorToAxis */
DELTAP1[ ]	/* DeltaExceptionP1 */";
};
width = 1233;
}
);
note = K;
unicode = 75;
},
{
glyphname = L;
layers = (
{
layerId = m01;
shapes = (
{
closed = 1;
nodes = (
(1139,0,l),
(1139,170,l),
(418,170,l),
(418,1493,l),
(215,1493,l),
(215,0,l)
);
}
);
userData = {
assembly = "NPUSHB[ ]	/* 12 values pushed */
2 151 0 136 4 1 30 3 49 0 52 6
SRP0[ ]	/* SetRefPoint0 */
MIRP[11100]	/* MoveIndirectRelPt */
MIRP[01100]	/* MoveIndirectRelPt */
MIRP[01100]	/* MoveIndirectRelPt */
IUP[1]	/* InterpolateUntPts */
SVTCA[0]	/* SetFreedomAndProjectionVectorToAxis */
MDAP[1]	/* MoveDirectAbsPt */
MIRP[00100]	/* MoveIndirectRelPt */
MIRP[01100]	/* MoveIndirectRelPt */
IUP[0]	/* InterpolateUntPts */";
};
width = 1233;
}
);
note = L;
unicode = 76;
},
{
glyphname = M;
layers = (
{
layerId = m01;
shapes = (
{
closed = 1;
nodes = (
(272,0,l),
(272,1319,l),
(539,532,l),
(692,532,l),
(958,1319,l),
(958,0,l),
(1145,0,l),
(1145,1493,l),
(874,1493,l),
(614,733,l),
(356,1493,l),
(86,1493,l),
(86,0,l)
);
}
);
userData = {
assembly = "NPUSHB[ ]	/* 44 values pushed */
8 2 3 2 7 3 3 2 10 1 2 1 9 2 2 1 66 10 7 2 3 0 8 3 0 180 11 5 9 8 3 2 1 5 10 6 6 4 47 10 6 0 48 13
SRP0[ ]	/* SetRefPoint0 */
MIRP[11100]	/* MoveIndirectRelPt */
MIRP[01100]	/* MoveIndirectRelPt */
MIRP[11100]	/* MoveIndirectRelPt */
MIRP[01100]	/* MoveIndirectRelPt */
SRP1[ ]	/* SetRefPoint1 */
SLOOP[ ]	/* SetLoopVariable */
IP[ ]	/* InterpolatePts */
IUP[1]	/* InterpolateUntPts */
SVTCA[0]	/* SetFreedomAndProjectionVectorToAxis */
MDAP[1]	/* MoveDirectAbsPt */
ALIGNRP[ ]	/* AlignRelativePt */
MIRP[01100]	/* MoveIndirectRelPt */
SHP[0]	/* ShiftPointByLastPoint */
MDRP[00100]	/* MoveDirectRelPt */
SRP1[ ]	/* SetRefPoint1 */
SLOOP[ ]	/* SetLoopVariable */
IP[ ]	/* InterpolatePts */
IUP[0]	/* InterpolateUntPts */
MPPEM[ ]	/* MeasurePixelPerEm */
GTEQ[ ]	/* GreaterThanOrEqual */
IF[ ]	/* If */
SPVTL[1]	/* SetPVectorToLine */
SRP0[ ]	/* SetRefPoint0 */
SFVTCA[1]	/* SetFVectorToAxis */
MDRP[01001]	/* MoveDirectRelPt */
SPVTL[1]	/* SetPVectorToLine */
SRP0[ ]	/* SetRefPoint0 */
SFVTCA[0]	/* SetFVectorToAxis */
MDRP[01001]	/* MoveDirectRelPt */
SPVTL[1]	/* SetPVectorToLine */
SRP0[ ]	/* SetRefPoint0 */
SFVTCA[0]	/* SetFVectorToAxis */
MDRP[01001]	/* MoveDirectRelPt */
SPVTL[1]	/* SetPVectorToLine */
SRP0[ ]	/* SetRefPoint0 */
SFVTCA[1]	/* SetFVectorToAxis */
MDRP[01001]	/* MoveDirectRelPt */
EIF[ ]	/* EndIf */
CLEAR[ ]	/* ClearStack */
PUSHB[ ]	/* 3 values pushed */
15 10 1
SVTCA[0]	/* SetFreedomAndProjectionVectorToAxis */
DELTAP1[ ]	/* DeltaExceptionP1 */
NPUSHB[ ]	/* 36 values pushed */
5 8 10 9 23 1 24 3 23 8 24 9 38 1 41 3 38 8 41 9 54 1 57 3 54 8 56 9 14 15 7 15 7 15 10 3
DELTAP1[ ]	/* DeltaExceptionP1 */
SVTCA[1]	/* SetFreedomAndProjectionVectorToAxis */
DELTAP1[ ]	/* DeltaExceptionP1 */";
};
width = 1233;
}
);
note = M;
unicode = 77;
},
{
glyphname = N;
layers = (
{
layerId = m01;
shapes = (
{
closed = 1;
nodes = (
(334,0,l),
(334,1229,l),
(838,0,l),
(1094,0,l),
(1094,1493,l),
(899,1493,l),
(899,264,l),
(395,1493,l),
(139,1493,l),
(139,0,l)
);
}
);
userData = {
assembly = "NPUSHB[ ]	/* 28 values pushed */
7 1 2 1 2 6 7 6 66 7 2 3 0 180 8 5 6 1 7 2 17 4 49 7 17 0 48 10
SRP0[ ]	/* SetRefPoint0 */
MIRP[11100]	/* MoveIndirectRelPt */
MIRP[01100]	/* MoveIndirectRelPt */
MIRP[11100]	/* MoveIndirectRelPt */
MIRP[01100]	/* MoveIndirectRelPt */
SRP1[ ]	/* SetRefPoint1 */
IP[ ]	/* InterpolatePts */
IP[ ]	/* InterpolatePts */
IUP[1]	/* InterpolateUntPts */
SVTCA[0]	/* SetFreedomAndProjectionVectorToAxis */
MDAP[1]	/* MoveDirectAbsPt */
ALIGNRP[ ]	/* AlignRelativePt */
MIRP[01100]	/* MoveIndirectRelPt */
SHP[0]	/* ShiftPointByLastPoint */
IP[ ]	/* InterpolatePts */
IP[ ]	/* InterpolatePts */
IUP[0]	/* InterpolateUntPts */
MPPEM[ ]	/* MeasurePixelPerEm */
GTEQ[ ]	/* GreaterThanOrEqual */
IF[ ]	/* If */
SPVTL[1]	/* SetPVectorToLine */
SRP0[ ]	/* SetRefPoint0 */
SFVTCA[0]	/* SetFVectorToAxis */
MDRP[01001]	/* MoveDirectRelPt */
SPVTL[1]	/* SetPVectorToLine */
SRP0[ ]	/* SetRefPoint0 */
SFVTCA[0]	/* SetFVectorToAxis */
MDRP[01001]	/* MoveDirectRelPt */
EIF[ ]	/* EndIf */
CLEAR[ ]	/* ClearStack */
PUSHB[ ]	/* 3 values pushed */
23 1 1
SVTCA[1]	/* SetFreedomAndProjectionVectorToAxis */
DELTAP1[ ]	/* DeltaExceptionP1 */
NPUSHB[ ]	/* 38 values pushed */
23 2 24 7 41 2 38 7 56 7 87 2 100 2 106 7 117 2 122 7 10 24 6 38 1 41 6 70 1 73 6 87 1 103 1 104 6 8
DELTAP1[ ]	/* DeltaExceptionP1 */
SVTCA[0]	/* SetFreedomAndProjectionVectorToAxis */
DELTAP1[ ]	/* DeltaExceptionP1 */";
};
width = 1233;
}
);
note = N;
unicode = 78;
},
{
glyphname = O;
layers = (
{
layerId = m01;
shapes = (
{
closed = 1;
nodes = (
(770,135,o),
(616,135,qs),
(463,135,o),
(328,417,o),
(328,745,qs),
(328,1074,o),
(463,1356,o),
(616,1356,qs),
(770,1356,o),
(905,1074,o),
(905,745,qs),
(905,416,o)
);
},
{
closed = 1;
nodes = (
(869,1520,o),
(616,1520,qs),
(364,1520,o),
(117,1136,o),
(117,745,qs),
(117,353,o),
(363,-29,o),
(616,-29,qs),
(869,-29,o),
(1116,355,o),
(1116,745,qs),
(1116,1136,o)
);
}
);
userData = {
assembly = "NPUSHB[ ]	/* 19 values pushed */
9 151 15 3 151 21 150 15 153 24 0 50 12 54 6 50 18 53 24
SRP0[ ]	/* SetRefPoint0 */
MIRP[11100]	/* MoveIndirectRelPt */
MIRP[01100]	/* MoveIndirectRelPt */
MIRP[11100]	/* MoveIndirectRelPt */
MIRP[01100]	/* MoveIndirectRelPt */
IUP[1]	/* InterpolateUntPts */
SVTCA[0]	/* SetFreedomAndProjectionVectorToAxis */
SRP0[ ]	/* SetRefPoint0 */
MIRP[00100]	/* MoveIndirectRelPt */
MIRP[10100]	/* MoveIndirectRelPt */
MIRP[01100]	/* MoveIndirectRelPt */
SRP0[ ]	/* SetRefPoint0 */
MIRP[01110]	/* MoveIndirectRelPt */
IUP[0]	/* InterpolateUntPts */";
};
width = 1233;
}
);
note = O;
unicode = 79;
},
{
glyphname = P;
layers = (
{
layerId = m01;
shapes = (
{
closed = 1;
nodes = (
(774,1327,o),
(930,1180,o),
(930,1047,qs),
(930,914,o),
(773,766,o),
(633,766,qs),
(399,766,l),
(399,1327,l),
(633,1327,ls)
);
},
{
closed = 1;
nodes = (
(399,0,l),
(399,600,l),
(633,600,ls),
(884,600,o),
(1141,826,o),
(1141,1047,qs),
(1141,1266,o),
(883,1493,o),
(633,1493,qs),
(197,1493,l),
(197,0,l)
);
}
);
userData = {
assembly = "NPUSHB[ ]	/* 24 values pushed */
1 151 16 0 151 9 136 18 16 10 8 2 4 0 5 50 13 56 17 0 30 9 51 20
SRP0[ ]	/* SetRefPoint0 */
MIRP[11100]	/* MoveIndirectRelPt */
MIRP[01100]	/* MoveIndirectRelPt */
SHP[0]	/* ShiftPointByLastPoint */
MIRP[11100]	/* MoveIndirectRelPt */
MIRP[01100]	/* MoveIndirectRelPt */
SRP1[ ]	/* SetRefPoint1 */
SLOOP[ ]	/* SetLoopVariable */
IP[ ]	/* InterpolatePts */
IUP[1]	/* InterpolateUntPts */
SVTCA[0]	/* SetFreedomAndProjectionVectorToAxis */
MDAP[1]	/* MoveDirectAbsPt */
MIRP[10100]	/* MoveIndirectRelPt */
MIRP[01100]	/* MoveIndirectRelPt */
MDRP[10100]	/* MoveDirectRelPt */
MIRP[01100]	/* MoveIndirectRelPt */
IUP[0]	/* InterpolateUntPts */";
};
width = 1233;
}
);
note = P;
unicode = 80;
},
{
glyphname = Q;
layers = (
{
layerId = m01;
shapes = (
{
closed = 1;
nodes = (
(1040,-170,l),
(840,20,l),
(979,92,o),
(1116,451,o),
(1116,745,qs),
(1116,1136,o),
(869,1520,o),
(616,1520,qs),
(364,1520,o),
(117,1136,o),
(117,745,qs),
(117,355,o),
(364,-29,o),
(614,-29,qs),
(622,-29,o),
(648,-27,o),
(655,-27,q),
(889,-270,l)
);
},
{
closed = 1;
nodes = (
(770,135,o),
(616,135,qs),
(463,135,o),
(328,417,o),
(328,745,qs),
(328,1074,o),
(463,1356,o),
(616,1356,qs),
(770,1356,o),
(905,1074,o),
(905,745,qs),
(905,416,o)
);
}
);
userData = {
assembly = "NPUSHB[ ]	/* 32 values pushed */
0 30 16 17 15 27 151 3 21 151 9 150 3 153 17 30 17 24 16 12 15 0 24 18 50 12 54 24 50 6 53 30
SRP0[ ]	/* SetRefPoint0 */
MIRP[11100]	/* MoveIndirectRelPt */
MIRP[01100]	/* MoveIndirectRelPt */
MIRP[11100]	/* MoveIndirectRelPt */
MIRP[01100]	/* MoveIndirectRelPt */
SRP1[ ]	/* SetRefPoint1 */
IP[ ]	/* InterpolatePts */
IP[ ]	/* InterpolatePts */
SRP1[ ]	/* SetRefPoint1 */
IP[ ]	/* InterpolatePts */
SRP1[ ]	/* SetRefPoint1 */
IP[ ]	/* InterpolatePts */
IUP[1]	/* InterpolateUntPts */
SVTCA[0]	/* SetFreedomAndProjectionVectorToAxis */
SRP0[ ]	/* SetRefPoint0 */
MDRP[00100]	/* MoveDirectRelPt */
MIRP[00100]	/* MoveIndirectRelPt */
MIRP[10100]	/* MoveIndirectRelPt */
MIRP[01100]	/* MoveIndirectRelPt */
SRP0[ ]	/* SetRefPoint0 */
MIRP[01110]	/* MoveIndirectRelPt */
IP[ ]	/* InterpolatePts */
SRP2[ ]	/* SetRefPoint2 */
IP[ ]	/* InterpolatePts */
SRP2[ ]	/* SetRefPoint2 */
IP[ ]	/* InterpolatePts */
IUP[0]	/* InterpolateUntPts */";
};
width = 1233;
}
);
note = Q;
unicode = 81;
},
{
glyphname = R;
layers = (
{
layerId = m01;
shapes = (
{
closed = 1;
nodes = (
(1067,913,o),
(1067,1061,qs),
(1067,1271,o),
(805,1493,o),
(559,1493,qs),
(143,1493,l),
(143,0,l),
(346,0,l),
(346,631,l),
(539,631,ls),
(638,631,o),
(761,538,o),
(838,377,qs),
(1016,0,l),
(1233,0,l),
(1030,408,ls),
(948,574,o),
(838,685,o),
(760,705,q),
(906,726,o)
);
},
{
closed = 1;
nodes = (
(703,1327,o),
(854,1190,o),
(854,1061,qs),
(854,927,o),
(712,797,o),
(567,797,qs),
(346,797,l),
(346,1327,l),
(559,1327,ls)
);
}
);
userData = {
assembly = "NPUSHB[ ]	/* 56 values pushed */
9 8 7 3 10 6 37 3 4 3 5 37 4 4 3 66 6 4 0 21 3 4 21 151 9 20 151 13 136 11 4 5 17 22 9 6 3 10 3 17 0 28 14 3 10 25 50 4 17 49 20 10 30 12 48 29
SRP0[ ]	/* SetRefPoint0 */
MIRP[11100]	/* MoveIndirectRelPt */
MIRP[01100]	/* MoveIndirectRelPt */
SHP[0]	/* ShiftPointByLastPoint */
MIRP[11100]	/* MoveIndirectRelPt */
MDRP[00100]	/* MoveDirectRelPt */
MIRP[01100]	/* MoveIndirectRelPt */
SRP1[ ]	/* SetRefPoint1 */
SLOOP[ ]	/* SetLoopVariable */
IP[ ]	/* InterpolatePts */
SRP1[ ]	/* SetRefPoint1 */
IP[ ]	/* InterpolatePts */
SRP1[ ]	/* SetRefPoint1 */
SLOOP[ ]	/* SetLoopVariable */
IP[ ]	/* InterpolatePts */
SRP1[ ]	/* SetRefPoint1 */
IP[ ]	/* InterpolatePts */
IUP[1]	/* InterpolateUntPts */
SVTCA[0]	/* SetFreedomAndProjectionVectorToAxis */
MDAP[1]	/* MoveDirectAbsPt */
ALIGNRP[ ]	/* AlignRelativePt */
MIRP[10100]	/* MoveIndirectRelPt */
MIRP[01100]	/* MoveIndirectRelPt */
MDRP[10100]	/* MoveDirectRelPt */
MIRP[01100]	/* MoveIndirectRelPt */
SRP2[ ]	/* SetRefPoint2 */
IP[ ]	/* InterpolatePts */
SRP2[ ]	/* SetRefPoint2 */
IP[ ]	/* InterpolatePts */
SRP2[ ]	/* SetRefPoint2 */
IP[ ]	/* InterpolatePts */
IUP[0]	/* InterpolateUntPts */
MPPEM[ ]	/* MeasurePixelPerEm */
GTEQ[ ]	/* GreaterThanOrEqual */
IF[ ]	/* If */
SPVTL[1]	/* SetPVectorToLine */
SRP0[ ]	/* SetRefPoint0 */
SFVTCA[1]	/* SetFVectorToAxis */
MIRP[01101]	/* MoveIndirectRelPt */
SPVTL[1]	/* SetPVectorToLine */
SRP0[ ]	/* SetRefPoint0 */
SFVTPV[ ]	/* SetFVectorToPVector */
MIRP[01101]	/* MoveIndirectRelPt */
SRP1[ ]	/* SetRefPoint1 */
SLOOP[ ]	/* SetLoopVariable */
IP[ ]	/* InterpolatePts */
EIF[ ]	/* EndIf */
CLEAR[ ]	/* ClearStack */";
};
width = 1233;
}
);
note = R;
unicode = 82;
},
{
glyphname = S;
layers = (
{
layerId = m01;
shapes = (
{
closed = 1;
nodes = (
(717,1520,o),
(631,1520,qs),
(408,1520,o),
(139,1279,o),
(139,1079,qs),
(139,919,o),
(327,729,o),
(535,682,qs),
(643,657,ls),
(788,625,o),
(905,507,o),
(905,395,qs),
(905,272,o),
(735,135,o),
(582,135,qs),
(478,135,o),
(273,203,o),
(158,276,q),
(158,61,l),
(265,16,o),
(477,-29,o),
(582,-29,qs),
(834,-29,o),
(1098,195,o),
(1098,408,qs),
(1098,589,o),
(906,799,o),
(696,848,qs),
(590,872,ls),
(441,907,o),
(332,1011,o),
(332,1110,qs),
(332,1223,o),
(498,1356,o),
(641,1356,qs),
(735,1356,o),
(920,1296,o),
(1012,1237,q),
(1012,1442,l),
(907,1481,o)
);
}
);
userData = {
assembly = "NPUSHB[ ]	/* 61 values pushed */
13 12 2 14 11 37 30 31 30 8 9 2 7 10 37 31 31 30 66 10 11 30 31 4 1 21 179 20 167 24 151 17 1 179 0 167 4 151 37 150 17 153 40 30 10 11 31 27 7 0 38 27 57 14 49 20 7 57 34 48 40
SRP0[ ]	/* SetRefPoint0 */
MIRP[11100]	/* MoveIndirectRelPt */
MIRP[01100]	/* MoveIndirectRelPt */
MDRP[00100]	/* MoveDirectRelPt */
MIRP[11100]	/* MoveIndirectRelPt */
MIRP[01100]	/* MoveIndirectRelPt */
MIRP[00100]	/* MoveIndirectRelPt */
SRP1[ ]	/* SetRefPoint1 */
SRP2[ ]	/* SetRefPoint2 */
IP[ ]	/* InterpolatePts */
IP[ ]	/* InterpolatePts */
IP[ ]	/* InterpolatePts */
IP[ ]	/* InterpolatePts */
IUP[1]	/* InterpolateUntPts */
SVTCA[0]	/* SetFreedomAndProjectionVectorToAxis */
SRP0[ ]	/* SetRefPoint0 */
MIRP[00100]	/* MoveIndirectRelPt */
MIRP[10100]	/* MoveIndirectRelPt */
MIRP[01100]	/* MoveIndirectRelPt */
MIRP[10100]	/* MoveIndirectRelPt */
MIRP[01100]	/* MoveIndirectRelPt */
SRP0[ ]	/* SetRefPoint0 */
MIRP[01110]	/* MoveIndirectRelPt */
MIRP[10110]	/* MoveIndirectRelPt */
MIRP[01110]	/* MoveIndirectRelPt */
SRP1[ ]	/* SetRefPoint1 */
SLOOP[ ]	/* SetLoopVariable */
IP[ ]	/* InterpolatePts */
IUP[0]	/* InterpolateUntPts */
MPPEM[ ]	/* MeasurePixelPerEm */
GTEQ[ ]	/* GreaterThanOrEqual */
IF[ ]	/* If */
SPVTL[1]	/* SetPVectorToLine */
SRP0[ ]	/* SetRefPoint0 */
SFVTPV[ ]	/* SetFVectorToPVector */
MIRP[01101]	/* MoveIndirectRelPt */
SRP1[ ]	/* SetRefPoint1 */
SLOOP[ ]	/* SetLoopVariable */
IP[ ]	/* InterpolatePts */
SPVTL[1]	/* SetPVectorToLine */
SRP0[ ]	/* SetRefPoint0 */
SFVTPV[ ]	/* SetFVectorToPVector */
MIRP[01101]	/* MoveIndirectRelPt */
SRP1[ ]	/* SetRefPoint1 */
SLOOP[ ]	/* SetLoopVariable */
IP[ ]	/* InterpolatePts */
EIF[ ]	/* EndIf */
CLEAR[ ]	/* ClearStack */
PUSHB[ ]	/* 3 values pushed */
8 2 1
SVTCA[1]	/* SetFreedomAndProjectionVectorToAxis */
DELTAP1[ ]	/* DeltaExceptionP1 */
NPUSHB[ ]	/* 10 values pushed */
7 0 7 1 7 2 3 7 2 1
DELTAP1[ ]	/* DeltaExceptionP1 */
SVTCA[0]	/* SetFreedomAndProjectionVectorToAxis */
DELTAP1[ ]	/* DeltaExceptionP1 */";
};
width = 1233;
}
);
note = S;
unicode = 83;
},
{
glyphname = T;
layers = (
{
layerId = m01;
shapes = (
{
closed = 1;
nodes = (
(516,1323,l),
(516,0,l),
(719,0,l),
(719,1323,l),
(1186,1323,l),
(1186,1493,l),
(47,1493,l),
(47,1323,l)
);
}
);
userData = {
assembly = "NPUSHB[ ]	/* 14 values pushed */
6 2 151 0 136 4 1 58 3 30 0 58 5 8
SRP0[ ]	/* SetRefPoint0 */
MDRP[10100]	/* MoveDirectRelPt */
MIRP[01100]	/* MoveIndirectRelPt */
MIRP[11100]	/* MoveIndirectRelPt */
MIRP[01100]	/* MoveIndirectRelPt */
IUP[1]	/* InterpolateUntPts */
SVTCA[0]	/* SetFreedomAndProjectionVectorToAxis */
MDAP[1]	/* MoveDirectAbsPt */
MIRP[10100]	/* MoveIndirectRelPt */
MIRP[01100]	/* MoveIndirectRelPt */
SHP[0]	/* ShiftPointByLastPoint */
IUP[0]	/* InterpolateUntPts */";
};
width = 1233;
}
);
note = T;
unicode = 84;
},
{
glyphname = U;
layers = (
{
layerId = m01;
shapes = (
{
closed = 1;
nodes = (
(205,150,o),
(274,88,qs),
(341,29,o),
(511,-29,o),
(616,-29,qs),
(722,-29,o),
(892,29,o),
(958,88,qs),
(1028,151,o),
(1085,344,o),
(1085,573,qs),
(1085,1493,l),
(883,1493,l),
(883,573,l),
(883,479,ls),
(883,371,o),
(871,279,o),
(856,254,qs),
(823,195,o),
(703,135,o),
(616,135,qs),
(530,135,o),
(409,195,o),
(377,254,qs),
(362,279,o),
(350,372,o),
(350,481,qs),
(350,1493,l),
(147,1493,l),
(147,573,ls),
(147,347,o)
);
}
);
userData = {
assembly = "NPUSHB[ ]	/* 24 values pushed */
15 3 19 16 0 3 1 9 151 25 153 17 1 136 31 15 30 18 49 2 30 0 48 31
SRP0[ ]	/* SetRefPoint0 */
MIRP[11100]	/* MoveIndirectRelPt */
MIRP[01100]	/* MoveIndirectRelPt */
MIRP[11100]	/* MoveIndirectRelPt */
MIRP[01100]	/* MoveIndirectRelPt */
IUP[1]	/* InterpolateUntPts */
SVTCA[0]	/* SetFreedomAndProjectionVectorToAxis */
SRP0[ ]	/* SetRefPoint0 */
MIRP[00100]	/* MoveIndirectRelPt */
SHP[0]	/* ShiftPointByLastPoint */
MIRP[10100]	/* MoveIndirectRelPt */
MIRP[01100]	/* MoveIndirectRelPt */
SRP1[ ]	/* SetRefPoint1 */
SLOOP[ ]	/* SetLoopVariable */
IP[ ]	/* InterpolatePts */
IP[ ]	/* InterpolatePts */
IP[ ]	/* InterpolatePts */
IUP[0]	/* InterpolateUntPts */";
};
width = 1233;
}
);
note = U;
unicode = 85;
},
{
glyphname = V;
layers = (
{
layerId = m01;
shapes = (
{
closed = 1;
nodes = (
(57,1493,l),
(494,0,l),
(739,0,l),
(1176,1493,l),
(967,1493,l),
(616,170,l),
(266,1493,l)
);
}
);
userData = {
assembly = "NPUSHB[ ]	/* 41 values pushed */
1 37 2 3 2 0 37 6 0 3 3 2 0 37 1 0 4 5 4 6 37 5 5 4 66 0 5 1 180 3 6 4 3 1 0 5 2 47 5 48 7
SRP0[ ]	/* SetRefPoint0 */
MIRP[11100]	/* MoveIndirectRelPt */
MIRP[01100]	/* MoveIndirectRelPt */
SLOOP[ ]	/* SetLoopVariable */
IP[ ]	/* InterpolatePts */
IUP[1]	/* InterpolateUntPts */
SVTCA[0]	/* SetFreedomAndProjectionVectorToAxis */
MDAP[1]	/* MoveDirectAbsPt */
MIRP[01100]	/* MoveIndirectRelPt */
SHP[0]	/* ShiftPointByLastPoint */
IP[ ]	/* InterpolatePts */
IUP[0]	/* InterpolateUntPts */
MPPEM[ ]	/* MeasurePixelPerEm */
GTEQ[ ]	/* GreaterThanOrEqual */
IF[ ]	/* If */
SPVTL[1]	/* SetPVectorToLine */
SRP0[ ]	/* SetRefPoint0 */
SFVTCA[1]	/* SetFVectorToAxis */
MIRP[01101]	/* MoveIndirectRelPt */
SPVTL[1]	/* SetPVectorToLine */
SRP0[ ]	/* SetRefPoint0 */
SFVTL[0]	/* SetFVectorToLine */
MIRP[01101]	/* MoveIndirectRelPt */
SPVTL[1]	/* SetPVectorToLine */
SRP0[ ]	/* SetRefPoint0 */
SFVTL[0]	/* SetFVectorToLine */
MIRP[01101]	/* MoveIndirectRelPt */
SPVTL[1]	/* SetPVectorToLine */
SRP0[ ]	/* SetRefPoint0 */
SFVTCA[1]	/* SetFVectorToAxis */
MIRP[01101]	/* MoveIndirectRelPt */
EIF[ ]	/* EndIf */
CLEAR[ ]	/* ClearStack */";
};
width = 1233;
}
);
note = V;
unicode = 86;
},
{
glyphname = W;
layers = (
{
layerId = m01;
shapes = (
{
closed = 1;
nodes = (
(414,0,l),
(616,887,l),
(819,0,l),
(1010,0,l),
(1233,1493,l),
(1036,1493,l),
(893,279,l),
(721,1083,l),
(510,1083,l),
(340,281,l),
(197,1493,l),
(0,1493,l),
(223,0,l)
);
}
);
userData = {
assembly = "NPUSHB[ ]	/* 68 values pushed */
5 6 5 9 10 9 4 10 9 3 10 11 10 2 1 2 11 11 10 6 37 7 8 7 5 37 4 5 8 8 7 2 37 3 2 12 0 12 1 37 0 12 66 10 5 2 3 8 3 6 0 180 11 8 12 11 10 9 8 6 5 4 3 2 1 11 7 0
MDAP[1]	/* MoveDirectAbsPt */
MDRP[01100]	/* MoveDirectRelPt */
SLOOP[ ]	/* SetLoopVariable */
IP[ ]	/* InterpolatePts */
IUP[1]	/* InterpolateUntPts */
SVTCA[0]	/* SetFreedomAndProjectionVectorToAxis */
MDAP[1]	/* MoveDirectAbsPt */
ALIGNRP[ ]	/* AlignRelativePt */
MIRP[11100]	/* MoveIndirectRelPt */
ALIGNRP[ ]	/* AlignRelativePt */
MDRP[00100]	/* MoveDirectRelPt */
SRP1[ ]	/* SetRefPoint1 */
SLOOP[ ]	/* SetLoopVariable */
IP[ ]	/* InterpolatePts */
IUP[0]	/* InterpolateUntPts */
MPPEM[ ]	/* MeasurePixelPerEm */
GTEQ[ ]	/* GreaterThanOrEqual */
IF[ ]	/* If */
SPVTL[1]	/* SetPVectorToLine */
SFVTCA[1]	/* SetFVectorToAxis */
MIRP[01101]	/* MoveIndirectRelPt */
SPVTL[1]	/* SetPVectorToLine */
SRP0[ ]	/* SetRefPoint0 */
SFVTL[0]	/* SetFVectorToLine */
MIRP[01101]	/* MoveIndirectRelPt */
SPVTL[1]	/* SetPVectorToLine */
SRP0[ ]	/* SetRefPoint0 */
SFVTL[0]	/* SetFVectorToLine */
MIRP[01101]	/* MoveIndirectRelPt */
SPVTL[1]	/* SetPVectorToLine */
SRP0[ ]	/* SetRefPoint0 */
SFVTCA[1]	/* SetFVectorToAxis */
MIRP[01101]	/* MoveIndirectRelPt */
SPVTL[1]	/* SetPVectorToLine */
SRP0[ ]	/* SetRefPoint0 */
SFVTL[0]	/* SetFVectorToLine */
MDRP[01001]	/* MoveDirectRelPt */
SPVTL[1]	/* SetPVectorToLine */
SRP0[ ]	/* SetRefPoint0 */
SFVTCA[1]	/* SetFVectorToAxis */
MDRP[01001]	/* MoveDirectRelPt */
SPVTL[1]	/* SetPVectorToLine */
SFVTCA[1]	/* SetFVectorToAxis */
MDRP[01001]	/* MoveDirectRelPt */
SPVTL[1]	/* SetPVectorToLine */
SRP0[ ]	/* SetRefPoint0 */
SFVTL[0]	/* SetFVectorToLine */
MDRP[01001]	/* MoveDirectRelPt */
EIF[ ]	/* EndIf */
CLEAR[ ]	/* ClearStack */
PUSHB[ ]	/* 3 values pushed */
24 9 1
SVTCA[1]	/* SetFreedomAndProjectionVectorToAxis */
DELTAP1[ ]	/* DeltaExceptionP1 */
NPUSHB[ ]	/* 94 values pushed */
31 3 31 4 31 10 47 3 47 4 43 10 63 3 63 4 56 10 90 2 90 5 11 23 11 38 2 42 3 37 4 42 5 40 8 43 9 37 11 38 12 53 2 58 3 53 4 58 5 59 8 58 9 52 11 54 12 84 0 84 1 90 2 88 3 87 4 86 5 91 6 91 7 82 8 87 9 88 11 93 12 103 8 104 12 121 3 118 4 121 9 118 11 35
DELTAP1[ ]	/* DeltaExceptionP1 */
SVTCA[0]	/* SetFreedomAndProjectionVectorToAxis */
DELTAP1[ ]	/* DeltaExceptionP1 */";
};
width = 1233;
}
);
note = W;
unicode = 87;
},
{
glyphname = X;
layers = (
{
layerId = m01;
shapes = (
{
closed = 1;
nodes = (
(18,0,l),
(236,0,l),
(631,643,l),
(997,0,l),
(1214,0,l),
(735,791,l),
(1182,1493,l),
(965,1493,l),
(631,930,l),
(303,1493,l),
(86,1493,l),
(518,791,l)
);
}
);
userData = {
assembly = "NPUSHB[ ]	/* 75 values pushed */
9 37 10 11 10 8 37 7 8 11 11 10 8 37 9 8 5 6 5 7 37 6 6 5 3 37 4 5 4 2 37 1 2 5 5 4 2 37 3 2 11 0 11 1 37 0 0 11 66 11 8 5 2 4 3 0 180 9 6 11 8 7 5 2 5 0 4 59 6 47 0 59 10 48 12
SRP0[ ]	/* SetRefPoint0 */
MIRP[11100]	/* MoveIndirectRelPt */
MIRP[00100]	/* MoveIndirectRelPt */
MIRP[11100]	/* MoveIndirectRelPt */
MIRP[00100]	/* MoveIndirectRelPt */
SRP1[ ]	/* SetRefPoint1 */
SLOOP[ ]	/* SetLoopVariable */
IP[ ]	/* InterpolatePts */
IUP[1]	/* InterpolateUntPts */
SVTCA[0]	/* SetFreedomAndProjectionVectorToAxis */
MDAP[1]	/* MoveDirectAbsPt */
ALIGNRP[ ]	/* AlignRelativePt */
MIRP[01100]	/* MoveIndirectRelPt */
SHP[0]	/* ShiftPointByLastPoint */
SLOOP[ ]	/* SetLoopVariable */
IP[ ]	/* InterpolatePts */
IUP[0]	/* InterpolateUntPts */
MPPEM[ ]	/* MeasurePixelPerEm */
GTEQ[ ]	/* GreaterThanOrEqual */
IF[ ]	/* If */
SPVTL[1]	/* SetPVectorToLine */
SRP0[ ]	/* SetRefPoint0 */
SFVTCA[1]	/* SetFVectorToAxis */
MIRP[01101]	/* MoveIndirectRelPt */
SPVTL[1]	/* SetPVectorToLine */
SRP0[ ]	/* SetRefPoint0 */
SFVTL[0]	/* SetFVectorToLine */
MIRP[01101]	/* MoveIndirectRelPt */
SPVTL[1]	/* SetPVectorToLine */
SRP0[ ]	/* SetRefPoint0 */
SFVTL[0]	/* SetFVectorToLine */
MIRP[01101]	/* MoveIndirectRelPt */
SPVTL[1]	/* SetPVectorToLine */
SRP0[ ]	/* SetRefPoint0 */
SFVTCA[1]	/* SetFVectorToAxis */
MIRP[01101]	/* MoveIndirectRelPt */
SPVTL[1]	/* SetPVectorToLine */
SRP0[ ]	/* SetRefPoint0 */
SFVTCA[1]	/* SetFVectorToAxis */
MIRP[01101]	/* MoveIndirectRelPt */
SPVTL[1]	/* SetPVectorToLine */
SRP0[ ]	/* SetRefPoint0 */
SFVTL[0]	/* SetFVectorToLine */
MIRP[01101]	/* MoveIndirectRelPt */
SPVTL[1]	/* SetPVectorToLine */
SRP0[ ]	/* SetRefPoint0 */
SFVTL[0]	/* SetFVectorToLine */
MIRP[01101]	/* MoveIndirectRelPt */
SPVTL[1]	/* SetPVectorToLine */
SRP0[ ]	/* SetRefPoint0 */
SFVTCA[1]	/* SetFVectorToAxis */
MIRP[01101]	/* MoveIndirectRelPt */
EIF[ ]	/* EndIf */
CLEAR[ ]	/* ClearStack */
PUSHB[ ]	/* 3 values pushed */
55 2 1
SVTCA[0]	/* SetFreedomAndProjectionVectorToAxis */
DELTAP1[ ]	/* DeltaExceptionP1 */
NPUSHB[ ]	/* 56 values pushed */
13 5 4 11 24 5 39 1 40 3 41 5 38 11 88 11 120 2 121 5 119 11 11 0 2 0 2 15 8 15 8 20 2 26 8 33 2 37 5 43 8 37 11 53 2 85 2 89 8 88 11 101 2 115 2 16
DELTAP1[ ]	/* DeltaExceptionP1 */
SVTCA[1]	/* SetFreedomAndProjectionVectorToAxis */
DELTAP1[ ]	/* DeltaExceptionP1 */";
};
width = 1233;
}
);
note = X;
unicode = 88;
},
{
glyphname = Y;
layers = (
{
layerId = m01;
shapes = (
{
closed = 1;
nodes = (
(514,0,l),
(717,0,l),
(717,670,l),
(1196,1493,l),
(979,1493,l),
(616,834,l),
(252,1493,l),
(37,1493,l),
(514,670,l)
);
}
);
userData = {
assembly = "NPUSHB[ ]	/* 46 values pushed */
3 37 4 5 4 2 37 1 2 5 5 4 2 37 3 2 8 0 8 1 37 0 0 8 66 2 3 0 180 6 2 7 3 5 4 1 7 0 4 60 5 30 0 60 7 9
SRP0[ ]	/* SetRefPoint0 */
MDRP[10100]	/* MoveDirectRelPt */
MIRP[01100]	/* MoveIndirectRelPt */
MIRP[11100]	/* MoveIndirectRelPt */
MIRP[01100]	/* MoveIndirectRelPt */
SRP1[ ]	/* SetRefPoint1 */
SRP2[ ]	/* SetRefPoint2 */
IP[ ]	/* InterpolatePts */
SRP1[ ]	/* SetRefPoint1 */
SRP2[ ]	/* SetRefPoint2 */
IP[ ]	/* InterpolatePts */
SRP1[ ]	/* SetRefPoint1 */
IP[ ]	/* InterpolatePts */
IUP[1]	/* InterpolateUntPts */
SVTCA[0]	/* SetFreedomAndProjectionVectorToAxis */
MDAP[1]	/* MoveDirectAbsPt */
MIRP[01100]	/* MoveIndirectRelPt */
SHP[0]	/* ShiftPointByLastPoint */
IP[ ]	/* InterpolatePts */
IUP[0]	/* InterpolateUntPts */
MPPEM[ ]	/* MeasurePixelPerEm */
GTEQ[ ]	/* GreaterThanOrEqual */
IF[ ]	/* If */
SPVTL[1]	/* SetPVectorToLine */
SRP0[ ]	/* SetRefPoint0 */
SFVTCA[1]	/* SetFVectorToAxis */
MIRP[01101]	/* MoveIndirectRelPt */
SPVTL[1]	/* SetPVectorToLine */
SRP0[ ]	/* SetRefPoint0 */
SFVTL[0]	/* SetFVectorToLine */
MIRP[01101]	/* MoveIndirectRelPt */
SPVTL[1]	/* SetPVectorToLine */
SRP0[ ]	/* SetRefPoint0 */
SFVTL[0]	/* SetFVectorToLine */
MIRP[01101]	/* MoveIndirectRelPt */
SPVTL[1]	/* SetPVectorToLine */
SRP0[ ]	/* SetRefPoint0 */
SFVTCA[1]	/* SetFVectorToAxis */
MIRP[01101]	/* MoveIndirectRelPt */
EIF[ ]	/* EndIf */
CLEAR[ ]	/* ClearStack */";
};
width = 1233;
}
);
note = Y;
unicode = 89;
},
{
glyphname = Z;
layers = (
{
layerId = m01;
shapes = (
{
closed = 1;
nodes = (
(915,1323,l),
(156,154,l),
(156,0,l),
(1169,0,l),
(1169,170,l),
(367,170,l),
(1147,1339,l),
(1147,1493,l),
(178,1493,l),
(178,1323,l)
);
}
);
userData = {
assembly = "NPUSHB[ ]	/* 28 values pushed */
8 37 2 3 2 3 37 7 8 7 66 8 151 0 136 3 151 5 8 3 0 1 4 47 0 6 48 10
SRP0[ ]	/* SetRefPoint0 */
MIRP[11100]	/* MoveIndirectRelPt */
MDRP[00100]	/* MoveDirectRelPt */
MIRP[11100]	/* MoveIndirectRelPt */
MDRP[00100]	/* MoveDirectRelPt */
SRP1[ ]	/* SetRefPoint1 */
IP[ ]	/* InterpolatePts */
IP[ ]	/* InterpolatePts */
IUP[1]	/* InterpolateUntPts */
SVTCA[0]	/* SetFreedomAndProjectionVectorToAxis */
MDAP[1]	/* MoveDirectAbsPt */
MIRP[01100]	/* MoveIndirectRelPt */
MIRP[10100]	/* MoveIndirectRelPt */
MIRP[01100]	/* MoveIndirectRelPt */
IUP[0]	/* InterpolateUntPts */
MPPEM[ ]	/* MeasurePixelPerEm */
GTEQ[ ]	/* GreaterThanOrEqual */
IF[ ]	/* If */
SPVTL[1]	/* SetPVectorToLine */
SRP0[ ]	/* SetRefPoint0 */
SFVTCA[1]	/* SetFVectorToAxis */
MIRP[01101]	/* MoveIndirectRelPt */
SPVTL[1]	/* SetPVectorToLine */
SRP0[ ]	/* SetRefPoint0 */
SFVTCA[1]	/* SetFVectorToAxis */
MIRP[01101]	/* MoveIndirectRelPt */
EIF[ ]	/* EndIf */
CLEAR[ ]	/* ClearStack */
PUSHB[ ]	/* 3 values pushed */
8 8 1
SVTCA[1]	/* SetFreedomAndProjectionVectorToAxis */
DELTAP1[ ]	/* DeltaExceptionP1 */
PUSHB[ ]	/* 3 values pushed */
7 3 1
DELTAP1[ ]	/* DeltaExceptionP1 */";
};
width = 1233;
}
);
note = Z;
unicode = 90;
},
{
glyphname = bracketleft;
layers = (
{
layerId = m01;
shapes = (
{
closed = 1;
nodes = (
(887,-270,l),
(887,-127,l),
(647,-127,l),
(647,1413,l),
(887,1413,l),
(887,1556,l),
(463,1556,l),
(463,-270,l)
);
}
);
userData = {
assembly = "NPUSHB[ ]	/* 15 values pushed */
4 182 6 183 2 182 0 181 8 5 1 3 61 0 8
SRP0[ ]	/* SetRefPoint0 */
MDRP[10100]	/* MoveDirectRelPt */
MIRP[11100]	/* MoveIndirectRelPt */
MDRP[00100]	/* MoveDirectRelPt */
SHP[0]	/* ShiftPointByLastPoint */
IUP[1]	/* InterpolateUntPts */
SVTCA[0]	/* SetFreedomAndProjectionVectorToAxis */
SRP0[ ]	/* SetRefPoint0 */
MIRP[11100]	/* MoveIndirectRelPt */
MIRP[01100]	/* MoveIndirectRelPt */
MIRP[10100]	/* MoveIndirectRelPt */
MIRP[01100]	/* MoveIndirectRelPt */
IUP[0]	/* InterpolateUntPts */";
};
width = 1233;
}
);
note = bracketleft;
unicode = 91;
},
{
glyphname = backslash;
lastChange = "2026-05-14 14:51:33 +0000";
layers = (
{
layerId = m01;
shapes = (
{
closed = 1;
nodes = (
(927,-270,l),
(1117,-270,l),
(264,1556,l),
(73,1556,l)
);
}
);
userData = {
assembly = "NPUSHB[ ]	/* 11 values pushed */
1 0 136 4 1 30 2 0 30 3 4
SRP0[ ]	/* SetRefPoint0 */
MDRP[10100]	/* MoveDirectRelPt */
MIRP[01100]	/* MoveIndirectRelPt */
MDRP[10100]	/* MoveDirectRelPt */
MIRP[01100]	/* MoveIndirectRelPt */
IUP[1]	/* InterpolateUntPts */
SVTCA[0]	/* SetFreedomAndProjectionVectorToAxis */
SRP0[ ]	/* SetRefPoint0 */
MIRP[10100]	/* MoveIndirectRelPt */
MDRP[00100]	/* MoveDirectRelPt */
IUP[0]	/* InterpolateUntPts */";
};
width = 1233;
}
);
note = backslash;
unicode = 92;
},
{
glyphname = bracketright;
layers = (
{
layerId = m01;
shapes = (
{
closed = 1;
nodes = (
(346,1413,l),
(586,1413,l),
(586,-127,l),
(346,-127,l),
(346,-270,l),
(770,-270,l),
(770,1556,l),
(346,1556,l)
);
}
);
userData = {
assembly = "NPUSHB[ ]	/* 15 values pushed */
3 182 1 183 5 182 0 181 8 0 61 6 2 4 8
SRP0[ ]	/* SetRefPoint0 */
MDRP[10100]	/* MoveDirectRelPt */
MDRP[00100]	/* MoveDirectRelPt */
SHP[0]	/* ShiftPointByLastPoint */
MIRP[01100]	/* MoveIndirectRelPt */
IUP[1]	/* InterpolateUntPts */
SVTCA[0]	/* SetFreedomAndProjectionVectorToAxis */
SRP0[ ]	/* SetRefPoint0 */
MIRP[11100]	/* MoveIndirectRelPt */
MIRP[01100]	/* MoveIndirectRelPt */
MIRP[10100]	/* MoveIndirectRelPt */
MIRP[01100]	/* MoveIndirectRelPt */
IUP[0]	/* InterpolateUntPts */";
};
width = 1233;
}
);
note = bracketright;
unicode = 93;
},
{
glyphname = asciicircum;
layers = (
{
layerId = m01;
shapes = (
{
closed = 1;
nodes = (
(72,936,l),
(250,936,l),
(616,1331,l),
(983,936,l),
(1161,936,l),
(705,1493,l),
(528,1493,l)
);
}
);
userData = {
assembly = "NPUSHB[ ]	/* 10 values pushed */
3 4 1 0 136 7 3 1 5 7
SRP0[ ]	/* SetRefPoint0 */
MDRP[10100]	/* MoveDirectRelPt */
MDRP[01100]	/* MoveDirectRelPt */
IP[ ]	/* InterpolatePts */
IUP[1]	/* InterpolateUntPts */
SVTCA[0]	/* SetFreedomAndProjectionVectorToAxis */
SRP0[ ]	/* SetRefPoint0 */
MIRP[10100]	/* MoveIndirectRelPt */
MDRP[01100]	/* MoveDirectRelPt */
SHP[0]	/* ShiftPointByLastPoint */
IP[ ]	/* InterpolatePts */
IUP[0]	/* InterpolateUntPts */";
};
width = 1233;
}
);
note = asciicircum;
unicode = 94;
},
{
glyphname = underscore;
lastChange = "2026-05-14 14:53:52 +0000";
layers = (
{
layerId = m01;
shapes = (
{
closed = 1;
nodes = (
(0,-255,l),
(1233,-255,l),
(1233,-85,l),
(0,-85,l)
);
}
);
userData = {
assembly = "PUSHB[ ]	/* 6 values pushed */
0 184 1 4 0 2
MDAP[1]	/* MoveDirectAbsPt */
MDRP[01100]	/* MoveDirectRelPt */
IUP[1]	/* InterpolateUntPts */
SVTCA[0]	/* SetFreedomAndProjectionVectorToAxis */
SRP0[ ]	/* SetRefPoint0 */
MDRP[10100]	/* MoveDirectRelPt */
MIRP[01100]	/* MoveIndirectRelPt */
IUP[0]	/* InterpolateUntPts */";
};
width = 1233;
}
);
note = underscore;
unicode = 95;
},
{
glyphname = grave;
layers = (
{
layerId = m01;
shapes = (
{
closed = 1;
nodes = (
(604,1262,l),
(758,1262,l),
(477,1638,l),
(279,1638,l)
);
}
);
userData = {
assembly = "NPUSHB[ ]	/* 9 values pushed */
1 186 0 185 4 1 60 3 4
SRP0[ ]	/* SetRefPoint0 */
MDRP[10100]	/* MoveDirectRelPt */
MIRP[01100]	/* MoveIndirectRelPt */
IUP[1]	/* InterpolateUntPts */
SVTCA[0]	/* SetFreedomAndProjectionVectorToAxis */
SRP0[ ]	/* SetRefPoint0 */
MIRP[10100]	/* MoveIndirectRelPt */
MIRP[01100]	/* MoveIndirectRelPt */
IUP[0]	/* InterpolateUntPts */
SVTCA[0]	/* SetFreedomAndProjectionVectorToAxis */
MPPEM[ ]	/* MeasurePixelPerEm */
PUSHB[ ]	/* 1 value pushed */
9
EQ[ ]	/* Equal */
MPPEM[ ]	/* MeasurePixelPerEm */
PUSHB[ ]	/* 1 value pushed */
14
EQ[ ]	/* Equal */
OR[ ]	/* LogicalOr */
IF[ ]	/* If */
PUSHW[ ]	/* 6 values pushed */
4 -64 1 4 4 64
SHPIX[ ]	/* ShiftZoneByPixel */
SRP1[ ]	/* SetRefPoint1 */
SHZ[1]	/* ShiftZoneByLastPoint */
SHPIX[ ]	/* ShiftZoneByPixel */
EIF[ ]	/* EndIf */";
};
width = 1233;
}
);
note = grave;
unicode = 96;
},
{
glyphname = a;
layers = (
{
layerId = m01;
shapes = (
{
closed = 1;
nodes = (
(874,522,ls),
(873,336,o),
(699,125,o),
(547,125,qs),
(439,125,o),
(317,237,o),
(317,338,qs),
(317,450,o),
(480,563,o),
(641,563,qs),
(702,563,l),
(874,563,l)
);
},
{
closed = 1;
nodes = (
(1027,933,o),
(989,983,qs),
(928,1065,o),
(731,1147,o),
(592,1147,qs),
(504,1147,o),
(317,1108,o),
(215,1069,q),
(215,885,l),
(306,937,o),
(498,991,o),
(592,991,qs),
(739,991,o),
(873,870,o),
(874,736,qs),
(874,707,l),
(627,707,ls),
(384,707,o),
(133,513,o),
(133,326,qs),
(133,164,o),
(337,-29,o),
(508,-29,qs),
(636,-29,o),
(815,66,o),
(874,166,q),
(874,0,l),
(1059,0,l),
(1059,639,ls),
(1059,786,o)
);
}
);
userData = {
assembly = "NPUSHB[ ]	/* 42 values pushed */
10 7 0 26 32 12 24 15 7 0 182 24 7 140 18 33 139 32 191 29 140 36 190 18 153 24 13 1 24 4 25 14 10 6 12 68 32 4 6 21 62 42
SRP0[ ]	/* SetRefPoint0 */
MIRP[10100]	/* MoveIndirectRelPt */
MIRP[01100]	/* MoveIndirectRelPt */
MDRP[00100]	/* MoveDirectRelPt */
MIRP[11100]	/* MoveIndirectRelPt */
MIRP[01100]	/* MoveIndirectRelPt */
SHP[0]	/* ShiftPointByLastPoint */
SHP[0]	/* ShiftPointByLastPoint */
SRP1[ ]	/* SetRefPoint1 */
IP[ ]	/* InterpolatePts */
IP[ ]	/* InterpolatePts */
IUP[1]	/* InterpolateUntPts */
SVTCA[0]	/* SetFreedomAndProjectionVectorToAxis */
MDAP[1]	/* MoveDirectAbsPt */
MDRP[00100]	/* MoveDirectRelPt */
MIRP[00100]	/* MoveIndirectRelPt */
MIRP[10100]	/* MoveIndirectRelPt */
MIRP[11100]	/* MoveIndirectRelPt */
MIRP[10100]	/* MoveIndirectRelPt */
MIRP[01100]	/* MoveIndirectRelPt */
SRP0[ ]	/* SetRefPoint0 */
MIRP[01110]	/* MoveIndirectRelPt */
SRP0[ ]	/* SetRefPoint0 */
MIRP[01110]	/* MoveIndirectRelPt */
SRP1[ ]	/* SetRefPoint1 */
IP[ ]	/* InterpolatePts */
SRP1[ ]	/* SetRefPoint1 */
IP[ ]	/* InterpolatePts */
SRP2[ ]	/* SetRefPoint2 */
IP[ ]	/* InterpolatePts */
SRP1[ ]	/* SetRefPoint1 */
SRP2[ ]	/* SetRefPoint2 */
IP[ ]	/* InterpolatePts */
IUP[0]	/* InterpolateUntPts */
NPUSHB[ ]	/* 29 values pushed */
48 31 48 32 48 33 48 34 160 0 160 1 160 2 160 10 160 11 162 22 160 23 160 24 160 25 160 26 14
DELTAP1[ ]	/* DeltaExceptionP1 */";
};
width = 1233;
}
);
note = a;
unicode = 97;
},
{
glyphname = b;
layers = (
{
layerId = m01;
shapes = (
{
closed = 1;
nodes = (
(782,127,o),
(649,127,qs),
(515,127,o),
(377,347,o),
(377,559,qs),
(377,772,o),
(515,991,o),
(649,991,qs),
(782,991,o),
(918,773,o),
(918,559,qs),
(918,345,o)
);
},
{
closed = 1;
nodes = (
(193,1556,l),
(193,0,l),
(377,0,l),
(377,141,l),
(423,58,o),
(576,-29,o),
(676,-29,qs),
(879,-29,o),
(1112,286,o),
(1112,563,qs),
(1112,836,o),
(880,1147,o),
(678,1147,qs),
(576,1147,o),
(421,1059,o),
(377,977,q),
(377,1556,l)
);
}
);
userData = {
assembly = "NPUSHB[ ]	/* 26 values pushed */
24 12 9 3 140 15 9 140 21 153 15 190 27 155 25 0 18 18 71 24 12 6 6 26 70 29
SRP0[ ]	/* SetRefPoint0 */
MIRP[10100]	/* MoveIndirectRelPt */
MIRP[01100]	/* MoveIndirectRelPt */
SHP[0]	/* ShiftPointByLastPoint */
SHP[0]	/* ShiftPointByLastPoint */
MIRP[11100]	/* MoveIndirectRelPt */
MIRP[01100]	/* MoveIndirectRelPt */
IUP[1]	/* InterpolateUntPts */
SVTCA[0]	/* SetFreedomAndProjectionVectorToAxis */
MDAP[1]	/* MoveDirectAbsPt */
MIRP[01100]	/* MoveIndirectRelPt */
MIRP[00100]	/* MoveIndirectRelPt */
MIRP[10100]	/* MoveIndirectRelPt */
MIRP[01100]	/* MoveIndirectRelPt */
SRP0[ ]	/* SetRefPoint0 */
MIRP[01110]	/* MoveIndirectRelPt */
SRP1[ ]	/* SetRefPoint1 */
IP[ ]	/* InterpolatePts */
IP[ ]	/* InterpolatePts */
IUP[0]	/* InterpolateUntPts */";
};
width = 1233;
}
);
note = b;
unicode = 98;
},
{
glyphname = c;
layers = (
{
layerId = m01;
shapes = (
{
closed = 1;
nodes = (
(996,186,o),
(844,127,o),
(748,127,qs),
(576,127,o),
(389,352,o),
(389,559,qs),
(389,767,o),
(575,991,o),
(748,991,qs),
(841,991,o),
(988,933,o),
(1061,868,q),
(1061,1061,l),
(983,1105,o),
(829,1147,o),
(748,1147,qs),
(488,1147,o),
(195,835,o),
(195,559,qs),
(195,283,o),
(488,-29,o),
(748,-29,qs),
(830,-29,o),
(987,14,o),
(1061,57,q),
(1061,248,l)
);
}
);
userData = {
assembly = "NPUSHB[ ]	/* 26 values pushed */
12 139 13 192 16 0 139 25 192 22 140 3 16 140 9 190 3 153 26 19 18 12 0 6 70 26
SRP0[ ]	/* SetRefPoint0 */
MIRP[10100]	/* MoveIndirectRelPt */
MDRP[00100]	/* MoveDirectRelPt */
SHP[0]	/* ShiftPointByLastPoint */
MIRP[01100]	/* MoveIndirectRelPt */
IUP[1]	/* InterpolateUntPts */
SVTCA[0]	/* SetFreedomAndProjectionVectorToAxis */
SRP0[ ]	/* SetRefPoint0 */
MIRP[00100]	/* MoveIndirectRelPt */
MIRP[10100]	/* MoveIndirectRelPt */
MIRP[01100]	/* MoveIndirectRelPt */
SRP0[ ]	/* SetRefPoint0 */
MIRP[11110]	/* MoveIndirectRelPt */
MIRP[10100]	/* MoveIndirectRelPt */
MIRP[01110]	/* MoveIndirectRelPt */
SRP0[ ]	/* SetRefPoint0 */
MIRP[10101]	/* MoveIndirectRelPt */
MIRP[01110]	/* MoveIndirectRelPt */
IUP[0]	/* InterpolateUntPts */";
};
width = 1233;
}
);
note = c;
unicode = 99;
},
{
glyphname = d;
layers = (
{
layerId = m01;
shapes = (
{
closed = 1;
nodes = (
(660,1147,o),
(559,1147,qs),
(357,1147,o),
(123,836,o),
(123,563,qs),
(123,286,o),
(356,-29,o),
(559,-29,qs),
(659,-29,o),
(812,58,o),
(858,141,q),
(858,0,l),
(1042,0,l),
(1042,1556,l),
(858,1556,l),
(858,977,l),
(814,1060,o)
);
},
{
closed = 1;
nodes = (
(453,991,o),
(586,991,qs),
(719,991,o),
(858,772,o),
(858,559,qs),
(858,347,o),
(719,127,o),
(586,127,qs),
(453,127,o),
(317,345,o),
(317,559,qs),
(317,773,o)
);
}
);
userData = {
assembly = "NPUSHB[ ]	/* 26 values pushed */
5 0 20 26 140 14 20 140 8 153 14 190 1 155 3 23 4 0 6 2 71 17 18 11 72 29
SRP0[ ]	/* SetRefPoint0 */
MIRP[10100]	/* MoveIndirectRelPt */
MIRP[01100]	/* MoveIndirectRelPt */
MIRP[11100]	/* MoveIndirectRelPt */
MIRP[01100]	/* MoveIndirectRelPt */
SHP[0]	/* ShiftPointByLastPoint */
SHP[0]	/* ShiftPointByLastPoint */
IUP[1]	/* InterpolateUntPts */
SVTCA[0]	/* SetFreedomAndProjectionVectorToAxis */
MDAP[1]	/* MoveDirectAbsPt */
MIRP[01100]	/* MoveIndirectRelPt */
MIRP[00100]	/* MoveIndirectRelPt */
MIRP[10100]	/* MoveIndirectRelPt */
MIRP[01100]	/* MoveIndirectRelPt */
SRP0[ ]	/* SetRefPoint0 */
MIRP[01110]	/* MoveIndirectRelPt */
SRP1[ ]	/* SetRefPoint1 */
IP[ ]	/* InterpolatePts */
IP[ ]	/* InterpolatePts */
IUP[0]	/* InterpolateUntPts */";
};
width = 1233;
}
);
note = d;
unicode = 100;
},
{
glyphname = e;
layers = (
{
layerId = m01;
shapes = (
{
closed = 1;
nodes = (
(865,1147,o),
(651,1147,qs),
(411,1147,o),
(123,827,o),
(123,559,qs),
(123,284,o),
(417,-29,o),
(678,-29,qs),
(769,-29,o),
(964,14,o),
(1069,57,q),
(1069,240,l),
(960,183,o),
(768,127,o),
(680,127,qs),
(506,127,o),
(315,327,o),
(315,510,qs),
(315,516,l),
(1112,516,l),
(1112,606,ls),
(1112,857,o)
);
},
{
closed = 1;
nodes = (
(338,815,o),
(510,991,o),
(643,991,qs),
(779,991,o),
(924,822,o),
(928,660,q),
(322,659,l)
);
}
);
userData = {
assembly = "NPUSHB[ ]	/* 38 values pushed */
0 22 3 1 10 139 9 141 6 22 182 1 6 140 13 1 193 25 140 19 190 13 153 29 3 2 28 16 9 22 6 0 73 28 18 16 72 29
SRP0[ ]	/* SetRefPoint0 */
MIRP[10100]	/* MoveIndirectRelPt */
MIRP[01100]	/* MoveIndirectRelPt */
MIRP[11100]	/* MoveIndirectRelPt */
MIRP[01100]	/* MoveIndirectRelPt */
MDRP[00100]	/* MoveDirectRelPt */
SRP1[ ]	/* SetRefPoint1 */
SRP2[ ]	/* SetRefPoint2 */
IP[ ]	/* InterpolatePts */
IP[ ]	/* InterpolatePts */
IUP[1]	/* InterpolateUntPts */
SVTCA[0]	/* SetFreedomAndProjectionVectorToAxis */
SRP0[ ]	/* SetRefPoint0 */
MIRP[00100]	/* MoveIndirectRelPt */
MIRP[10100]	/* MoveIndirectRelPt */
MIRP[01100]	/* MoveIndirectRelPt */
MIRP[00100]	/* MoveIndirectRelPt */
SRP0[ ]	/* SetRefPoint0 */
MIRP[01110]	/* MoveIndirectRelPt */
SRP0[ ]	/* SetRefPoint0 */
MIRP[01110]	/* MoveIndirectRelPt */
SRP0[ ]	/* SetRefPoint0 */
MIRP[10100]	/* MoveIndirectRelPt */
MIRP[01110]	/* MoveIndirectRelPt */
SRP2[ ]	/* SetRefPoint2 */
IP[ ]	/* InterpolatePts */
SRP1[ ]	/* SetRefPoint1 */
IP[ ]	/* InterpolatePts */
IUP[0]	/* InterpolateUntPts */";
};
width = 1233;
}
);
note = e;
unicode = 101;
},
{
glyphname = f;
layers = (
{
layerId = m01;
shapes = (
{
closed = 1;
nodes = (
(663,1556,o),
(494,1382,o),
(494,1198,qs),
(494,1120,l),
(195,1120,l),
(195,977,l),
(494,977,l),
(494,0,l),
(678,0,l),
(678,977,l),
(1063,977,l),
(1063,1120,l),
(678,1120,l),
(678,1219,ls),
(678,1322,o),
(755,1403,o),
(854,1403,qs),
(1063,1403,l),
(1063,1556,l),
(842,1556,ls)
);
}
);
userData = {
assembly = "NPUSHB[ ]	/* 26 values pushed */
5 16 1 12 8 182 6 1 140 0 155 14 6 194 10 2 19 7 0 9 5 6 13 15 11 20
SRP0[ ]	/* SetRefPoint0 */
MDRP[10100]	/* MoveDirectRelPt */
ALIGNRP[ ]	/* AlignRelativePt */
MDRP[00100]	/* MoveDirectRelPt */
MIRP[11100]	/* MoveIndirectRelPt */
ALIGNRP[ ]	/* AlignRelativePt */
MDRP[00100]	/* MoveDirectRelPt */
SHP[0]	/* ShiftPointByLastPoint */
IP[ ]	/* InterpolatePts */
IP[ ]	/* InterpolatePts */
IUP[1]	/* InterpolateUntPts */
SVTCA[0]	/* SetFreedomAndProjectionVectorToAxis */
MDAP[1]	/* MoveDirectAbsPt */
MIRP[00100]	/* MoveIndirectRelPt */
SHP[0]	/* ShiftPointByLastPoint */
MIRP[11100]	/* MoveIndirectRelPt */
MIRP[01100]	/* MoveIndirectRelPt */
SRP0[ ]	/* SetRefPoint0 */
MIRP[01110]	/* MoveIndirectRelPt */
SHP[0]	/* ShiftPointByLastPoint */
SRP2[ ]	/* SetRefPoint2 */
IP[ ]	/* InterpolatePts */
IP[ ]	/* InterpolatePts */
IUP[0]	/* InterpolateUntPts */";
};
width = 1233;
}
);
note = f;
unicode = 102;
},
{
glyphname = g;
layers = (
{
layerId = m01;
shapes = (
{
closed = 1;
nodes = (
(723,145,o),
(596,145,qs),
(460,145,o),
(317,362,o),
(317,569,qs),
(317,776,o),
(459,991,o),
(594,991,qs),
(723,991,o),
(858,776,o),
(858,569,qs),
(858,363,o)
);
},
{
closed = 1;
nodes = (
(858,1116,l),
(858,971,l),
(811,1061,o),
(661,1147,o),
(553,1147,qs),
(357,1147,o),
(123,833,o),
(123,569,qs),
(123,306,o),
(357,-8,o),
(553,-8,qs),
(662,-8,o),
(814,84,o),
(858,178,q),
(858,53,l),
(858,45,ls),
(858,-131,o),
(722,-293,o),
(573,-293,qs),
(506,-293,o),
(346,-249,o),
(248,-203,q),
(248,-385,l),
(331,-412,o),
(497,-440,o),
(573,-440,qs),
(804,-440,o),
(1042,-180,o),
(1042,72,qs),
(1042,1116,l)
);
}
);
userData = {
assembly = "NPUSHB[ ]	/* 39 values pushed */
25 12 30 27 39 9 3 18 139 19 22 9 140 30 22 140 15 3 140 36 190 30 15 195 40 194 42 39 25 0 6 12 71 6 18 18 33 72 42
SRP0[ ]	/* SetRefPoint0 */
MIRP[10100]	/* MoveIndirectRelPt */
MDRP[00100]	/* MoveDirectRelPt */
MIRP[01100]	/* MoveIndirectRelPt */
MIRP[11100]	/* MoveIndirectRelPt */
MIRP[01100]	/* MoveIndirectRelPt */
SHP[0]	/* ShiftPointByLastPoint */
SHP[0]	/* ShiftPointByLastPoint */
IUP[1]	/* InterpolateUntPts */
SVTCA[0]	/* SetFreedomAndProjectionVectorToAxis */
SRP0[ ]	/* SetRefPoint0 */
MIRP[00100]	/* MoveIndirectRelPt */
MIRP[00100]	/* MoveIndirectRelPt */
MDRP[00100]	/* MoveDirectRelPt */
MIRP[10100]	/* MoveIndirectRelPt */
MIRP[01100]	/* MoveIndirectRelPt */
SRP0[ ]	/* SetRefPoint0 */
MIRP[01110]	/* MoveIndirectRelPt */
SRP0[ ]	/* SetRefPoint0 */
MIRP[01110]	/* MoveIndirectRelPt */
SRP0[ ]	/* SetRefPoint0 */
MDRP[10101]	/* MoveDirectRelPt */
MIRP[01110]	/* MoveIndirectRelPt */
SRP1[ ]	/* SetRefPoint1 */
SRP2[ ]	/* SetRefPoint2 */
IP[ ]	/* InterpolatePts */
IP[ ]	/* InterpolatePts */
SRP1[ ]	/* SetRefPoint1 */
IP[ ]	/* InterpolatePts */
IP[ ]	/* InterpolatePts */
IUP[0]	/* InterpolateUntPts */";
};
width = 1233;
}
);
note = g;
unicode = 103;
},
{
glyphname = h;
layers = (
{
layerId = m01;
shapes = (
{
closed = 1;
nodes = (
(882,1147,o),
(711,1147,qs),
(596,1147,o),
(428,1048,o),
(379,952,q),
(379,1556,l),
(195,1556,l),
(195,0,l),
(379,0,l),
(379,633,ls),
(379,804,o),
(518,987,o),
(647,987,qs),
(760,987,o),
(866,845,o),
(866,694,qs),
(866,0,l),
(1051,0,l),
(1051,694,ls),
(1051,922,o)
);
}
);
userData = {
assembly = "NPUSHB[ ]	/* 24 values pushed */
9 14 3 0 3 1 6 140 17 190 12 155 10 1 2 6 0 74 13 9 6 11 70 20
SRP0[ ]	/* SetRefPoint0 */
MIRP[10100]	/* MoveIndirectRelPt */
MIRP[01100]	/* MoveIndirectRelPt */
SHP[0]	/* ShiftPointByLastPoint */
MIRP[11100]	/* MoveIndirectRelPt */
MIRP[01100]	/* MoveIndirectRelPt */
IUP[1]	/* InterpolateUntPts */
SVTCA[0]	/* SetFreedomAndProjectionVectorToAxis */
MDAP[1]	/* MoveDirectAbsPt */
ALIGNRP[ ]	/* AlignRelativePt */
MIRP[01100]	/* MoveIndirectRelPt */
MIRP[10100]	/* MoveIndirectRelPt */
MIRP[01100]	/* MoveIndirectRelPt */
SRP1[ ]	/* SetRefPoint1 */
SLOOP[ ]	/* SetLoopVariable */
IP[ ]	/* InterpolatePts */
IP[ ]	/* InterpolatePts */
IUP[0]	/* InterpolateUntPts */";
};
width = 1233;
}
);
note = h;
unicode = 104;
},
{
glyphname = i;
lastChange = "2026-05-16 14:55:14 +0000";
layers = (
{
layerId = m01;
shapes = (
{
closed = 1;
nodes = (
(784,0,l),
(784,1120,l),
(186,1120,l),
(186,977,l),
(600,977,l),
(600,0,l)
);
},
{
closed = 1;
nodes = (
(784,1323,l),
(784,1556,l),
(600,1556,l),
(600,1323,l)
);
}
);
userData = {
assembly = "NPUSHB[ ]	/* 25 values pushed */
8 182 0 12 196 10 155 0 194 6 2 182 4 3 76 11 1 6 5 76 0 75 10 7 14
SRP0[ ]	/* SetRefPoint0 */
MDRP[10100]	/* MoveDirectRelPt */
ALIGNRP[ ]	/* AlignRelativePt */
MIRP[00100]	/* MoveIndirectRelPt */
MIRP[01100]	/* MoveIndirectRelPt */
MIRP[11100]	/* MoveIndirectRelPt */
ALIGNRP[ ]	/* AlignRelativePt */
MIRP[01100]	/* MoveIndirectRelPt */
IUP[1]	/* InterpolateUntPts */
SVTCA[0]	/* SetFreedomAndProjectionVectorToAxis */
MDAP[1]	/* MoveDirectAbsPt */
MIRP[01100]	/* MoveIndirectRelPt */
SHP[0]	/* ShiftPointByLastPoint */
MIRP[00100]	/* MoveIndirectRelPt */
MIRP[11100]	/* MoveIndirectRelPt */
MIRP[01100]	/* MoveIndirectRelPt */
SRP0[ ]	/* SetRefPoint0 */
MIRP[01110]	/* MoveIndirectRelPt */
IUP[0]	/* InterpolateUntPts */";
};
width = 1233;
}
);
note = i;
unicode = 105;
},
{
glyphname = j;
lastChange = "2026-05-14 19:25:55 +0000";
layers = (
{
layerId = m01;
shapes = (
{
closed = 1;
nodes = (
(510,-270,o),
(420,-270,qs),
(186,-270,l),
(186,-426,l),
(440,-426,ls),
(605,-426,o),
(784,-215,o),
(784,-20,qs),
(784,1120,l),
(283,1120,l),
(283,977,l),
(600,977,l),
(600,-20,ls),
(600,-145,o)
);
},
{
closed = 1;
nodes = (
(784,1323,l),
(784,1556,l),
(600,1556,l),
(600,1323,l)
);
}
);
userData = {
assembly = "NPUSHB[ ]	/* 29 values pushed */
5 0 1 10 140 8 1 182 3 16 196 14 155 3 194 8 195 18 11 8 2 9 2 15 4 6 14 0 18
SRP0[ ]	/* SetRefPoint0 */
MDRP[10100]	/* MoveDirectRelPt */
ALIGNRP[ ]	/* AlignRelativePt */
MIRP[01100]	/* MoveIndirectRelPt */
SHP[0]	/* ShiftPointByLastPoint */
MDRP[00100]	/* MoveDirectRelPt */
MDRP[00100]	/* MoveDirectRelPt */
SRP2[ ]	/* SetRefPoint2 */
IP[ ]	/* InterpolatePts */
IP[ ]	/* InterpolatePts */
IUP[1]	/* InterpolateUntPts */
SVTCA[0]	/* SetFreedomAndProjectionVectorToAxis */
SRP0[ ]	/* SetRefPoint0 */
MIRP[00100]	/* MoveIndirectRelPt */
MIRP[00100]	/* MoveIndirectRelPt */
MIRP[11100]	/* MoveIndirectRelPt */
MIRP[01100]	/* MoveIndirectRelPt */
SRP0[ ]	/* SetRefPoint0 */
MIRP[01110]	/* MoveIndirectRelPt */
SRP0[ ]	/* SetRefPoint0 */
MIRP[01110]	/* MoveIndirectRelPt */
SRP1[ ]	/* SetRefPoint1 */
IP[ ]	/* InterpolatePts */
IP[ ]	/* InterpolatePts */
IUP[0]	/* InterpolateUntPts */";
};
width = 1233;
}
);
note = j;
unicode = 106;
},
{
glyphname = k;
layers = (
{
layerId = m01;
shapes = (
{
closed = 1;
nodes = (
(426,0,l),
(426,449,l),
(563,578,l),
(977,0,l),
(1202,0,l),
(692,698,l),
(1133,1120,l),
(909,1120,l),
(426,655,l),
(426,1556,l),
(236,1556,l),
(236,0,l)
);
}
);
userData = {
assembly = "NPUSHB[ ]	/* 58 values pushed */
8 23 9 8 5 6 5 7 23 6 6 5 9 23 3 2 8 23 7 8 3 2 5 23 6 5 2 3 2 4 23 3 3 2 66 8 5 2 3 3 194 0 155 10 6 8 5 4 3 6 9 1 6 6 68 0 69 12
SRP0[ ]	/* SetRefPoint0 */
MIRP[10100]	/* MoveIndirectRelPt */
MIRP[01100]	/* MoveIndirectRelPt */
MIRP[01100]	/* MoveIndirectRelPt */
SHP[0]	/* ShiftPointByLastPoint */
SRP1[ ]	/* SetRefPoint1 */
SLOOP[ ]	/* SetLoopVariable */
IP[ ]	/* InterpolatePts */
IUP[1]	/* InterpolateUntPts */
SVTCA[0]	/* SetFreedomAndProjectionVectorToAxis */
MDAP[1]	/* MoveDirectAbsPt */
ALIGNRP[ ]	/* AlignRelativePt */
MIRP[01100]	/* MoveIndirectRelPt */
MIRP[00100]	/* MoveIndirectRelPt */
SLOOP[ ]	/* SetLoopVariable */
IP[ ]	/* InterpolatePts */
IUP[0]	/* InterpolateUntPts */
MPPEM[ ]	/* MeasurePixelPerEm */
GTEQ[ ]	/* GreaterThanOrEqual */
IF[ ]	/* If */
SPVTL[1]	/* SetPVectorToLine */
SRP0[ ]	/* SetRefPoint0 */
SFVTCA[1]	/* SetFVectorToAxis */
MIRP[01101]	/* MoveIndirectRelPt */
SPVTL[1]	/* SetPVectorToLine */
SRP0[ ]	/* SetRefPoint0 */
SFVTL[0]	/* SetFVectorToLine */
MIRP[01101]	/* MoveIndirectRelPt */
SPVTL[1]	/* SetPVectorToLine */
SFVTL[0]	/* SetFVectorToLine */
MIRP[01101]	/* MoveIndirectRelPt */
SPVTL[1]	/* SetPVectorToLine */
SFVTCA[0]	/* SetFVectorToAxis */
MIRP[01101]	/* MoveIndirectRelPt */
SPVTL[1]	/* SetPVectorToLine */
SRP0[ ]	/* SetRefPoint0 */
SFVTCA[1]	/* SetFVectorToAxis */
MIRP[01101]	/* MoveIndirectRelPt */
SPVTL[1]	/* SetPVectorToLine */
SRP0[ ]	/* SetRefPoint0 */
SFVTL[0]	/* SetFVectorToLine */
MIRP[01101]	/* MoveIndirectRelPt */
EIF[ ]	/* EndIf */
CLEAR[ ]	/* ClearStack */
PUSHB[ ]	/* 3 values pushed */
8 7 1
SVTCA[1]	/* SetFreedomAndProjectionVectorToAxis */
DELTAP1[ ]	/* DeltaExceptionP1 */
NPUSHB[ ]	/* 82 values pushed */
6 2 8 8 22 2 24 5 24 8 53 2 52 5 54 8 70 2 102 2 117 2 118 5 12 9 3 8 8 25 3 23 4 24 5 25 6 26 7 24 8 40 3 39 5 40 7 59 3 59 4 55 5 57 7 55 8 74 3 73 7 89 6 89 7 107 3 105 4 105 6 105 7 121 3 120 5 121 6 121 7 28
DELTAP1[ ]	/* DeltaExceptionP1 */
SVTCA[0]	/* SetFreedomAndProjectionVectorToAxis */
DELTAP1[ ]	/* DeltaExceptionP1 */";
};
width = 1233;
}
);
note = k;
unicode = 107;
},
{
glyphname = l;
lastChange = "2026-05-14 14:44:29 +0000";
layers = (
{
layerId = m01;
shapes = (
{
closed = 1;
nodes = (
(160,1556,l),
(160,1412,l),
(455,1412,l),
(455,406,ls),
(455,212,o),
(636,0,o),
(801,0,qs),
(1034,0,l),
(1034,156,l),
(819,156,ls),
(730,156,o),
(639,282,o),
(639,406,qs),
(639,1556,l)
);
}
);
userData = {
assembly = "NPUSHB[ ]	/* 19 values pushed */
9 0 3 10 182 12 197 3 182 5 3 6 4 0 6 11 76 9 14
SRP0[ ]	/* SetRefPoint0 */
MDRP[10100]	/* MoveDirectRelPt */
MIRP[01100]	/* MoveIndirectRelPt */
MIRP[11100]	/* MoveIndirectRelPt */
MDRP[01100]	/* MoveDirectRelPt */
IP[ ]	/* InterpolatePts */
IP[ ]	/* InterpolatePts */
IUP[1]	/* InterpolateUntPts */
SVTCA[0]	/* SetFreedomAndProjectionVectorToAxis */
MDAP[1]	/* MoveDirectAbsPt */
MIRP[01100]	/* MoveIndirectRelPt */
MIRP[11100]	/* MoveIndirectRelPt */
MIRP[01100]	/* MoveIndirectRelPt */
SRP1[ ]	/* SetRefPoint1 */
IP[ ]	/* InterpolatePts */
IP[ ]	/* InterpolatePts */
IUP[0]	/* InterpolateUntPts */";
};
width = 1233;
}
);
note = l;
unicode = 108;
},
{
glyphname = m;
layers = (
{
layerId = m01;
shapes = (
{
closed = 1;
nodes = (
(547,1147,o),
(471,1147,qs),
(408,1147,o),
(309,1084,o),
(276,1024,q),
(276,1120,l),
(109,1120,l),
(109,0,l),
(276,0,l),
(276,641,ls),
(276,870,o),
(333,993,o),
(406,993,qs),
(480,993,o),
(537,881,o),
(537,641,qs),
(537,0,l),
(705,0,l),
(705,641,ls),
(705,870,o),
(764,993,o),
(844,993,qs),
(914,993,o),
(967,878,o),
(967,641,qs),
(967,0,l),
(1135,0,l),
(1135,649,ls),
(1135,938,o),
(1024,1147,o),
(889,1147,qs),
(815,1147,o),
(710,1078,o),
(676,1006,q),
(648,1077,o)
);
}
);
userData = {
assembly = "NPUSHB[ ]	/* 39 values pushed */
24 18 15 9 4 7 0 29 27 6 7 21 12 140 32 3 190 27 194 25 16 7 0 17 15 8 77 6 78 17 77 15 78 28 24 77 26 69 35
SRP0[ ]	/* SetRefPoint0 */
MIRP[10100]	/* MoveIndirectRelPt */
MIRP[11100]	/* MoveIndirectRelPt */
ALIGNRP[ ]	/* AlignRelativePt */
MIRP[11100]	/* MoveIndirectRelPt */
MIRP[01100]	/* MoveIndirectRelPt */
MIRP[11100]	/* MoveIndirectRelPt */
MIRP[01100]	/* MoveIndirectRelPt */
SRP1[ ]	/* SetRefPoint1 */
SRP2[ ]	/* SetRefPoint2 */
IP[ ]	/* InterpolatePts */
IUP[1]	/* InterpolateUntPts */
SVTCA[0]	/* SetFreedomAndProjectionVectorToAxis */
MDAP[1]	/* MoveDirectAbsPt */
ALIGNRP[ ]	/* AlignRelativePt */
ALIGNRP[ ]	/* AlignRelativePt */
MIRP[00100]	/* MoveIndirectRelPt */
MIRP[10100]	/* MoveIndirectRelPt */
ALIGNRP[ ]	/* AlignRelativePt */
MIRP[01100]	/* MoveIndirectRelPt */
SHP[0]	/* ShiftPointByLastPoint */
SRP1[ ]	/* SetRefPoint1 */
IP[ ]	/* InterpolatePts */
SRP1[ ]	/* SetRefPoint1 */
IP[ ]	/* InterpolatePts */
IP[ ]	/* InterpolatePts */
SRP1[ ]	/* SetRefPoint1 */
SLOOP[ ]	/* SetLoopVariable */
IP[ ]	/* InterpolatePts */
IUP[0]	/* InterpolateUntPts */
NPUSHB[ ]	/* 71 values pushed */
48 4 48 5 48 6 48 7 48 8 48 9 48 10 48 11 63 22 63 23 63 24 63 25 63 26 63 27 63 28 63 29 63 30 128 3 128 4 128 5 128 6 128 7 128 8 128 9 128 10 128 11 143 22 143 23 143 24 143 25 143 26 143 27 143 28 143 29 143 30 35
SVTCA[1]	/* SetFreedomAndProjectionVectorToAxis */
DELTAP1[ ]	/* DeltaExceptionP1 */
SVTCA[1]	/* SetFreedomAndProjectionVectorToAxis */
MPPEM[ ]	/* MeasurePixelPerEm */
PUSHB[ ]	/* 1 value pushed */
12
EQ[ ]	/* Equal */
MPPEM[ ]	/* MeasurePixelPerEm */
PUSHB[ ]	/* 1 value pushed */
17
EQ[ ]	/* Equal */
OR[ ]	/* LogicalOr */
MPPEM[ ]	/* MeasurePixelPerEm */
PUSHB[ ]	/* 1 value pushed */
22
EQ[ ]	/* Equal */
OR[ ]	/* LogicalOr */
IF[ ]	/* If */
PUSHW[ ]	/* 6 values pushed */
35 64 1 35 35 -64
SHPIX[ ]	/* ShiftZoneByPixel */
SRP1[ ]	/* SetRefPoint1 */
SHZ[1]	/* ShiftZoneByLastPoint */
SHPIX[ ]	/* ShiftZoneByPixel */
EIF[ ]	/* EndIf */
SVTCA[1]	/* SetFreedomAndProjectionVectorToAxis */
MPPEM[ ]	/* MeasurePixelPerEm */
PUSHB[ ]	/* 1 value pushed */
16
EQ[ ]	/* Equal */
IF[ ]	/* If */
PUSHW[ ]	/* 6 values pushed */
35 -64 1 35 35 64
SHPIX[ ]	/* ShiftZoneByPixel */
SRP1[ ]	/* SetRefPoint1 */
SHZ[1]	/* ShiftZoneByLastPoint */
SHPIX[ ]	/* ShiftZoneByPixel */
EIF[ ]	/* EndIf */";
};
width = 1233;
}
);
note = m;
unicode = 109;
},
{
glyphname = n;
layers = (
{
layerId = m01;
shapes = (
{
closed = 1;
nodes = (
(882,1147,o),
(711,1147,qs),
(596,1147,o),
(428,1048,o),
(379,952,q),
(379,1120,l),
(195,1120,l),
(195,0,l),
(379,0,l),
(379,633,ls),
(379,804,o),
(518,987,o),
(647,987,qs),
(760,987,o),
(866,845,o),
(866,694,qs),
(866,0,l),
(1051,0,l),
(1051,694,ls),
(1051,922,o)
);
}
);
userData = {
assembly = "NPUSHB[ ]	/* 24 values pushed */
9 14 3 0 3 1 6 140 17 190 12 194 10 1 2 6 0 74 13 9 6 11 70 20
SRP0[ ]	/* SetRefPoint0 */
MIRP[10100]	/* MoveIndirectRelPt */
MIRP[01100]	/* MoveIndirectRelPt */
SHP[0]	/* ShiftPointByLastPoint */
MIRP[11100]	/* MoveIndirectRelPt */
MIRP[01100]	/* MoveIndirectRelPt */
IUP[1]	/* InterpolateUntPts */
SVTCA[0]	/* SetFreedomAndProjectionVectorToAxis */
MDAP[1]	/* MoveDirectAbsPt */
ALIGNRP[ ]	/* AlignRelativePt */
MIRP[00100]	/* MoveIndirectRelPt */
MIRP[10100]	/* MoveIndirectRelPt */
MIRP[01100]	/* MoveIndirectRelPt */
SRP1[ ]	/* SetRefPoint1 */
SLOOP[ ]	/* SetLoopVariable */
IP[ ]	/* InterpolatePts */
IP[ ]	/* InterpolatePts */
IUP[0]	/* InterpolateUntPts */";
};
width = 1233;
}
);
note = n;
unicode = 110;
},
{
glyphname = o;
layers = (
{
layerId = m01;
shapes = (
{
closed = 1;
nodes = (
(901,773,o),
(901,559,qs),
(901,346,o),
(757,127,o),
(616,127,qs),
(476,127,o),
(332,346,o),
(332,559,qs),
(332,773,o),
(476,991,o),
(616,991,qs),
(757,991,o)
);
},
{
closed = 1;
nodes = (
(137,845,o),
(137,559,qs),
(137,272,o),
(383,-29,o),
(616,-29,qs),
(850,-29,o),
(1096,272,o),
(1096,559,qs),
(1096,845,o),
(849,1147,o),
(616,1147,qs),
(383,1147,o)
);
}
);
userData = {
assembly = "NPUSHB[ ]	/* 19 values pushed */
6 140 18 0 140 12 190 18 153 24 9 18 15 68 3 18 21 62 24
SRP0[ ]	/* SetRefPoint0 */
MIRP[10100]	/* MoveIndirectRelPt */
MIRP[01100]	/* MoveIndirectRelPt */
MIRP[11100]	/* MoveIndirectRelPt */
MIRP[01100]	/* MoveIndirectRelPt */
IUP[1]	/* InterpolateUntPts */
SVTCA[0]	/* SetFreedomAndProjectionVectorToAxis */
SRP0[ ]	/* SetRefPoint0 */
MIRP[00100]	/* MoveIndirectRelPt */
MIRP[10100]	/* MoveIndirectRelPt */
MIRP[01100]	/* MoveIndirectRelPt */
SRP0[ ]	/* SetRefPoint0 */
MIRP[01110]	/* MoveIndirectRelPt */
IUP[0]	/* InterpolateUntPts */";
};
width = 1233;
}
);
note = o;
unicode = 111;
},
{
glyphname = p;
layers = (
{
layerId = m01;
shapes = (
{
closed = 1;
nodes = (
(572,-29,o),
(674,-29,qs),
(876,-29,o),
(1108,282,o),
(1108,555,qs),
(1108,833,o),
(877,1147,o),
(674,1147,qs),
(574,1147,o),
(421,1060,o),
(375,977,q),
(375,1120,l),
(190,1120,l),
(190,-426,l),
(375,-426,l),
(375,141,l),
(419,58,o)
);
},
{
closed = 1;
nodes = (
(780,127,o),
(647,127,qs),
(513,127,o),
(375,347,o),
(375,559,qs),
(375,772,o),
(513,991,o),
(647,991,qs),
(780,991,o),
(915,773,o),
(915,559,qs),
(915,345,o)
);
}
);
userData = {
assembly = "NPUSHB[ ]	/* 28 values pushed */
5 0 20 26 140 14 20 140 8 190 14 153 1 195 3 194 29 17 18 11 71 23 4 0 6 2 70 29
SRP0[ ]	/* SetRefPoint0 */
MIRP[10100]	/* MoveIndirectRelPt */
MIRP[01100]	/* MoveIndirectRelPt */
SHP[0]	/* ShiftPointByLastPoint */
SHP[0]	/* ShiftPointByLastPoint */
MIRP[11100]	/* MoveIndirectRelPt */
MIRP[01100]	/* MoveIndirectRelPt */
IUP[1]	/* InterpolateUntPts */
SVTCA[0]	/* SetFreedomAndProjectionVectorToAxis */
SRP0[ ]	/* SetRefPoint0 */
MIRP[00100]	/* MoveIndirectRelPt */
MIRP[00100]	/* MoveIndirectRelPt */
MIRP[00100]	/* MoveIndirectRelPt */
MIRP[10100]	/* MoveIndirectRelPt */
MIRP[01100]	/* MoveIndirectRelPt */
SRP0[ ]	/* SetRefPoint0 */
MIRP[01110]	/* MoveIndirectRelPt */
SRP1[ ]	/* SetRefPoint1 */
IP[ ]	/* InterpolatePts */
IP[ ]	/* InterpolatePts */
IUP[0]	/* InterpolateUntPts */";
};
width = 1233;
}
);
note = p;
unicode = 112;
},
{
glyphname = q;
layers = (
{
layerId = m01;
shapes = (
{
closed = 1;
nodes = (
(467,987,o),
(600,987,qs),
(733,987,o),
(870,768,o),
(870,555,qs),
(870,342,o),
(733,123,o),
(600,123,qs),
(467,123,o),
(332,341,o),
(332,555,qs),
(332,769,o)
);
},
{
closed = 1;
nodes = (
(1055,-430,l),
(1055,1116,l),
(870,1116,l),
(870,973,l),
(824,1056,o),
(671,1143,o),
(571,1143,qs),
(369,1143,o),
(137,829,o),
(137,551,qs),
(137,278,o),
(370,-33,o),
(571,-33,qs),
(672,-33,o),
(825,56,o),
(870,139,q),
(870,-430,l)
);
}
);
userData = {
assembly = "NPUSHB[ ]	/* 28 values pushed */
24 12 9 3 140 15 9 140 21 190 15 153 27 195 25 194 29 24 12 6 6 26 71 0 18 18 62 29
SRP0[ ]	/* SetRefPoint0 */
MIRP[10100]	/* MoveIndirectRelPt */
MIRP[01100]	/* MoveIndirectRelPt */
MIRP[11100]	/* MoveIndirectRelPt */
MIRP[01100]	/* MoveIndirectRelPt */
SHP[0]	/* ShiftPointByLastPoint */
SHP[0]	/* ShiftPointByLastPoint */
IUP[1]	/* InterpolateUntPts */
SVTCA[0]	/* SetFreedomAndProjectionVectorToAxis */
SRP0[ ]	/* SetRefPoint0 */
MIRP[00100]	/* MoveIndirectRelPt */
MIRP[00100]	/* MoveIndirectRelPt */
MIRP[00100]	/* MoveIndirectRelPt */
MIRP[10100]	/* MoveIndirectRelPt */
MIRP[01100]	/* MoveIndirectRelPt */
SRP0[ ]	/* SetRefPoint0 */
MIRP[01110]	/* MoveIndirectRelPt */
SRP1[ ]	/* SetRefPoint1 */
IP[ ]	/* InterpolatePts */
IP[ ]	/* InterpolatePts */
IUP[0]	/* InterpolateUntPts */";
};
width = 1233;
}
);
note = q;
unicode = 113;
},
{
glyphname = r;
layers = (
{
layerId = m01;
shapes = (
{
closed = 1;
nodes = (
(1101,1113,o),
(983,1147,o),
(915,1147,qs),
(784,1147,o),
(593,1020,o),
(547,901,q),
(547,1120,l),
(362,1120,l),
(362,0,l),
(547,0,l),
(547,557,ls),
(547,761,o),
(729,977,o),
(901,977,qs),
(974,977,o),
(1096,935,o),
(1155,889,q),
(1155,1077,l)
);
}
);
userData = {
assembly = "NPUSHB[ ]	/* 19 values pushed */
6 7 11 3 0 17 3 151 14 190 9 194 7 10 6 6 0 8 18
SRP0[ ]	/* SetRefPoint0 */
MDRP[10100]	/* MoveDirectRelPt */
MDRP[00100]	/* MoveDirectRelPt */
MIRP[01100]	/* MoveIndirectRelPt */
SHP[0]	/* ShiftPointByLastPoint */
IUP[1]	/* InterpolateUntPts */
SVTCA[0]	/* SetFreedomAndProjectionVectorToAxis */
MDAP[1]	/* MoveDirectAbsPt */
MIRP[00100]	/* MoveIndirectRelPt */
MIRP[10100]	/* MoveIndirectRelPt */
MIRP[01100]	/* MoveIndirectRelPt */
MDRP[10100]	/* MoveDirectRelPt */
MDRP[01100]	/* MoveDirectRelPt */
SRP1[ ]	/* SetRefPoint1 */
IP[ ]	/* InterpolatePts */
SRP1[ ]	/* SetRefPoint1 */
IP[ ]	/* InterpolatePts */
IUP[0]	/* InterpolateUntPts */
NPUSHB[ ]	/* 37 values pushed */
16 0 16 1 16 17 32 0 32 1 32 17 48 0 48 1 51 16 48 17 64 0 64 1 67 16 64 17 80 0 80 1 80 16 80 17 18
DELTAP1[ ]	/* DeltaExceptionP1 */";
};
width = 1233;
}
);
note = r;
unicode = 114;
},
{
glyphname = s;
layers = (
{
layerId = m01;
shapes = (
{
closed = 1;
nodes = (
(727,1147,o),
(637,1147,qs),
(435,1147,o),
(217,972,o),
(217,811,qs),
(217,684,o),
(363,537,o),
(522,506,qs),
(591,492,l),
(599,490,ls),
(844,441,o),
(844,313,qs),
(844,224,o),
(710,125,o),
(588,125,qs),
(504,125,o),
(316,178,o),
(213,231,q),
(213,41,l),
(319,6,o),
(501,-29,o),
(584,-29,qs),
(794,-29,o),
(1030,158,o),
(1030,324,qs),
(1030,449,o),
(889,605,o),
(752,631,qs),
(678,645,ls),
(495,680,o),
(403,754,o),
(403,829,qs),
(403,912,o),
(526,993,o),
(651,993,qs),
(734,993,o),
(894,947,o),
(973,901,q),
(973,1081,l),
(893,1114,o)
);
}
);
userData = {
assembly = "NPUSHB[ ]	/* 64 values pushed */
13 12 2 14 11 23 31 30 8 9 2 7 10 23 30 31 30 66 29 30 24 10 11 30 31 4 21 0 139 1 192 4 20 139 21 192 24 140 17 4 140 37 190 17 153 40 29 10 11 31 27 7 0 79 27 6 14 73 7 6 20 34 69 40
SRP0[ ]	/* SetRefPoint0 */
MIRP[10100]	/* MoveIndirectRelPt */
MDRP[00100]	/* MoveDirectRelPt */
MIRP[01100]	/* MoveIndirectRelPt */
MIRP[11100]	/* MoveIndirectRelPt */
MIRP[01100]	/* MoveIndirectRelPt */
MIRP[00100]	/* MoveIndirectRelPt */
SRP1[ ]	/* SetRefPoint1 */
SRP2[ ]	/* SetRefPoint2 */
IP[ ]	/* InterpolatePts */
IP[ ]	/* InterpolatePts */
IP[ ]	/* InterpolatePts */
IP[ ]	/* InterpolatePts */
IUP[1]	/* InterpolateUntPts */
SVTCA[0]	/* SetFreedomAndProjectionVectorToAxis */
SRP0[ ]	/* SetRefPoint0 */
MIRP[00100]	/* MoveIndirectRelPt */
MIRP[10100]	/* MoveIndirectRelPt */
MIRP[01100]	/* MoveIndirectRelPt */
SRP0[ ]	/* SetRefPoint0 */
MIRP[11110]	/* MoveIndirectRelPt */
MIRP[10101]	/* MoveIndirectRelPt */
MIRP[01110]	/* MoveIndirectRelPt */
SRP0[ ]	/* SetRefPoint0 */
MIRP[10101]	/* MoveIndirectRelPt */
MIRP[01110]	/* MoveIndirectRelPt */
SRP2[ ]	/* SetRefPoint2 */
SLOOP[ ]	/* SetLoopVariable */
IP[ ]	/* InterpolatePts */
SRP1[ ]	/* SetRefPoint1 */
SRP2[ ]	/* SetRefPoint2 */
IP[ ]	/* InterpolatePts */
IUP[0]	/* InterpolateUntPts */
MPPEM[ ]	/* MeasurePixelPerEm */
GTEQ[ ]	/* GreaterThanOrEqual */
IF[ ]	/* If */
SPVTL[1]	/* SetPVectorToLine */
SRP0[ ]	/* SetRefPoint0 */
SFVTPV[ ]	/* SetFVectorToPVector */
MIRP[01101]	/* MoveIndirectRelPt */
SRP1[ ]	/* SetRefPoint1 */
SLOOP[ ]	/* SetLoopVariable */
IP[ ]	/* InterpolatePts */
SPVTL[1]	/* SetPVectorToLine */
SFVTPV[ ]	/* SetFVectorToPVector */
MIRP[01101]	/* MoveIndirectRelPt */
SRP1[ ]	/* SetRefPoint1 */
SLOOP[ ]	/* SetLoopVariable */
IP[ ]	/* InterpolatePts */
EIF[ ]	/* EndIf */
CLEAR[ ]	/* ClearStack */";
};
width = 1233;
}
);
note = s;
unicode = 115;
},
{
glyphname = t;
layers = (
{
layerId = m01;
shapes = (
{
closed = 1;
nodes = (
(430,1120,l),
(131,1120,l),
(131,977,l),
(430,977,l),
(430,369,ls),
(430,166,o),
(600,0,o),
(807,0,qs),
(1032,0,l),
(1032,147,l),
(825,147,ls),
(708,147,o),
(614,245,o),
(614,369,qs),
(614,977,l),
(1032,977,l),
(1032,1120,l),
(614,1120,l),
(614,1438,l),
(430,1438,l)
);
}
);
userData = {
assembly = "NPUSHB[ ]	/* 24 values pushed */
14 5 8 15 3 182 0 17 1 194 8 182 10 8 11 9 2 4 0 6 16 18 14 20
SRP0[ ]	/* SetRefPoint0 */
MDRP[10100]	/* MoveDirectRelPt */
ALIGNRP[ ]	/* AlignRelativePt */
MDRP[00100]	/* MoveDirectRelPt */
MIRP[11100]	/* MoveIndirectRelPt */
ALIGNRP[ ]	/* AlignRelativePt */
MDRP[00100]	/* MoveDirectRelPt */
SHP[0]	/* ShiftPointByLastPoint */
IP[ ]	/* InterpolatePts */
IP[ ]	/* InterpolatePts */
IUP[1]	/* InterpolateUntPts */
SVTCA[0]	/* SetFreedomAndProjectionVectorToAxis */
MDAP[1]	/* MoveDirectAbsPt */
MIRP[01100]	/* MoveIndirectRelPt */
MIRP[10100]	/* MoveIndirectRelPt */
ALIGNRP[ ]	/* AlignRelativePt */
MDRP[00100]	/* MoveDirectRelPt */
MIRP[01100]	/* MoveIndirectRelPt */
SHP[0]	/* ShiftPointByLastPoint */
SRP1[ ]	/* SetRefPoint1 */
IP[ ]	/* InterpolatePts */
IP[ ]	/* InterpolatePts */
IUP[0]	/* InterpolateUntPts */";
};
width = 1233;
}
);
note = t;
unicode = 116;
},
{
glyphname = u;
layers = (
{
layerId = m01;
shapes = (
{
closed = 1;
nodes = (
(363,-29,o),
(535,-29,qs),
(648,-29,o),
(817,71,o),
(866,168,q),
(866,0,l),
(1051,0,l),
(1051,1118,l),
(866,1118,l),
(866,485,ls),
(866,314,o),
(728,131,o),
(598,131,qs),
(486,131,o),
(379,273,o),
(379,424,qs),
(379,1118,l),
(195,1118,l),
(195,424,ls),
(195,196,o)
);
}
);
userData = {
assembly = "NPUSHB[ ]	/* 24 values pushed */
9 14 3 0 3 1 6 140 17 153 10 1 194 12 13 9 6 11 74 2 6 0 70 20
SRP0[ ]	/* SetRefPoint0 */
MIRP[10100]	/* MoveIndirectRelPt */
MIRP[01100]	/* MoveIndirectRelPt */
MIRP[11100]	/* MoveIndirectRelPt */
MIRP[01100]	/* MoveIndirectRelPt */
SHP[0]	/* ShiftPointByLastPoint */
IUP[1]	/* InterpolateUntPts */
SVTCA[0]	/* SetFreedomAndProjectionVectorToAxis */
MDAP[1]	/* MoveDirectAbsPt */
MIRP[00100]	/* MoveIndirectRelPt */
SHP[0]	/* ShiftPointByLastPoint */
MIRP[10100]	/* MoveIndirectRelPt */
MIRP[01100]	/* MoveIndirectRelPt */
SRP1[ ]	/* SetRefPoint1 */
SLOOP[ ]	/* SetLoopVariable */
IP[ ]	/* InterpolatePts */
IP[ ]	/* InterpolatePts */
IUP[0]	/* InterpolateUntPts */";
};
width = 1233;
}
);
note = u;
unicode = 117;
},
{
glyphname = v;
layers = (
{
layerId = m01;
shapes = (
{
closed = 1;
nodes = (
(735,0,l),
(1133,1120,l),
(942,1120,l),
(616,180,l),
(291,1120,l),
(100,1120,l),
(498,0,l)
);
}
);
userData = {
assembly = "NPUSHB[ ]	/* 41 values pushed */
3 23 4 5 4 2 23 1 2 5 5 4 2 23 3 2 6 0 6 1 23 0 0 6 66 2 3 0 194 5 6 5 3 2 1 5 4 73 0 69 7
SRP0[ ]	/* SetRefPoint0 */
MIRP[10100]	/* MoveIndirectRelPt */
MIRP[01100]	/* MoveIndirectRelPt */
SLOOP[ ]	/* SetLoopVariable */
IP[ ]	/* InterpolatePts */
IUP[1]	/* InterpolateUntPts */
SVTCA[0]	/* SetFreedomAndProjectionVectorToAxis */
MDAP[1]	/* MoveDirectAbsPt */
MIRP[00100]	/* MoveIndirectRelPt */
SHP[0]	/* ShiftPointByLastPoint */
IP[ ]	/* InterpolatePts */
IUP[0]	/* InterpolateUntPts */
MPPEM[ ]	/* MeasurePixelPerEm */
GTEQ[ ]	/* GreaterThanOrEqual */
IF[ ]	/* If */
SPVTL[1]	/* SetPVectorToLine */
SRP0[ ]	/* SetRefPoint0 */
SFVTCA[1]	/* SetFVectorToAxis */
MIRP[01101]	/* MoveIndirectRelPt */
SPVTL[1]	/* SetPVectorToLine */
SRP0[ ]	/* SetRefPoint0 */
SFVTL[0]	/* SetFVectorToLine */
MIRP[01101]	/* MoveIndirectRelPt */
SPVTL[1]	/* SetPVectorToLine */
SRP0[ ]	/* SetRefPoint0 */
SFVTL[0]	/* SetFVectorToLine */
MIRP[01101]	/* MoveIndirectRelPt */
SPVTL[1]	/* SetPVectorToLine */
SRP0[ ]	/* SetRefPoint0 */
SFVTCA[1]	/* SetFVectorToAxis */
MIRP[01101]	/* MoveIndirectRelPt */
EIF[ ]	/* EndIf */
CLEAR[ ]	/* ClearStack */
PUSHB[ ]	/* 3 values pushed */
39 2 1
SVTCA[0]	/* SetFreedomAndProjectionVectorToAxis */
DELTAP1[ ]	/* DeltaExceptionP1 */
NPUSHB[ ]	/* 14 values pushed */
7 0 7 1 8 3 8 4 4 5 2 37 2 2
DELTAP1[ ]	/* DeltaExceptionP1 */
SVTCA[1]	/* SetFreedomAndProjectionVectorToAxis */
DELTAP1[ ]	/* DeltaExceptionP1 */";
};
width = 1233;
}
);
note = v;
unicode = 118;
},
{
glyphname = w;
layers = (
{
layerId = m01;
shapes = (
{
closed = 1;
nodes = (
(438,0,l),
(616,614,l),
(795,0,l),
(971,0,l),
(1233,1120,l),
(1051,1120,l),
(856,215,l),
(694,793,l),
(537,793,l),
(377,215,l),
(182,1120,l),
(0,1120,l),
(262,0,l)
);
}
);
userData = {
assembly = "NPUSHB[ ]	/* 69 values pushed */
11 2 3 2 10 9 10 3 3 2 10 11 10 4 5 4 9 5 5 4 6 23 7 8 7 5 23 4 5 8 8 7 2 23 3 2 12 0 12 1 23 0 12 66 10 5 2 3 8 3 6 0 194 11 8 12 11 10 9 8 6 5 4 3 2 1 11 7 0
MDAP[1]	/* MoveDirectAbsPt */
MDRP[01100]	/* MoveDirectRelPt */
SLOOP[ ]	/* SetLoopVariable */
IP[ ]	/* InterpolatePts */
IUP[1]	/* InterpolateUntPts */
SVTCA[0]	/* SetFreedomAndProjectionVectorToAxis */
MDAP[1]	/* MoveDirectAbsPt */
ALIGNRP[ ]	/* AlignRelativePt */
MIRP[10100]	/* MoveIndirectRelPt */
ALIGNRP[ ]	/* AlignRelativePt */
MDRP[00100]	/* MoveDirectRelPt */
SRP1[ ]	/* SetRefPoint1 */
SLOOP[ ]	/* SetLoopVariable */
IP[ ]	/* InterpolatePts */
IUP[0]	/* InterpolateUntPts */
MPPEM[ ]	/* MeasurePixelPerEm */
GTEQ[ ]	/* GreaterThanOrEqual */
IF[ ]	/* If */
SPVTL[1]	/* SetPVectorToLine */
SFVTCA[1]	/* SetFVectorToAxis */
MIRP[01101]	/* MoveIndirectRelPt */
SPVTL[1]	/* SetPVectorToLine */
SRP0[ ]	/* SetRefPoint0 */
SFVTL[0]	/* SetFVectorToLine */
MIRP[01101]	/* MoveIndirectRelPt */
SPVTL[1]	/* SetPVectorToLine */
SRP0[ ]	/* SetRefPoint0 */
SFVTL[0]	/* SetFVectorToLine */
MIRP[01101]	/* MoveIndirectRelPt */
SPVTL[1]	/* SetPVectorToLine */
SRP0[ ]	/* SetRefPoint0 */
SFVTCA[1]	/* SetFVectorToAxis */
MIRP[01101]	/* MoveIndirectRelPt */
SPVTL[1]	/* SetPVectorToLine */
SRP0[ ]	/* SetRefPoint0 */
SFVTCA[1]	/* SetFVectorToAxis */
MDRP[01001]	/* MoveDirectRelPt */
SPVTL[1]	/* SetPVectorToLine */
SRP0[ ]	/* SetRefPoint0 */
SFVTL[0]	/* SetFVectorToLine */
MDRP[01001]	/* MoveDirectRelPt */
SPVTL[1]	/* SetPVectorToLine */
SRP0[ ]	/* SetRefPoint0 */
SFVTL[0]	/* SetFVectorToLine */
MDRP[01001]	/* MoveDirectRelPt */
SPVTL[1]	/* SetPVectorToLine */
SRP0[ ]	/* SetRefPoint0 */
SFVTCA[1]	/* SetFVectorToAxis */
MDRP[01001]	/* MoveDirectRelPt */
EIF[ ]	/* EndIf */
CLEAR[ ]	/* ClearStack */
PUSHB[ ]	/* 3 values pushed */
15 10 1
SVTCA[0]	/* SetFreedomAndProjectionVectorToAxis */
DELTAP1[ ]	/* DeltaExceptionP1 */
NPUSHB[ ]	/* 140 values pushed */
11 9 4 11 31 0 31 1 29 2 26 3 28 4 25 5 28 9 27 10 26 11 31 12 38 0 38 1 41 2 38 5 41 6 41 7 35 8 44 12 57 2 54 5 57 6 57 7 51 8 60 12 69 8 73 9 70 11 74 12 86 8 88 9 87 11 89 12 102 2 105 3 102 4 105 5 106 9 101 11 118 2 122 5 120 8 124 9 114 11 45 15 10 25 2 31 3 31 4 25 5 31 10 31 10 43 2 43 5 62 2 62 5 60 10 72 10 89 10 106 2 105 5 104 10 123 2 127 3 121 4 127 4 122 5 124 10 127 10 24
DELTAP1[ ]	/* DeltaExceptionP1 */
SVTCA[1]	/* SetFreedomAndProjectionVectorToAxis */
DELTAP1[ ]	/* DeltaExceptionP1 */";
};
width = 1233;
}
);
note = w;
unicode = 119;
},
{
glyphname = x;
layers = (
{
layerId = m01;
shapes = (
{
closed = 1;
nodes = (
(616,715,l),
(319,1120,l),
(115,1120,l),
(516,584,l),
(76,0,l),
(289,0,l),
(616,449,l),
(944,0,l),
(1157,0,l),
(717,584,l),
(1118,1120,l),
(911,1120,l)
);
}
);
userData = {
assembly = "NPUSHB[ ]	/* 72 values pushed */
5 23 6 7 6 4 23 3 4 7 7 6 4 23 5 4 1 2 1 3 23 2 2 1 11 23 0 1 0 10 23 9 10 1 1 0 10 23 11 10 7 8 7 9 23 8 8 7 66 10 7 4 1 4 8 0 194 5 2 10 7 4 1 4 8 0 2 73 8 6 69 12
SRP0[ ]	/* SetRefPoint0 */
MIRP[10100]	/* MoveIndirectRelPt */
MDRP[00100]	/* MoveDirectRelPt */
MIRP[11100]	/* MoveIndirectRelPt */
MDRP[00100]	/* MoveDirectRelPt */
SRP1[ ]	/* SetRefPoint1 */
SLOOP[ ]	/* SetLoopVariable */
IP[ ]	/* InterpolatePts */
IUP[1]	/* InterpolateUntPts */
SVTCA[0]	/* SetFreedomAndProjectionVectorToAxis */
MDAP[1]	/* MoveDirectAbsPt */
ALIGNRP[ ]	/* AlignRelativePt */
MIRP[00100]	/* MoveIndirectRelPt */
SHP[0]	/* ShiftPointByLastPoint */
SLOOP[ ]	/* SetLoopVariable */
IP[ ]	/* InterpolatePts */
IUP[0]	/* InterpolateUntPts */
MPPEM[ ]	/* MeasurePixelPerEm */
GTEQ[ ]	/* GreaterThanOrEqual */
IF[ ]	/* If */
SPVTL[1]	/* SetPVectorToLine */
SRP0[ ]	/* SetRefPoint0 */
SFVTCA[1]	/* SetFVectorToAxis */
MIRP[01101]	/* MoveIndirectRelPt */
SPVTL[1]	/* SetPVectorToLine */
SRP0[ ]	/* SetRefPoint0 */
SFVTL[0]	/* SetFVectorToLine */
MIRP[01101]	/* MoveIndirectRelPt */
SPVTL[1]	/* SetPVectorToLine */
SRP0[ ]	/* SetRefPoint0 */
SFVTL[0]	/* SetFVectorToLine */
MIRP[01101]	/* MoveIndirectRelPt */
SPVTL[1]	/* SetPVectorToLine */
SRP0[ ]	/* SetRefPoint0 */
SFVTCA[1]	/* SetFVectorToAxis */
MIRP[01101]	/* MoveIndirectRelPt */
SPVTL[1]	/* SetPVectorToLine */
SRP0[ ]	/* SetRefPoint0 */
SFVTCA[1]	/* SetFVectorToAxis */
MIRP[01101]	/* MoveIndirectRelPt */
SPVTL[1]	/* SetPVectorToLine */
SRP0[ ]	/* SetRefPoint0 */
SFVTL[0]	/* SetFVectorToLine */
MIRP[01101]	/* MoveIndirectRelPt */
SPVTL[1]	/* SetPVectorToLine */
SRP0[ ]	/* SetRefPoint0 */
SFVTL[0]	/* SetFVectorToLine */
MIRP[01101]	/* MoveIndirectRelPt */
SPVTL[1]	/* SetPVectorToLine */
SRP0[ ]	/* SetRefPoint0 */
SFVTCA[1]	/* SetFVectorToAxis */
MIRP[01101]	/* MoveIndirectRelPt */
EIF[ ]	/* EndIf */
CLEAR[ ]	/* ClearStack */
PUSHB[ ]	/* 3 values pushed */
7 10 1
SVTCA[0]	/* SetFreedomAndProjectionVectorToAxis */
DELTAP1[ ]	/* DeltaExceptionP1 */
NPUSHB[ ]	/* 30 values pushed */
9 1 6 7 102 1 105 7 118 1 121 7 6 7 1 7 7 6 10 21 10 58 4 52 10 90 4 86 10 8
DELTAP1[ ]	/* DeltaExceptionP1 */
SVTCA[1]	/* SetFreedomAndProjectionVectorToAxis */
DELTAP1[ ]	/* DeltaExceptionP1 */";
};
width = 1233;
}
);
note = x;
unicode = 120;
},
{
glyphname = y;
layers = (
{
layerId = m01;
shapes = (
{
closed = 1;
nodes = (
(958,1120,l),
(631,244,l),
(299,1120,l),
(104,1120,l),
(537,18,l),
(466,-178,o),
(374,-272,o),
(293,-272,qs),
(184,-272,l),
(184,-426,l),
(332,-426,ls),
(424,-426,o),
(562,-348,o),
(608,-270,qs),
(642,-212,o),
(741,52,qs),
(812,243,o),
(858,360,qs),
(1153,1120,l)
);
}
);
userData = {
assembly = "NPUSHB[ ]	/* 69 values pushed */
13 23 14 13 2 3 2 10 11 2 9 12 23 3 3 2 17 23 18 0 18 16 23 15 16 0 0 18 16 23 17 16 13 14 13 15 23 14 14 13 66 16 19 13 0 14 9 140 7 195 17 14 194 19 17 16 15 13 10 7 0 7 18 8 18 73 14 69 19
SRP0[ ]	/* SetRefPoint0 */
MIRP[10100]	/* MoveIndirectRelPt */
MIRP[01100]	/* MoveIndirectRelPt */
MDRP[00100]	/* MoveDirectRelPt */
SRP1[ ]	/* SetRefPoint1 */
SLOOP[ ]	/* SetLoopVariable */
IP[ ]	/* InterpolatePts */
IUP[1]	/* InterpolateUntPts */
SVTCA[0]	/* SetFreedomAndProjectionVectorToAxis */
SRP0[ ]	/* SetRefPoint0 */
MIRP[00100]	/* MoveIndirectRelPt */
SHP[0]	/* ShiftPointByLastPoint */
MIRP[10100]	/* MoveIndirectRelPt */
MIRP[01100]	/* MoveIndirectRelPt */
SRP1[ ]	/* SetRefPoint1 */
IP[ ]	/* InterpolatePts */
IP[ ]	/* InterpolatePts */
SRP2[ ]	/* SetRefPoint2 */
IP[ ]	/* InterpolatePts */
IUP[0]	/* InterpolateUntPts */
MPPEM[ ]	/* MeasurePixelPerEm */
GTEQ[ ]	/* GreaterThanOrEqual */
IF[ ]	/* If */
SPVTL[1]	/* SetPVectorToLine */
SRP0[ ]	/* SetRefPoint0 */
SFVTCA[1]	/* SetFVectorToAxis */
MIRP[01101]	/* MoveIndirectRelPt */
SPVTL[1]	/* SetPVectorToLine */
SRP0[ ]	/* SetRefPoint0 */
SFVTL[0]	/* SetFVectorToLine */
MIRP[01101]	/* MoveIndirectRelPt */
SPVTL[1]	/* SetPVectorToLine */
SRP0[ ]	/* SetRefPoint0 */
SFVTL[0]	/* SetFVectorToLine */
MIRP[01101]	/* MoveIndirectRelPt */
SPVTL[1]	/* SetPVectorToLine */
SRP0[ ]	/* SetRefPoint0 */
SFVTCA[1]	/* SetFVectorToAxis */
MIRP[01101]	/* MoveIndirectRelPt */
SPVTL[1]	/* SetPVectorToLine */
SRP0[ ]	/* SetRefPoint0 */
SFVTCA[1]	/* SetFVectorToAxis */
MIRP[01101]	/* MoveIndirectRelPt */
SRP1[ ]	/* SetRefPoint1 */
SLOOP[ ]	/* SetLoopVariable */
IP[ ]	/* InterpolatePts */
SPVTL[1]	/* SetPVectorToLine */
SRP0[ ]	/* SetRefPoint0 */
SFVTL[0]	/* SetFVectorToLine */
MIRP[01101]	/* MoveIndirectRelPt */
EIF[ ]	/* EndIf */
CLEAR[ ]	/* ClearStack */
PUSHB[ ]	/* 3 values pushed */
56 18 1
SVTCA[1]	/* SetFreedomAndProjectionVectorToAxis */
DELTAP1[ ]	/* DeltaExceptionP1 */
NPUSHB[ ]	/* 26 values pushed */
4 16 118 16 2 8 17 8 18 25 12 25 13 38 14 38 15 56 17 73 17 73 18 89 13 10
DELTAP1[ ]	/* DeltaExceptionP1 */
SVTCA[0]	/* SetFreedomAndProjectionVectorToAxis */
DELTAP1[ ]	/* DeltaExceptionP1 */";
};
width = 1233;
}
);
note = y;
unicode = 121;
},
{
glyphname = z;
layers = (
{
layerId = m01;
shapes = (
{
closed = 1;
nodes = (
(846,975,l),
(203,170,l),
(203,0,l),
(1040,0,l),
(1040,150,l),
(397,150,l),
(1040,954,l),
(1040,1122,l),
(227,1122,l),
(227,975,l)
);
}
);
userData = {
assembly = "NPUSHB[ ]	/* 28 values pushed */
3 23 7 8 7 8 23 2 3 2 66 8 182 0 194 3 182 5 8 3 0 4 1 73 0 6 69 10
SRP0[ ]	/* SetRefPoint0 */
MIRP[10100]	/* MoveIndirectRelPt */
MDRP[00100]	/* MoveDirectRelPt */
MIRP[01100]	/* MoveIndirectRelPt */
SHP[0]	/* ShiftPointByLastPoint */
SRP1[ ]	/* SetRefPoint1 */
IP[ ]	/* InterpolatePts */
IP[ ]	/* InterpolatePts */
IUP[1]	/* InterpolateUntPts */
SVTCA[0]	/* SetFreedomAndProjectionVectorToAxis */
MDAP[1]	/* MoveDirectAbsPt */
MIRP[01100]	/* MoveIndirectRelPt */
MIRP[10100]	/* MoveIndirectRelPt */
MIRP[01100]	/* MoveIndirectRelPt */
IUP[0]	/* InterpolateUntPts */
MPPEM[ ]	/* MeasurePixelPerEm */
GTEQ[ ]	/* GreaterThanOrEqual */
IF[ ]	/* If */
SPVTL[1]	/* SetPVectorToLine */
SRP0[ ]	/* SetRefPoint0 */
SFVTCA[1]	/* SetFVectorToAxis */
MIRP[01101]	/* MoveIndirectRelPt */
SPVTL[1]	/* SetPVectorToLine */
SRP0[ ]	/* SetRefPoint0 */
SFVTCA[1]	/* SetFVectorToAxis */
MIRP[01101]	/* MoveIndirectRelPt */
EIF[ ]	/* EndIf */
CLEAR[ ]	/* ClearStack */
PUSHB[ ]	/* 3 values pushed */
56 8 1
SVTCA[1]	/* SetFreedomAndProjectionVectorToAxis */
DELTAP1[ ]	/* DeltaExceptionP1 */
NPUSHB[ ]	/* 21 values pushed */
54 3 56 8 69 3 74 8 87 3 88 8 101 3 106 8 117 3 122 8 10
DELTAP1[ ]	/* DeltaExceptionP1 */";
};
width = 1233;
}
);
note = z;
unicode = 122;
},
{
glyphname = braceleft;
layers = (
{
layerId = m01;
shapes = (
{
closed = 1;
nodes = (
(802,-190,o),
(717,-104,o),
(717,39,qs),
(717,287,ls),
(717,443,o),
(627,585,o),
(516,612,q),
(626,637,o),
(717,779,o),
(717,936,qs),
(717,1184,ls),
(717,1326,o),
(802,1413,o),
(942,1413,qs),
(1012,1413,l),
(1012,1556,l),
(948,1556,ls),
(699,1556,o),
(530,1409,o),
(530,1188,qs),
(530,948,ls),
(530,798,o),
(424,684,o),
(283,684,qs),
(221,684,l),
(221,541,l),
(283,541,ls),
(423,541,o),
(530,425,o),
(530,274,qs),
(530,35,ls),
(530,-186,o),
(699,-334,o),
(948,-334,qs),
(1012,-334,l),
(1012,-190,l),
(942,-190,ls)
);
}
);
userData = {
assembly = "NPUSHB[ ]	/* 53 values pushed */
25 15 21 11 6 37 9 26 16 21 29 11 5 32 33 3 0 11 182 9 0 182 1 198 9 199 21 182 19 181 37 12 9 10 5 36 22 25 0 29 10 5 19 2 20 0 32 25 61 10 15 5 37
SRP0[ ]	/* SetRefPoint0 */
MDRP[10100]	/* MoveDirectRelPt */
ALIGNRP[ ]	/* AlignRelativePt */
MDRP[00100]	/* MoveDirectRelPt */
MIRP[11100]	/* MoveIndirectRelPt */
ALIGNRP[ ]	/* AlignRelativePt */
MDRP[00100]	/* MoveDirectRelPt */
SHP[0]	/* ShiftPointByLastPoint */
IP[ ]	/* InterpolatePts */
IP[ ]	/* InterpolatePts */
SRP1[ ]	/* SetRefPoint1 */
SRP2[ ]	/* SetRefPoint2 */
IP[ ]	/* InterpolatePts */
SRP1[ ]	/* SetRefPoint1 */
SRP2[ ]	/* SetRefPoint2 */
IP[ ]	/* InterpolatePts */
IP[ ]	/* InterpolatePts */
SRP1[ ]	/* SetRefPoint1 */
SRP2[ ]	/* SetRefPoint2 */
IP[ ]	/* InterpolatePts */
IP[ ]	/* InterpolatePts */
IUP[1]	/* InterpolateUntPts */
SVTCA[0]	/* SetFreedomAndProjectionVectorToAxis */
SRP0[ ]	/* SetRefPoint0 */
MIRP[11100]	/* MoveIndirectRelPt */
MIRP[01100]	/* MoveIndirectRelPt */
MIRP[00100]	/* MoveIndirectRelPt */
MIRP[10100]	/* MoveIndirectRelPt */
MIRP[01100]	/* MoveIndirectRelPt */
SRP0[ ]	/* SetRefPoint0 */
MIRP[01110]	/* MoveIndirectRelPt */
SRP2[ ]	/* SetRefPoint2 */
SLOOP[ ]	/* SetLoopVariable */
IP[ ]	/* InterpolatePts */
SRP2[ ]	/* SetRefPoint2 */
IP[ ]	/* InterpolatePts */
SRP1[ ]	/* SetRefPoint1 */
IP[ ]	/* InterpolatePts */
IP[ ]	/* InterpolatePts */
SRP1[ ]	/* SetRefPoint1 */
SRP2[ ]	/* SetRefPoint2 */
IP[ ]	/* InterpolatePts */
SRP1[ ]	/* SetRefPoint1 */
SRP2[ ]	/* SetRefPoint2 */
IP[ ]	/* InterpolatePts */
IP[ ]	/* InterpolatePts */
IUP[0]	/* InterpolateUntPts */";
};
width = 1233;
}
);
note = braceleft;
unicode = 123;
},
{
glyphname = bar;
layers = (
{
layerId = m01;
shapes = (
{
closed = 1;
nodes = (
(530,-483,l),
(702,-483,l),
(702,1565,l),
(530,1565,l)
);
}
);
userData = {
assembly = "PUSHB[ ]	/* 8 values pushed */
1 0 181 4 0 4 2 4
SRP0[ ]	/* SetRefPoint0 */
MDRP[10100]	/* MoveDirectRelPt */
MIRP[01100]	/* MoveIndirectRelPt */
IUP[1]	/* InterpolateUntPts */
SVTCA[0]	/* SetFreedomAndProjectionVectorToAxis */
SRP0[ ]	/* SetRefPoint0 */
MIRP[11100]	/* MoveIndirectRelPt */
MDRP[01100]	/* MoveDirectRelPt */
IUP[0]	/* InterpolateUntPts */";
};
width = 1233;
}
);
note = bar;
unicode = 124;
},
{
glyphname = braceright;
layers = (
{
layerId = m01;
shapes = (
{
closed = 1;
nodes = (
(283,-334,ls),
(532,-334,o),
(700,-186,o),
(700,35,qs),
(700,274,ls),
(700,425,o),
(807,541,o),
(948,541,qs),
(1012,541,l),
(1012,684,l),
(948,684,ls),
(807,684,o),
(700,798,o),
(700,948,qs),
(700,1188,ls),
(700,1409,o),
(532,1556,o),
(283,1556,qs),
(221,1556,l),
(221,1413,l),
(289,1413,ls),
(430,1413,o),
(516,1325,o),
(516,1184,qs),
(516,936,ls),
(516,779,o),
(607,637,o),
(717,612,q),
(606,585,o),
(516,443,o),
(516,287,qs),
(516,39,ls),
(516,-102,o),
(430,-190,o),
(289,-190,qs),
(221,-190,l),
(221,-334,l)
);
}
);
userData = {
assembly = "NPUSHB[ ]	/* 55 values pushed */
31 37 27 22 12 15 8 27 11 21 25 15 4 5 32 3 0 25 182 27 0 182 35 198 27 199 15 182 17 181 37 28 25 26 21 15 1 4 0 8 26 21 35 18 4 0 26 31 21 61 16 0 11 4 37
SRP0[ ]	/* SetRefPoint0 */
MDRP[10100]	/* MoveDirectRelPt */
ALIGNRP[ ]	/* AlignRelativePt */
MDRP[00100]	/* MoveDirectRelPt */
SHP[0]	/* ShiftPointByLastPoint */
MIRP[11100]	/* MoveIndirectRelPt */
ALIGNRP[ ]	/* AlignRelativePt */
MDRP[00100]	/* MoveDirectRelPt */
SRP1[ ]	/* SetRefPoint1 */
SRP2[ ]	/* SetRefPoint2 */
IP[ ]	/* InterpolatePts */
IP[ ]	/* InterpolatePts */
SRP1[ ]	/* SetRefPoint1 */
SRP2[ ]	/* SetRefPoint2 */
IP[ ]	/* InterpolatePts */
SRP1[ ]	/* SetRefPoint1 */
SRP2[ ]	/* SetRefPoint2 */
IP[ ]	/* InterpolatePts */
IP[ ]	/* InterpolatePts */
SRP1[ ]	/* SetRefPoint1 */
SRP2[ ]	/* SetRefPoint2 */
IP[ ]	/* InterpolatePts */
IP[ ]	/* InterpolatePts */
IUP[1]	/* InterpolateUntPts */
SVTCA[0]	/* SetFreedomAndProjectionVectorToAxis */
SRP0[ ]	/* SetRefPoint0 */
MIRP[11100]	/* MoveIndirectRelPt */
MIRP[01100]	/* MoveIndirectRelPt */
MIRP[00100]	/* MoveIndirectRelPt */
MIRP[10100]	/* MoveIndirectRelPt */
MIRP[01100]	/* MoveIndirectRelPt */
SRP0[ ]	/* SetRefPoint0 */
MIRP[01110]	/* MoveIndirectRelPt */
SRP2[ ]	/* SetRefPoint2 */
SLOOP[ ]	/* SetLoopVariable */
IP[ ]	/* InterpolatePts */
SRP1[ ]	/* SetRefPoint1 */
SRP2[ ]	/* SetRefPoint2 */
IP[ ]	/* InterpolatePts */
IP[ ]	/* InterpolatePts */
SRP1[ ]	/* SetRefPoint1 */
IP[ ]	/* InterpolatePts */
SRP1[ ]	/* SetRefPoint1 */
IP[ ]	/* InterpolatePts */
IP[ ]	/* InterpolatePts */
SRP1[ ]	/* SetRefPoint1 */
SRP2[ ]	/* SetRefPoint2 */
IP[ ]	/* InterpolatePts */
IUP[0]	/* InterpolateUntPts */";
};
width = 1233;
}
);
note = braceright;
unicode = 125;
},
{
glyphname = asciitilde;
lastChange = "2026-05-14 14:44:17 +0000";
layers = (
{
layerId = m01;
shapes = (
{
closed = 1;
nodes = (
(934,663,o),
(864,663,qs),
(771,663,o),
(655,718,qs),
(634,728,o),
(622,733,qs),
(548,764,o),
(448,786,o),
(395,786,qs),
(312,786,o),
(166,732,o),
(88,672,q),
(88,498,l),
(161,561,o),
(302,620,o),
(381,620,qs),
(432,620,o),
(535,596,o),
(612,563,qs),
(623,559,o),
(645,549,qs),
(758,498,o),
(848,498,qs),
(927,498,o),
(1070,553,o),
(1145,612,q),
(1145,786,l),
(1071,724,o)
);
}
);
userData = {
assembly = "NPUSHB[ ]	/* 18 values pushed */
1 11 4 15 0 14 4 160 25 18 0 160 11 28 0 14 39 28
SRP0[ ]	/* SetRefPoint0 */
MIRP[11100]	/* MoveIndirectRelPt */
MDRP[00100]	/* MoveDirectRelPt */
IUP[1]	/* InterpolateUntPts */
SVTCA[0]	/* SetFreedomAndProjectionVectorToAxis */
SRP0[ ]	/* SetRefPoint0 */
MDRP[10100]	/* MoveDirectRelPt */
MIRP[11100]	/* MoveIndirectRelPt */
ALIGNRP[ ]	/* AlignRelativePt */
MDRP[10100]	/* MoveDirectRelPt */
MIRP[01100]	/* MoveIndirectRelPt */
SHP[0]	/* ShiftPointByLastPoint */
SRP2[ ]	/* SetRefPoint2 */
IP[ ]	/* InterpolatePts */
SRP1[ ]	/* SetRefPoint1 */
SRP2[ ]	/* SetRefPoint2 */
IP[ ]	/* InterpolatePts */
IUP[0]	/* InterpolateUntPts */";
};
width = 1233;
}
);
note = asciitilde;
unicode = 126;
},
{
glyphname = Aring;
layers = (
{
layerId = m01;
shapes = (
{
closed = 1;
nodes = (
(679,1475,o),
(616,1475,qs),
(553,1475,o),
(465,1563,o),
(465,1626,qs),
(465,1691,o),
(552,1778,o),
(616,1778,qs),
(679,1778,o),
(768,1689,o),
(768,1626,qs),
(768,1563,o)
);
},
{
closed = 1;
nodes = (
(403,551,l),
(616,1311,l),
(829,551,l)
);
},
{
closed = 1;
nodes = (
(246,0,l),
(354,389,l),
(877,389,l),
(987,0,l),
(1196,0,l),
(768,1399,l),
(827,1435,o),
(891,1553,o),
(891,1626,qs),
(891,1740,o),
(730,1901,o),
(616,1901,qs),
(502,1901,o),
(342,1740,o),
(342,1626,qs),
(342,1553,o),
(407,1432,o),
(465,1399,q),
(37,0,l)
);
}
);
userData = {
assembly = "NPUSHB[ ]	/* 87 values pushed */
12 37 13 12 27 28 27 14 37 28 27 30 37 28 27 29 37 28 28 27 32 37 15 33 31 37 15 33 13 37 33 15 33 12 37 14 12 15 15 33 66 12 27 15 9 30 151 13 3 200 21 9 144 13 201 32 28 29 28 24 32 33 31 13 18 6 30 14 24 12 6 27 0 80 24 15 6 80 18 24 75 28 47 18 75 33 34
SRP0[ ]	/* SetRefPoint0 */
MDRP[11100]	/* MoveDirectRelPt */
MIRP[00100]	/* MoveIndirectRelPt */
MIRP[11100]	/* MoveIndirectRelPt */
MIRP[00100]	/* MoveIndirectRelPt */
SRP0[ ]	/* SetRefPoint0 */
MIRP[01110]	/* MoveIndirectRelPt */
SHP[0]	/* ShiftPointByLastPoint */
SRP0[ ]	/* SetRefPoint0 */
MIRP[01110]	/* MoveIndirectRelPt */
SHP[0]	/* ShiftPointByLastPoint */
SRP1[ ]	/* SetRefPoint1 */
IP[ ]	/* InterpolatePts */
SRP1[ ]	/* SetRefPoint1 */
IP[ ]	/* InterpolatePts */
IP[ ]	/* InterpolatePts */
SRP1[ ]	/* SetRefPoint1 */
SRP2[ ]	/* SetRefPoint2 */
IP[ ]	/* InterpolatePts */
IP[ ]	/* InterpolatePts */
SRP1[ ]	/* SetRefPoint1 */
IP[ ]	/* InterpolatePts */
SRP1[ ]	/* SetRefPoint1 */
SRP2[ ]	/* SetRefPoint2 */
IP[ ]	/* InterpolatePts */
IUP[1]	/* InterpolateUntPts */
SVTCA[0]	/* SetFreedomAndProjectionVectorToAxis */
MDAP[1]	/* MoveDirectAbsPt */
ALIGNRP[ ]	/* AlignRelativePt */
MIRP[00110]	/* MoveIndirectRelPt */
MIRP[00110]	/* MoveIndirectRelPt */
MDRP[10110]	/* MoveDirectRelPt */
MIRP[01110]	/* MoveIndirectRelPt */
SRP0[ ]	/* SetRefPoint0 */
MIRP[01110]	/* MoveIndirectRelPt */
SRP2[ ]	/* SetRefPoint2 */
IP[ ]	/* InterpolatePts */
IP[ ]	/* InterpolatePts */
IP[ ]	/* InterpolatePts */
IUP[0]	/* InterpolateUntPts */
MPPEM[ ]	/* MeasurePixelPerEm */
GTEQ[ ]	/* GreaterThanOrEqual */
IF[ ]	/* If */
SPVTL[1]	/* SetPVectorToLine */
SRP0[ ]	/* SetRefPoint0 */
SFVTL[0]	/* SetFVectorToLine */
MIRP[01101]	/* MoveIndirectRelPt */
SPVTL[1]	/* SetPVectorToLine */
SRP0[ ]	/* SetRefPoint0 */
SFVTCA[1]	/* SetFVectorToAxis */
MIRP[01101]	/* MoveIndirectRelPt */
SPVTL[1]	/* SetPVectorToLine */
SFVTCA[1]	/* SetFVectorToAxis */
MIRP[01101]	/* MoveIndirectRelPt */
SPVTL[1]	/* SetPVectorToLine */
SFVTCA[1]	/* SetFVectorToAxis */
MIRP[01101]	/* MoveIndirectRelPt */
SPVTL[1]	/* SetPVectorToLine */
SRP0[ ]	/* SetRefPoint0 */
SFVTCA[1]	/* SetFVectorToAxis */
MIRP[01101]	/* MoveIndirectRelPt */
SPVTL[1]	/* SetPVectorToLine */
SFVTCA[1]	/* SetFVectorToAxis */
MIRP[01101]	/* MoveIndirectRelPt */
SPVTL[1]	/* SetPVectorToLine */
SFVTCA[1]	/* SetFVectorToAxis */
MIRP[01101]	/* MoveIndirectRelPt */
SPVTL[1]	/* SetPVectorToLine */
SRP0[ ]	/* SetRefPoint0 */
SFVTL[0]	/* SetFVectorToLine */
MIRP[01101]	/* MoveIndirectRelPt */
EIF[ ]	/* EndIf */
CLEAR[ ]	/* ClearStack */
PUSHB[ ]	/* 3 values pushed */
128 31 1
SVTCA[0]	/* SetFreedomAndProjectionVectorToAxis */
DELTAP1[ ]	/* DeltaExceptionP1 */
NPUSHB[ ]	/* 20 values pushed */
133 13 138 14 138 30 133 31 4 143 12 143 12 128 13 128 14 128 30 5
DELTAP1[ ]	/* DeltaExceptionP1 */
SVTCA[1]	/* SetFreedomAndProjectionVectorToAxis */
DELTAP1[ ]	/* DeltaExceptionP1 */";
};
width = 1233;
}
);
note = Aring;
unicode = 197;
},
{
glyphname = dagger;
layers = (
{
layerId = m01;
shapes = (
{
closed = 1;
nodes = (
(162,1073,l),
(162,920,l),
(528,920,l),
(528,-197,l),
(705,-197,l),
(705,920,l),
(1071,920,l),
(1071,1073,l),
(705,1073,l),
(705,1493,l),
(528,1493,l),
(528,1073,l)
);
}
);
userData = {
assembly = "NPUSHB[ ]	/* 20 values pushed */
8 4 203 10 2 0 136 6 202 12 3 82 5 1 81 9 82 7 0 12
SRP0[ ]	/* SetRefPoint0 */
MDRP[10100]	/* MoveDirectRelPt */
ALIGNRP[ ]	/* AlignRelativePt */
MIRP[01100]	/* MoveIndirectRelPt */
MIRP[11100]	/* MoveIndirectRelPt */
ALIGNRP[ ]	/* AlignRelativePt */
MIRP[01100]	/* MoveIndirectRelPt */
IUP[1]	/* InterpolateUntPts */
SVTCA[0]	/* SetFreedomAndProjectionVectorToAxis */
SRP0[ ]	/* SetRefPoint0 */
MIRP[00100]	/* MoveIndirectRelPt */
MIRP[10100]	/* MoveIndirectRelPt */
MDRP[10100]	/* MoveDirectRelPt */
ALIGNRP[ ]	/* AlignRelativePt */
MIRP[01100]	/* MoveIndirectRelPt */
SHP[0]	/* ShiftPointByLastPoint */
IUP[0]	/* InterpolateUntPts */";
};
width = 1233;
}
);
note = dagger;
unicode = 8224;
},
{
glyphname = degree;
layers = (
{
layerId = m01;
shapes = (
{
closed = 1;
nodes = (
(299,1334,o),
(299,1200,qs),
(299,1065,o),
(479,885,o),
(614,885,qs),
(748,885,o),
(934,1068,o),
(934,1200,qs),
(934,1266,o),
(887,1380,o),
(842,1425,qs),
(798,1471,o),
(681,1520,o),
(616,1520,qs),
(483,1520,o)
);
},
{
closed = 1;
nodes = (
(807,1279,o),
(807,1200,qs),
(807,1122,o),
(694,1012,o),
(614,1012,qs),
(535,1012,o),
(426,1120,o),
(426,1200,qs),
(426,1280,o),
(537,1391,o),
(616,1391,qs),
(695,1391,o)
);
}
);
userData = {
assembly = "NPUSHB[ ]	/* 17 values pushed */
21 204 9 205 15 204 0 150 27 24 83 6 84 18 83 12 27
SRP0[ ]	/* SetRefPoint0 */
MDRP[10100]	/* MoveDirectRelPt */
MIRP[01100]	/* MoveIndirectRelPt */
MIRP[11100]	/* MoveIndirectRelPt */
MIRP[01100]	/* MoveIndirectRelPt */
IUP[1]	/* InterpolateUntPts */
SVTCA[0]	/* SetFreedomAndProjectionVectorToAxis */
SRP0[ ]	/* SetRefPoint0 */
MIRP[10100]	/* MoveIndirectRelPt */
MIRP[01100]	/* MoveIndirectRelPt */
MIRP[11100]	/* MoveIndirectRelPt */
MIRP[01100]	/* MoveIndirectRelPt */
IUP[0]	/* InterpolateUntPts */";
};
width = 1233;
}
);
note = degree;
unicode = 176;
},
{
glyphname = cent;
layers = (
{
layerId = m01;
shapes = (
{
closed = 1;
nodes = (
(858,1142,o),
(801,1145,q),
(801,1432,l),
(698,1432,l),
(698,1145,l),
(476,1126,o),
(213,809,o),
(213,559,qs),
(213,308,o),
(473,-5,o),
(698,-27,q),
(698,-313,l),
(801,-313,l),
(801,-27,l),
(858,-24,o),
(988,10,o),
(1061,41,q),
(1061,213,l),
(995,173,o),
(864,128,o),
(801,123,q),
(801,993,l),
(864,989,o),
(994,945,o),
(1061,905,q),
(1061,1077,l),
(988,1108,o)
);
},
{
closed = 1;
nodes = (
(406,375,o),
(406,559,qs),
(406,743,o),
(566,979,o),
(698,991,q),
(698,127,l),
(566,140,o)
);
}
);
userData = {
assembly = "NPUSHB[ ]	/* 42 values pushed */
27 8 5 4 28 0 139 1 141 28 9 139 8 141 5 203 12 28 203 22 24 21 190 15 12 153 13 34 27 21 14 7 23 12 4 8 0 31 30 18 69 34
SRP0[ ]	/* SetRefPoint0 */
MIRP[10100]	/* MoveIndirectRelPt */
MIRP[01100]	/* MoveIndirectRelPt */
MDRP[10100]	/* MoveDirectRelPt */
ALIGNRP[ ]	/* AlignRelativePt */
MDRP[10100]	/* MoveDirectRelPt */
ALIGNRP[ ]	/* AlignRelativePt */
ALIGNRP[ ]	/* AlignRelativePt */
MIRP[01100]	/* MoveIndirectRelPt */
SHP[0]	/* ShiftPointByLastPoint */
SHP[0]	/* ShiftPointByLastPoint */
IUP[1]	/* InterpolateUntPts */
SVTCA[0]	/* SetFreedomAndProjectionVectorToAxis */
SRP0[ ]	/* SetRefPoint0 */
MDRP[00100]	/* MoveDirectRelPt */
MIRP[00100]	/* MoveIndirectRelPt */
SHP[0]	/* ShiftPointByLastPoint */
MIRP[10100]	/* MoveIndirectRelPt */
ALIGNRP[ ]	/* AlignRelativePt */
MDRP[00100]	/* MoveDirectRelPt */
MIRP[01100]	/* MoveIndirectRelPt */
SRP0[ ]	/* SetRefPoint0 */
MIRP[11110]	/* MoveIndirectRelPt */
MIRP[10100]	/* MoveIndirectRelPt */
MIRP[01110]	/* MoveIndirectRelPt */
SRP0[ ]	/* SetRefPoint0 */
MIRP[10101]	/* MoveIndirectRelPt */
MIRP[01110]	/* MoveIndirectRelPt */
SRP1[ ]	/* SetRefPoint1 */
IP[ ]	/* InterpolatePts */
SRP1[ ]	/* SetRefPoint1 */
SRP2[ ]	/* SetRefPoint2 */
IP[ ]	/* InterpolatePts */
IUP[0]	/* InterpolateUntPts */";
};
width = 1233;
}
);
note = cent;
unicode = 162;
},
{
glyphname = sterling;
layers = (
{
layerId = m01;
shapes = (
{
closed = 1;
nodes = (
(882,1520,o),
(817,1520,qs),
(594,1520,o),
(375,1270,o),
(375,1016,qs),
(375,778,l),
(176,778,l),
(176,635,l),
(375,635,l),
(375,170,l),
(139,170,l),
(139,0,l),
(1112,0,l),
(1112,170,l),
(575,170,l),
(575,635,l),
(946,635,l),
(946,778,l),
(575,778,l),
(575,995,ls),
(575,1187,o),
(702,1366,o),
(836,1366,qs),
(903,1366,o),
(1030,1322,o),
(1092,1278,q),
(1092,1462,l),
(1019,1491,o)
);
}
);
userData = {
assembly = "NPUSHB[ ]	/* 32 values pushed */
7 22 1 18 10 182 20 8 12 1 139 0 167 4 151 25 150 16 12 151 14 0 13 9 11 7 30 15 19 21 17 28
SRP0[ ]	/* SetRefPoint0 */
MDRP[10100]	/* MoveDirectRelPt */
ALIGNRP[ ]	/* AlignRelativePt */
MDRP[00100]	/* MoveDirectRelPt */
MDRP[00100]	/* MoveDirectRelPt */
MIRP[11100]	/* MoveIndirectRelPt */
ALIGNRP[ ]	/* AlignRelativePt */
MDRP[00100]	/* MoveDirectRelPt */
MDRP[10100]	/* MoveDirectRelPt */
MDRP[00100]	/* MoveDirectRelPt */
IUP[1]	/* InterpolateUntPts */
SVTCA[0]	/* SetFreedomAndProjectionVectorToAxis */
MDAP[1]	/* MoveDirectAbsPt */
MIRP[01100]	/* MoveIndirectRelPt */
SHP[0]	/* ShiftPointByLastPoint */
MIRP[10100]	/* MoveIndirectRelPt */
MIRP[01100]	/* MoveIndirectRelPt */
MIRP[10100]	/* MoveIndirectRelPt */
MIRP[01100]	/* MoveIndirectRelPt */
SRP0[ ]	/* SetRefPoint0 */
MDRP[10100]	/* MoveDirectRelPt */
ALIGNRP[ ]	/* AlignRelativePt */
MIRP[01110]	/* MoveIndirectRelPt */
SHP[0]	/* ShiftPointByLastPoint */
SRP2[ ]	/* SetRefPoint2 */
IP[ ]	/* InterpolatePts */
IP[ ]	/* InterpolatePts */
IUP[0]	/* InterpolateUntPts */";
};
width = 1233;
}
);
note = sterling;
unicode = 163;
},
{
glyphname = section;
layers = (
{
layerId = m01;
shapes = (
{
closed = 1;
nodes = (
(703,1520,o),
(631,1520,qs),
(464,1520,o),
(264,1361,o),
(264,1231,qs),
(264,1162,o),
(323,1050,o),
(383,1006,q),
(292,957,o),
(199,814,o),
(199,723,qs),
(199,621,o),
(327,468,o),
(541,348,qs),
(565,334,ls),
(786,211,o),
(786,109,qs),
(786,33,o),
(673,-51,o),
(571,-51,qs),
(514,-51,o),
(366,-12,o),
(279,27,q),
(279,-137,l),
(366,-166,o),
(521,-195,o),
(594,-195,qs),
(767,-195,o),
(971,-27,o),
(971,115,qs),
(971,179,o),
(913,288,o),
(852,340,q),
(945,393,o),
(1036,533,o),
(1036,623,qs),
(1036,724,o),
(906,878,o),
(694,997,qs),
(680,1005,o),
(654,1020,qs),
(449,1135,o),
(449,1225,qs),
(449,1296,o),
(556,1376,o),
(653,1376,qs),
(710,1376,o),
(853,1337,o),
(936,1298,q),
(936,1462,l),
(856,1491,o)
);
},
{
closed = 1;
nodes = (
(872,668,o),
(872,592,qs),
(872,545,o),
(812,455,o),
(750,410,q),
(503,543,o),
(362,678,o),
(362,754,qs),
(362,801,o),
(423,891,o),
(485,936,q),
(729,804,o)
);
}
);
userData = {
assembly = "NPUSHB[ ]	/* 60 values pushed */
35 36 30 57 51 11 17 36 42 4 1 27 143 26 206 30 207 23 1 143 0 206 4 207 48 150 23 63 35 7 17 60 33 42 54 11 36 57 51 4 7 33 85 20 7 85 45 20 60 85 0 38 14 45 26 38 54 85 39 63
SRP0[ ]	/* SetRefPoint0 */
MDRP[10100]	/* MoveDirectRelPt */
MIRP[01100]	/* MoveIndirectRelPt */
MIRP[00100]	/* MoveIndirectRelPt */
MDRP[00100]	/* MoveDirectRelPt */
MDRP[10100]	/* MoveDirectRelPt */
MIRP[00100]	/* MoveIndirectRelPt */
MIRP[01100]	/* MoveIndirectRelPt */
MDRP[00100]	/* MoveDirectRelPt */
SRP0[ ]	/* SetRefPoint0 */
MIRP[01110]	/* MoveIndirectRelPt */
SRP0[ ]	/* SetRefPoint0 */
MIRP[01110]	/* MoveIndirectRelPt */
SRP1[ ]	/* SetRefPoint1 */
SLOOP[ ]	/* SetLoopVariable */
IP[ ]	/* InterpolatePts */
SRP2[ ]	/* SetRefPoint2 */
IP[ ]	/* InterpolatePts */
SRP1[ ]	/* SetRefPoint1 */
SRP2[ ]	/* SetRefPoint2 */
IP[ ]	/* InterpolatePts */
SRP2[ ]	/* SetRefPoint2 */
IP[ ]	/* InterpolatePts */
IUP[1]	/* InterpolateUntPts */
SVTCA[0]	/* SetFreedomAndProjectionVectorToAxis */
SRP0[ ]	/* SetRefPoint0 */
MDRP[00100]	/* MoveDirectRelPt */
MIRP[10100]	/* MoveIndirectRelPt */
MIRP[01100]	/* MoveIndirectRelPt */
MIRP[10100]	/* MoveIndirectRelPt */
MIRP[01100]	/* MoveIndirectRelPt */
SRP0[ ]	/* SetRefPoint0 */
MIRP[01110]	/* MoveIndirectRelPt */
MIRP[10110]	/* MoveIndirectRelPt */
MIRP[01110]	/* MoveIndirectRelPt */
SRP1[ ]	/* SetRefPoint1 */
SLOOP[ ]	/* SetLoopVariable */
IP[ ]	/* InterpolatePts */
IP[ ]	/* InterpolatePts */
IP[ ]	/* InterpolatePts */
SRP1[ ]	/* SetRefPoint1 */
SRP2[ ]	/* SetRefPoint2 */
IP[ ]	/* InterpolatePts */
IUP[0]	/* InterpolateUntPts */";
};
width = 1233;
}
);
note = section;
unicode = 167;
},
{
glyphname = bullet;
layers = (
{
layerId = m01;
shapes = (
{
closed = 1;
nodes = (
(490,465,o),
(614,465,qs),
(739,465,o),
(913,638,o),
(913,762,qs),
(913,885,o),
(740,1057,o),
(616,1057,qs),
(491,1057,o),
(319,886,o),
(319,762,qs),
(319,636,o)
);
}
);
userData = {
assembly = "PUSHB[ ]	/* 8 values pushed */
9 208 3 12 6 86 0 12
SRP0[ ]	/* SetRefPoint0 */
MDRP[10100]	/* MoveDirectRelPt */
MIRP[01100]	/* MoveIndirectRelPt */
IUP[1]	/* InterpolateUntPts */
SVTCA[0]	/* SetFreedomAndProjectionVectorToAxis */
SRP0[ ]	/* SetRefPoint0 */
MDRP[10100]	/* MoveDirectRelPt */
MIRP[00100]	/* MoveIndirectRelPt */
IUP[0]	/* InterpolateUntPts */";
};
width = 1233;
}
);
note = bullet;
unicode = 8226;
},
{
glyphname = paragraph;
layers = (
{
layerId = m01;
shapes = (
{
closed = 1;
nodes = (
(106,1261,o),
(106,1071,qs),
(106,887,o),
(342,666,o),
(557,649,q),
(557,-197,l),
(698,-197,l),
(698,1370,l),
(889,1370,l),
(889,-197,l),
(1030,-197,l),
(1030,1493,l),
(582,1493,ls),
(367,1493,o)
);
}
);
userData = {
assembly = "NPUSHB[ ]	/* 17 values pushed */
4 8 0 136 6 2 14 0 7 87 5 3 87 1 49 11 14
SRP0[ ]	/* SetRefPoint0 */
MDRP[11100]	/* MoveDirectRelPt */
MIRP[11100]	/* MoveIndirectRelPt */
MIRP[11100]	/* MoveIndirectRelPt */
MDRP[10100]	/* MoveDirectRelPt */
MIRP[01100]	/* MoveIndirectRelPt */
IP[ ]	/* InterpolatePts */
IUP[1]	/* InterpolateUntPts */
SVTCA[0]	/* SetFreedomAndProjectionVectorToAxis */
SRP0[ ]	/* SetRefPoint0 */
MDRP[00100]	/* MoveDirectRelPt */
SHP[0]	/* ShiftPointByLastPoint */
MIRP[10100]	/* MoveIndirectRelPt */
MDRP[00100]	/* MoveDirectRelPt */
MDRP[01100]	/* MoveDirectRelPt */
IUP[0]	/* InterpolateUntPts */";
};
width = 1233;
}
);
note = paragraph;
unicode = 182;
},
{
glyphname = germandbls;
layers = (
{
layerId = m01;
shapes = (
{
closed = 1;
nodes = (
(375,0,l),
(375,1133,ls),
(375,1272,o),
(489,1403,o),
(610,1403,qs),
(723,1403,o),
(844,1289,o),
(846,1182,q),
(690,1147,o),
(528,976,o),
(528,848,qs),
(528,769,o),
(619,636,o),
(711,580,qs),
(778,541,ls),
(898,467,o),
(963,372,o),
(963,301,qs),
(963,220,o),
(835,123,o),
(727,123,qs),
(668,123,o),
(535,153,o),
(459,184,q),
(459,20,l),
(525,-4,o),
(660,-29,o),
(729,-29,qs),
(925,-29,o),
(1149,149,o),
(1149,303,qs),
(1149,419,o),
(1038,583,o),
(887,676,qs),
(829,713,ls),
(762,755,o),
(707,832,o),
(707,881,qs),
(707,981,o),
(875,1105,o),
(1030,1119,q),
(1028,1335,o),
(818,1556,o),
(614,1556,qs),
(398,1556,o),
(188,1350,o),
(188,1137,qs),
(188,0,l)
);
}
);
userData = {
assembly = "NPUSHB[ ]	/* 49 values pushed */
45 39 33 12 4 6 13 32 0 4 42 22 139 23 26 140 19 42 140 3 155 19 153 46 12 9 13 29 32 33 39 9 1 36 39 6 6 29 6 36 16 22 45 6 16 68 0 70 48
SRP0[ ]	/* SetRefPoint0 */
MIRP[10100]	/* MoveIndirectRelPt */
MIRP[01100]	/* MoveIndirectRelPt */
MIRP[11100]	/* MoveIndirectRelPt */
MDRP[01100]	/* MoveDirectRelPt */
SRP0[ ]	/* SetRefPoint0 */
MDRP[00110]	/* MoveDirectRelPt */
MIRP[01110]	/* MoveIndirectRelPt */
MDRP[10100]	/* MoveDirectRelPt */
MIRP[01110]	/* MoveIndirectRelPt */
SRP0[ ]	/* SetRefPoint0 */
MIRP[01110]	/* MoveIndirectRelPt */
SRP1[ ]	/* SetRefPoint1 */
IP[ ]	/* InterpolatePts */
IP[ ]	/* InterpolatePts */
SRP2[ ]	/* SetRefPoint2 */
IP[ ]	/* InterpolatePts */
SRP2[ ]	/* SetRefPoint2 */
IP[ ]	/* InterpolatePts */
IUP[1]	/* InterpolateUntPts */
SVTCA[0]	/* SetFreedomAndProjectionVectorToAxis */
MDAP[1]	/* MoveDirectAbsPt */
MIRP[00100]	/* MoveIndirectRelPt */
MIRP[11110]	/* MoveIndirectRelPt */
MIRP[01110]	/* MoveIndirectRelPt */
SRP0[ ]	/* SetRefPoint0 */
MIRP[11110]	/* MoveIndirectRelPt */
MDRP[10101]	/* MoveDirectRelPt */
MIRP[01110]	/* MoveIndirectRelPt */
SRP2[ ]	/* SetRefPoint2 */
SLOOP[ ]	/* SetLoopVariable */
IP[ ]	/* InterpolatePts */
SLOOP[ ]	/* SetLoopVariable */
IP[ ]	/* InterpolatePts */
IUP[0]	/* InterpolateUntPts */";
};
width = 1233;
}
);
note = germandbls;
unicode = 223;
},
{
glyphname = registered;
layers = (
{
layerId = m01;
shapes = (
{
closed = 1;
nodes = (
(362,406,l),
(492,406,l),
(492,702,l),
(547,702,ls),
(592,702,o),
(653,660,o),
(702,580,qs),
(809,406,l),
(952,406,l),
(838,592,ls),
(800,651,o),
(742,718,o),
(723,723,q),
(803,737,o),
(891,830,o),
(891,901,qs),
(891,1002,o),
(747,1100,o),
(600,1100,qs),
(362,1100,l)
);
},
{
closed = 1;
nodes = (
(758,963,o),
(758,901,qs),
(758,838,o),
(684,784,o),
(594,784,qs),
(492,784,l),
(492,1016,l),
(594,1016,ls),
(684,1016,o)
);
},
{
closed = 1;
nodes = (
(272,1268,o),
(182,1178,qs),
(92,1087,o),
(0,867,o),
(0,741,qs),
(0,616,o),
(91,398,o),
(182,307,qs),
(273,216,o),
(491,125,o),
(616,125,qs),
(742,125,o),
(960,216,o),
(1051,307,qs),
(1142,398,o),
(1233,616,o),
(1233,741,qs),
(1233,867,o),
(1141,1087,o),
(1051,1178,qs),
(961,1268,o),
(743,1358,o),
(616,1358,qs),
(490,1358,o)
);
},
{
closed = 1;
nodes = (
(904,1181,o),
(979,1106,qs),
(1054,1031,o),
(1130,847,o),
(1130,741,qs),
(1130,636,o),
(1055,455,o),
(979,379,qs),
(903,303,o),
(722,227,o),
(616,227,qs),
(511,227,o),
(330,303,o),
(254,379,qs),
(179,454,o),
(102,637,o),
(102,741,qs),
(102,847,o),
(179,1031,o),
(254,1106,qs),
(329,1181,o),
(510,1255,o),
(616,1255,qs),
(723,1255,o)
);
}
);
userData = {
assembly = "NPUSHB[ ]	/* 73 values pushed */
15 14 13 3 16 12 93 9 10 9 11 93 10 10 9 66 12 10 6 22 9 10 22 215 15 20 215 0 17 10 214 65 212 41 0 213 53 212 41 211 29 209 77 23 20 15 12 4 0 6 16 9 26 3 21 16 92 18 26 92 10 3 91 71 7 35 18 88 59 7 35 89 47
MDAP[1]	/* MoveDirectAbsPt */
MIRP[00110]	/* MoveIndirectRelPt */
MIRP[11110]	/* MoveIndirectRelPt */
MIRP[00101]	/* MoveIndirectRelPt */
SRP0[ ]	/* SetRefPoint0 */
MIRP[11110]	/* MoveIndirectRelPt */
MIRP[10101]	/* MoveIndirectRelPt */
MDRP[00100]	/* MoveDirectRelPt */
MIRP[01110]	/* MoveIndirectRelPt */
SRP0[ ]	/* SetRefPoint0 */
MIRP[01110]	/* MoveIndirectRelPt */
SHP[0]	/* ShiftPointByLastPoint */
SRP1[ ]	/* SetRefPoint1 */
SRP2[ ]	/* SetRefPoint2 */
IP[ ]	/* InterpolatePts */
SRP1[ ]	/* SetRefPoint1 */
IP[ ]	/* InterpolatePts */
IP[ ]	/* InterpolatePts */
SLOOP[ ]	/* SetLoopVariable */
IP[ ]	/* InterpolatePts */
IUP[1]	/* InterpolateUntPts */
SVTCA[0]	/* SetFreedomAndProjectionVectorToAxis */
SRP0[ ]	/* SetRefPoint0 */
MIRP[10100]	/* MoveIndirectRelPt */
MIRP[01100]	/* MoveIndirectRelPt */
MIRP[11100]	/* MoveIndirectRelPt */
MIRP[00100]	/* MoveIndirectRelPt */
SRP0[ ]	/* SetRefPoint0 */
MIRP[11110]	/* MoveIndirectRelPt */
MIRP[01101]	/* MoveIndirectRelPt */
SHP[0]	/* ShiftPointByLastPoint */
SRP0[ ]	/* SetRefPoint0 */
MIRP[01110]	/* MoveIndirectRelPt */
MDRP[10110]	/* MoveDirectRelPt */
MIRP[01110]	/* MoveIndirectRelPt */
SRP2[ ]	/* SetRefPoint2 */
IP[ ]	/* InterpolatePts */
SRP2[ ]	/* SetRefPoint2 */
IP[ ]	/* InterpolatePts */
SRP2[ ]	/* SetRefPoint2 */
IP[ ]	/* InterpolatePts */
IUP[0]	/* InterpolateUntPts */
MPPEM[ ]	/* MeasurePixelPerEm */
GTEQ[ ]	/* GreaterThanOrEqual */
IF[ ]	/* If */
SPVTL[1]	/* SetPVectorToLine */
SRP0[ ]	/* SetRefPoint0 */
SFVTCA[1]	/* SetFVectorToAxis */
MIRP[01101]	/* MoveIndirectRelPt */
SPVTL[1]	/* SetPVectorToLine */
SRP0[ ]	/* SetRefPoint0 */
SFVTCA[0]	/* SetFVectorToAxis */
MIRP[01101]	/* MoveIndirectRelPt */
SRP1[ ]	/* SetRefPoint1 */
SLOOP[ ]	/* SetLoopVariable */
IP[ ]	/* InterpolatePts */
EIF[ ]	/* EndIf */
CLEAR[ ]	/* ClearStack */";
};
width = 1233;
}
);
note = registered;
unicode = 174;
},
{
glyphname = copyright;
layers = (
{
layerId = m01;
shapes = (
{
closed = 1;
nodes = (
(698,1116,o),
(637,1116,qs),
(458,1116,o),
(250,914,o),
(250,741,qs),
(250,569,o),
(457,369,o),
(637,369,qs),
(698,369,o),
(812,391,o),
(864,414,q),
(864,518,l),
(814,492,o),
(711,467,o),
(655,467,qs),
(525,467,o),
(385,609,o),
(385,741,qs),
(385,869,o),
(520,1018,o),
(637,1018,qs),
(695,1018,o),
(806,991,o),
(864,963,q),
(864,1071,l),
(812,1094,o)
);
},
{
closed = 1;
nodes = (
(904,1181,o),
(979,1106,qs),
(1054,1031,o),
(1130,847,o),
(1130,741,qs),
(1130,636,o),
(1055,455,o),
(979,379,qs),
(903,303,o),
(722,227,o),
(616,227,qs),
(511,227,o),
(330,303,o),
(254,379,qs),
(179,454,o),
(102,637,o),
(102,741,qs),
(102,847,o),
(179,1031,o),
(254,1106,qs),
(329,1181,o),
(510,1255,o),
(616,1255,qs),
(723,1255,o)
);
},
{
closed = 1;
nodes = (
(272,1268,o),
(182,1178,qs),
(92,1087,o),
(0,867,o),
(0,741,qs),
(0,616,o),
(91,398,o),
(182,307,qs),
(273,216,o),
(491,125,o),
(616,125,qs),
(742,125,o),
(960,216,o),
(1051,307,qs),
(1142,398,o),
(1233,616,o),
(1233,741,qs),
(1233,867,o),
(1141,1087,o),
(1051,1178,qs),
(961,1268,o),
(743,1358,o),
(616,1358,qs),
(490,1358,o)
);
}
);
userData = {
assembly = "NPUSHB[ ]	/* 39 values pushed */
13 218 14 10 218 17 220 38 212 62 1 218 0 4 218 23 217 26 212 62 211 50 209 74 7 92 20 13 0 94 44 7 56 20 32 7 56 89 68
MDAP[1]	/* MoveDirectAbsPt */
MIRP[00110]	/* MoveIndirectRelPt */
MIRP[11110]	/* MoveIndirectRelPt */
MDRP[00101]	/* MoveDirectRelPt */
SRP0[ ]	/* SetRefPoint0 */
MIRP[11110]	/* MoveIndirectRelPt */
MIRP[00101]	/* MoveIndirectRelPt */
SHP[0]	/* ShiftPointByLastPoint */
SRP0[ ]	/* SetRefPoint0 */
MIRP[01110]	/* MoveIndirectRelPt */
IUP[1]	/* InterpolateUntPts */
SVTCA[0]	/* SetFreedomAndProjectionVectorToAxis */
SRP0[ ]	/* SetRefPoint0 */
MIRP[10100]	/* MoveIndirectRelPt */
MIRP[01100]	/* MoveIndirectRelPt */
MIRP[11100]	/* MoveIndirectRelPt */
MIRP[10100]	/* MoveIndirectRelPt */
MIRP[01100]	/* MoveIndirectRelPt */
MDRP[10100]	/* MoveDirectRelPt */
MIRP[01100]	/* MoveIndirectRelPt */
SRP0[ ]	/* SetRefPoint0 */
MIRP[11110]	/* MoveIndirectRelPt */
MIRP[11101]	/* MoveIndirectRelPt */
MIRP[01110]	/* MoveIndirectRelPt */
MDRP[10110]	/* MoveDirectRelPt */
MIRP[01110]	/* MoveIndirectRelPt */
IUP[0]	/* InterpolateUntPts */";
};
width = 1233;
}
);
note = copyright;
unicode = 169;
},
{
glyphname = trademark;
layers = (
{
layerId = m01;
shapes = (
{
closed = 1;
nodes = (
(0,1399,l),
(162,1399,l),
(162,915,l),
(276,915,l),
(276,1399,l),
(438,1399,l),
(438,1493,l),
(0,1493,l)
);
},
{
closed = 1;
nodes = (
(522,915,l),
(635,915,l),
(635,1397,l),
(801,1096,l),
(856,1096,l),
(1012,1397,l),
(1012,915,l),
(1126,915,l),
(1126,1493,l),
(954,1493,l),
(829,1237,l),
(692,1493,l),
(522,1493,l)
);
}
);
userData = {
assembly = "NPUSHB[ ]	/* 54 values pushed */
15 9 10 9 14 10 10 9 17 8 9 8 16 9 9 8 66 17 14 9 3 1 15 18 12 3 5 1 215 10 8 0 136 21 16 15 10 9 8 5 17 13 96 11 17 96 19 0 95 2 96 4 95 6
MDAP[1]	/* MoveDirectAbsPt */
MIRP[11100]	/* MoveIndirectRelPt */
MIRP[11110]	/* MoveIndirectRelPt */
MIRP[01100]	/* MoveIndirectRelPt */
MDRP[10101]	/* MoveDirectRelPt */
MIRP[01110]	/* MoveIndirectRelPt */
MDRP[10110]	/* MoveDirectRelPt */
MIRP[01110]	/* MoveIndirectRelPt */
SRP1[ ]	/* SetRefPoint1 */
SLOOP[ ]	/* SetLoopVariable */
IP[ ]	/* InterpolatePts */
IUP[1]	/* InterpolateUntPts */
SVTCA[0]	/* SetFreedomAndProjectionVectorToAxis */
SRP0[ ]	/* SetRefPoint0 */
MIRP[10100]	/* MoveIndirectRelPt */
ALIGNRP[ ]	/* AlignRelativePt */
ALIGNRP[ ]	/* AlignRelativePt */
MIRP[01100]	/* MoveIndirectRelPt */
SHP[0]	/* ShiftPointByLastPoint */
MDRP[10100]	/* MoveDirectRelPt */
ALIGNRP[ ]	/* AlignRelativePt */
ALIGNRP[ ]	/* AlignRelativePt */
MDRP[00100]	/* MoveDirectRelPt */
SRP1[ ]	/* SetRefPoint1 */
SLOOP[ ]	/* SetLoopVariable */
IP[ ]	/* InterpolatePts */
IUP[0]	/* InterpolateUntPts */
MPPEM[ ]	/* MeasurePixelPerEm */
GTEQ[ ]	/* GreaterThanOrEqual */
IF[ ]	/* If */
SPVTL[1]	/* SetPVectorToLine */
SRP0[ ]	/* SetRefPoint0 */
SFVTCA[1]	/* SetFVectorToAxis */
MDRP[01001]	/* MoveDirectRelPt */
SPVTL[1]	/* SetPVectorToLine */
SRP0[ ]	/* SetRefPoint0 */
SFVTCA[0]	/* SetFVectorToAxis */
MDRP[01001]	/* MoveDirectRelPt */
SPVTL[1]	/* SetPVectorToLine */
SRP0[ ]	/* SetRefPoint0 */
SFVTCA[0]	/* SetFVectorToAxis */
MDRP[01001]	/* MoveDirectRelPt */
SPVTL[1]	/* SetPVectorToLine */
SRP0[ ]	/* SetRefPoint0 */
SFVTCA[1]	/* SetFVectorToAxis */
MDRP[01001]	/* MoveDirectRelPt */
EIF[ ]	/* EndIf */
CLEAR[ ]	/* ClearStack */";
};
width = 1233;
}
);
note = trademark;
unicode = 8482;
},
{
glyphname = acute;
layers = (
{
layerId = m01;
shapes = (
{
closed = 1;
nodes = (
(629,1262,l),
(954,1638,l),
(756,1638,l),
(475,1262,l)
);
}
);
userData = {
assembly = "NPUSHB[ ]	/* 9 values pushed */
2 186 0 185 4 1 60 3 4
SRP0[ ]	/* SetRefPoint0 */
MDRP[10100]	/* MoveDirectRelPt */
MIRP[01100]	/* MoveIndirectRelPt */
IUP[1]	/* InterpolateUntPts */
SVTCA[0]	/* SetFreedomAndProjectionVectorToAxis */
SRP0[ ]	/* SetRefPoint0 */
MIRP[10100]	/* MoveIndirectRelPt */
MIRP[01100]	/* MoveIndirectRelPt */
IUP[0]	/* InterpolateUntPts */
SVTCA[0]	/* SetFreedomAndProjectionVectorToAxis */
MPPEM[ ]	/* MeasurePixelPerEm */
PUSHB[ ]	/* 1 value pushed */
14
EQ[ ]	/* Equal */
MPPEM[ ]	/* MeasurePixelPerEm */
PUSHB[ ]	/* 1 value pushed */
9
EQ[ ]	/* Equal */
OR[ ]	/* LogicalOr */
IF[ ]	/* If */
PUSHW[ ]	/* 6 values pushed */
4 -64 1 4 4 64
SHPIX[ ]	/* ShiftZoneByPixel */
SRP1[ ]	/* SetRefPoint1 */
SHZ[1]	/* ShiftZoneByLastPoint */
SHPIX[ ]	/* ShiftZoneByPixel */
EIF[ ]	/* EndIf */";
};
width = 1233;
}
);
note = acute;
unicode = 180;
},
{
glyphname = dieresis;
layers = (
{
layerId = m01;
shapes = (
{
closed = 1;
nodes = (
(522,1350,l),
(522,1552,l),
(319,1552,l),
(319,1350,l)
);
},
{
closed = 1;
nodes = (
(913,1350,l),
(913,1552,l),
(711,1552,l),
(711,1350,l)
);
}
);
userData = {
assembly = "NPUSHB[ ]	/* 14 values pushed */
6 2 222 4 0 221 8 5 97 4 1 97 0 8
SRP0[ ]	/* SetRefPoint0 */
MDRP[10100]	/* MoveDirectRelPt */
MIRP[11100]	/* MoveIndirectRelPt */
MDRP[10100]	/* MoveDirectRelPt */
MIRP[01100]	/* MoveIndirectRelPt */
IUP[1]	/* InterpolateUntPts */
SVTCA[0]	/* SetFreedomAndProjectionVectorToAxis */
SRP0[ ]	/* SetRefPoint0 */
MIRP[10100]	/* MoveIndirectRelPt */
ALIGNRP[ ]	/* AlignRelativePt */
MIRP[01100]	/* MoveIndirectRelPt */
SHP[0]	/* ShiftPointByLastPoint */
IUP[0]	/* InterpolateUntPts */
SVTCA[0]	/* SetFreedomAndProjectionVectorToAxis */
MPPEM[ ]	/* MeasurePixelPerEm */
PUSHB[ ]	/* 1 value pushed */
10
EQ[ ]	/* Equal */
MPPEM[ ]	/* MeasurePixelPerEm */
PUSHB[ ]	/* 1 value pushed */
13
EQ[ ]	/* Equal */
OR[ ]	/* LogicalOr */
MPPEM[ ]	/* MeasurePixelPerEm */
PUSHB[ ]	/* 1 value pushed */
14
EQ[ ]	/* Equal */
OR[ ]	/* LogicalOr */
IF[ ]	/* If */
PUSHW[ ]	/* 6 values pushed */
8 64 1 8 8 -64
SHPIX[ ]	/* ShiftZoneByPixel */
SRP1[ ]	/* SetRefPoint1 */
SHZ[1]	/* ShiftZoneByLastPoint */
SHPIX[ ]	/* ShiftZoneByPixel */
EIF[ ]	/* EndIf */
SVTCA[1]	/* SetFreedomAndProjectionVectorToAxis */
MPPEM[ ]	/* MeasurePixelPerEm */
PUSHB[ ]	/* 1 value pushed */
13
EQ[ ]	/* Equal */
MPPEM[ ]	/* MeasurePixelPerEm */
PUSHB[ ]	/* 1 value pushed */
14
EQ[ ]	/* Equal */
OR[ ]	/* LogicalOr */
IF[ ]	/* If */
PUSHW[ ]	/* 6 values pushed */
8 -64 1 8 8 64
SHPIX[ ]	/* ShiftZoneByPixel */
SRP1[ ]	/* SetRefPoint1 */
SHZ[1]	/* ShiftZoneByLastPoint */
SHPIX[ ]	/* ShiftZoneByPixel */
EIF[ ]	/* EndIf */";
};
width = 1233;
}
);
note = dieresis;
unicode = 168;
},
{
glyphname = notequal;
layers = (
{
layerId = m01;
shapes = (
{
closed = 1;
nodes = (
(602,760,l),
(418,524,l),
(88,524,l),
(88,352,l),
(289,352,l),
(125,141,l),
(250,37,l),
(498,352,l),
(1145,352,l),
(1145,524,l),
(627,524,l),
(811,760,l),
(1145,760,l),
(1145,930,l),
(942,930,l),
(1106,1143,l),
(981,1245,l),
(735,930,l),
(88,930,l),
(88,760,l)
);
}
);
userData = {
assembly = "NPUSHB[ ]	/* 32 values pushed */
13 12 10 3 2 4 0 160 6 12 14 10 160 18 6 16 8 20 18 14 13 12 8 4 3 2 8 9 5 15 0 20
SRP0[ ]	/* SetRefPoint0 */
MDRP[10100]	/* MoveDirectRelPt */
ALIGNRP[ ]	/* AlignRelativePt */
MDRP[00100]	/* MoveDirectRelPt */
SHP[0]	/* ShiftPointByLastPoint */
SLOOP[ ]	/* SetLoopVariable */
IP[ ]	/* InterpolatePts */
IUP[1]	/* InterpolateUntPts */
SVTCA[0]	/* SetFreedomAndProjectionVectorToAxis */
SRP0[ ]	/* SetRefPoint0 */
MDRP[10100]	/* MoveDirectRelPt */
ALIGNRP[ ]	/* AlignRelativePt */
MDRP[00100]	/* MoveDirectRelPt */
SHP[0]	/* ShiftPointByLastPoint */
MIRP[11100]	/* MoveIndirectRelPt */
ALIGNRP[ ]	/* AlignRelativePt */
MDRP[00100]	/* MoveDirectRelPt */
SRP0[ ]	/* SetRefPoint0 */
MIRP[11110]	/* MoveIndirectRelPt */
ALIGNRP[ ]	/* AlignRelativePt */
MDRP[00100]	/* MoveDirectRelPt */
IP[ ]	/* InterpolatePts */
SRP1[ ]	/* SetRefPoint1 */
SRP2[ ]	/* SetRefPoint2 */
IP[ ]	/* InterpolatePts */
IUP[0]	/* InterpolateUntPts */";
};
width = 1233;
}
);
note = notequal;
unicode = 8800;
},
{
glyphname = AE;
layers = (
{
layerId = m01;
shapes = (
{
closed = 1;
nodes = (
(0,0,l),
(184,0,l),
(285,383,l),
(637,383,l),
(637,0,l),
(1180,0,l),
(1180,170,l),
(823,170,l),
(823,711,l),
(1130,711,l),
(1130,881,l),
(823,881,l),
(823,1323,l),
(1161,1323,l),
(1161,1493,l),
(410,1493,l)
);
},
{
closed = 1;
nodes = (
(637,551,l),
(328,551,l),
(530,1323,l),
(637,1323,l)
);
}
);
userData = {
assembly = "NPUSHB[ ]	/* 55 values pushed */
13 37 15 14 12 37 15 14 17 37 14 15 14 16 37 15 15 14 66 5 151 3 11 151 17 16 1 151 0 136 7 151 17 176 3 177 13 9 17 16 15 13 12 5 14 10 0 4 8 6 2 99 18 10 14
MDAP[1]	/* MoveDirectAbsPt */
MDRP[10100]	/* MoveDirectRelPt */
ALIGNRP[ ]	/* AlignRelativePt */
MIRP[01110]	/* MoveIndirectRelPt */
SHP[0]	/* ShiftPointByLastPoint */
MDRP[10110]	/* MoveDirectRelPt */
MDRP[00100]	/* MoveDirectRelPt */
MDRP[00100]	/* MoveDirectRelPt */
SRP1[ ]	/* SetRefPoint1 */
SRP2[ ]	/* SetRefPoint2 */
SLOOP[ ]	/* SetLoopVariable */
IP[ ]	/* InterpolatePts */
IUP[1]	/* InterpolateUntPts */
SVTCA[0]	/* SetFreedomAndProjectionVectorToAxis */
MDAP[1]	/* MoveDirectAbsPt */
ALIGNRP[ ]	/* AlignRelativePt */
MIRP[01110]	/* MoveIndirectRelPt */
MIRP[01110]	/* MoveIndirectRelPt */
MIRP[01110]	/* MoveIndirectRelPt */
MIRP[10100]	/* MoveIndirectRelPt */
MIRP[01110]	/* MoveIndirectRelPt */
SHP[0]	/* ShiftPointByLastPoint */
SRP0[ ]	/* SetRefPoint0 */
MIRP[01110]	/* MoveIndirectRelPt */
SRP0[ ]	/* SetRefPoint0 */
MIRP[01110]	/* MoveIndirectRelPt */
IUP[0]	/* InterpolateUntPts */
MPPEM[ ]	/* MeasurePixelPerEm */
GTEQ[ ]	/* GreaterThanOrEqual */
IF[ ]	/* If */
SPVTL[1]	/* SetPVectorToLine */
SRP0[ ]	/* SetRefPoint0 */
SFVTCA[1]	/* SetFVectorToAxis */
MIRP[01101]	/* MoveIndirectRelPt */
SPVTL[1]	/* SetPVectorToLine */
SRP0[ ]	/* SetRefPoint0 */
SFVTCA[1]	/* SetFVectorToAxis */
MIRP[01101]	/* MoveIndirectRelPt */
SPVTL[1]	/* SetPVectorToLine */
SFVTCA[1]	/* SetFVectorToAxis */
MIRP[01101]	/* MoveIndirectRelPt */
SPVTL[1]	/* SetPVectorToLine */
SFVTCA[1]	/* SetFVectorToAxis */
MIRP[01101]	/* MoveIndirectRelPt */
EIF[ ]	/* EndIf */
CLEAR[ ]	/* ClearStack */";
};
width = 1233;
}
);
note = AE;
unicode = 198;
},
{
glyphname = Oslash;
layers = (
{
layerId = m01;
shapes = (
{
closed = 1;
nodes = (
(895,991,o),
(905,855,o),
(905,745,qs),
(905,416,o),
(770,135,o),
(616,135,qs),
(532,135,o),
(401,225,o),
(371,303,q),
(885,1036,l)
);
},
{
closed = 1;
nodes = (
(328,606,o),
(328,686,qs),
(328,1064,o),
(459,1356,o),
(616,1356,qs),
(702,1356,o),
(817,1271,o),
(842,1190,q),
(338,471,l),
(333,505,o)
);
},
{
closed = 1;
nodes = (
(1100,1559,l),
(961,1358,l),
(904,1438,o),
(731,1520,o),
(616,1520,qs),
(364,1520,o),
(117,1136,o),
(117,745,qs),
(117,587,o),
(154,325,o),
(186,252,q),
(8,0,l),
(111,-70,l),
(254,133,l),
(315,52,o),
(495,-29,o),
(616,-29,qs),
(869,-29,o),
(1116,355,o),
(1116,745,qs),
(1116,908,o),
(1073,1166,o),
(1032,1247,q),
(1200,1485,l)
);
}
);
userData = {
assembly = "NPUSHB[ ]	/* 58 values pushed */
43 41 38 11 10 9 0 4 14 29 31 32 20 14 3 42 38 30 3 151 26 14 151 38 150 26 153 31 31 30 44 32 35 17 42 20 23 11 10 9 0 4 6 29 35 17 41 6 43 6 50 23 54 17 50 35 53 44
SRP0[ ]	/* SetRefPoint0 */
MIRP[11100]	/* MoveIndirectRelPt */
MIRP[01100]	/* MoveIndirectRelPt */
MIRP[11100]	/* MoveIndirectRelPt */
MIRP[01100]	/* MoveIndirectRelPt */
MDRP[00000]	/* MoveDirectRelPt */
SRP2[ ]	/* SetRefPoint2 */
IP[ ]	/* InterpolatePts */
SRP1[ ]	/* SetRefPoint1 */
SRP2[ ]	/* SetRefPoint2 */
IP[ ]	/* InterpolatePts */
SRP2[ ]	/* SetRefPoint2 */
SLOOP[ ]	/* SetLoopVariable */
IP[ ]	/* InterpolatePts */
SRP1[ ]	/* SetRefPoint1 */
IP[ ]	/* InterpolatePts */
IP[ ]	/* InterpolatePts */
SRP1[ ]	/* SetRefPoint1 */
SRP2[ ]	/* SetRefPoint2 */
IP[ ]	/* InterpolatePts */
SRP1[ ]	/* SetRefPoint1 */
IP[ ]	/* InterpolatePts */
IP[ ]	/* InterpolatePts */
IUP[1]	/* InterpolateUntPts */
SVTCA[0]	/* SetFreedomAndProjectionVectorToAxis */
MDAP[1]	/* MoveDirectAbsPt */
MIRP[00100]	/* MoveIndirectRelPt */
MIRP[10100]	/* MoveIndirectRelPt */
MIRP[01100]	/* MoveIndirectRelPt */
SRP0[ ]	/* SetRefPoint0 */
MIRP[01110]	/* MoveIndirectRelPt */
MDRP[00000]	/* MoveDirectRelPt */
SRP0[ ]	/* SetRefPoint0 */
MDRP[00000]	/* MoveDirectRelPt */
SRP1[ ]	/* SetRefPoint1 */
SRP2[ ]	/* SetRefPoint2 */
IP[ ]	/* InterpolatePts */
IP[ ]	/* InterpolatePts */
SRP2[ ]	/* SetRefPoint2 */
IP[ ]	/* InterpolatePts */
SRP2[ ]	/* SetRefPoint2 */
SLOOP[ ]	/* SetLoopVariable */
IP[ ]	/* InterpolatePts */
SRP1[ ]	/* SetRefPoint1 */
IP[ ]	/* InterpolatePts */
IP[ ]	/* InterpolatePts */
IUP[0]	/* InterpolateUntPts */";
};
width = 1233;
}
);
note = Oslash;
unicode = 216;
},
{
glyphname = infinity;
layers = (
{
layerId = m01;
shapes = (
{
closed = 1;
nodes = (
(845,868,o),
(911,868,qs),
(981,868,o),
(1065,740,o),
(1065,633,qs),
(1065,525,o),
(974,391,o),
(903,391,qs),
(842,391,o),
(751,491,o),
(694,627,q),
(740,751,o)
);
},
{
closed = 1;
nodes = (
(384,391,o),
(317,391,qs),
(249,391,o),
(166,520,o),
(166,629,qs),
(166,735,o),
(257,868,o),
(328,868,qs),
(389,868,o),
(481,769,o),
(537,635,q),
(490,509,o)
);
},
{
closed = 1;
nodes = (
(424,1008,o),
(330,1008,qs),
(198,1008,o),
(41,802,o),
(41,629,qs),
(41,464,o),
(207,250,o),
(332,250,qs),
(417,250,o),
(549,357,o),
(614,481,q),
(692,350,o),
(820,250,o),
(903,250,qs),
(1029,250,o),
(1192,462,o),
(1192,629,qs),
(1192,789,o),
(1020,1008,o),
(901,1008,qs),
(810,1008,o),
(663,881,o),
(616,764,q),
(560,893,o)
);
}
);
userData = {
assembly = "NPUSHB[ ]	/* 28 values pushed */
36 24 9 21 3 225 39 33 226 15 9 225 45 27 223 48 12 0 36 24 18 6 100 30 18 100 42 48
SRP0[ ]	/* SetRefPoint0 */
MDRP[10100]	/* MoveDirectRelPt */
MIRP[01100]	/* MoveIndirectRelPt */
MDRP[10100]	/* MoveDirectRelPt */
MIRP[01100]	/* MoveIndirectRelPt */
SRP1[ ]	/* SetRefPoint1 */
IP[ ]	/* InterpolatePts */
IP[ ]	/* InterpolatePts */
IP[ ]	/* InterpolatePts */
IP[ ]	/* InterpolatePts */
IUP[1]	/* InterpolateUntPts */
SVTCA[0]	/* SetFreedomAndProjectionVectorToAxis */
SRP0[ ]	/* SetRefPoint0 */
MIRP[11100]	/* MoveIndirectRelPt */
ALIGNRP[ ]	/* AlignRelativePt */
MIRP[01100]	/* MoveIndirectRelPt */
SHP[0]	/* ShiftPointByLastPoint */
MIRP[11100]	/* MoveIndirectRelPt */
ALIGNRP[ ]	/* AlignRelativePt */
MIRP[01100]	/* MoveIndirectRelPt */
SHP[0]	/* ShiftPointByLastPoint */
SRP1[ ]	/* SetRefPoint1 */
IP[ ]	/* InterpolatePts */
IP[ ]	/* InterpolatePts */
IUP[0]	/* InterpolateUntPts */";
};
width = 1233;
}
);
note = infinity;
unicode = 8734;
},
{
glyphname = plusminus;
layers = (
{
layerId = m01;
shapes = (
{
closed = 1;
nodes = (
(1145,0,l),
(1145,170,l),
(88,170,l),
(88,0,l)
);
},
{
closed = 1;
nodes = (
(532,842,l),
(88,842,l),
(88,672,l),
(532,672,l),
(532,340,l),
(700,340,l),
(700,672,l),
(1145,672,l),
(1145,842,l),
(700,842,l),
(700,1171,l),
(532,1171,l)
);
}
);
userData = {
assembly = "NPUSHB[ ]	/* 24 values pushed */
9 227 11 7 160 4 227 13 5 0 160 2 6 1 26 8 4 28 12 0 26 14 10 16
SRP0[ ]	/* SetRefPoint0 */
MDRP[10100]	/* MoveDirectRelPt */
ALIGNRP[ ]	/* AlignRelativePt */
MIRP[01100]	/* MoveIndirectRelPt */
SHP[0]	/* ShiftPointByLastPoint */
MIRP[11100]	/* MoveIndirectRelPt */
ALIGNRP[ ]	/* AlignRelativePt */
MIRP[01100]	/* MoveIndirectRelPt */
SHP[0]	/* ShiftPointByLastPoint */
IUP[1]	/* InterpolateUntPts */
SVTCA[0]	/* SetFreedomAndProjectionVectorToAxis */
MDAP[1]	/* MoveDirectAbsPt */
MIRP[01100]	/* MoveIndirectRelPt */
MDRP[10100]	/* MoveDirectRelPt */
ALIGNRP[ ]	/* AlignRelativePt */
MIRP[01100]	/* MoveIndirectRelPt */
MIRP[11100]	/* MoveIndirectRelPt */
ALIGNRP[ ]	/* AlignRelativePt */
MIRP[01100]	/* MoveIndirectRelPt */
IUP[0]	/* InterpolateUntPts */";
};
width = 1233;
}
);
note = plusminus;
unicode = 177;
},
{
glyphname = lessequal;
layers = (
{
layerId = m01;
shapes = (
{
closed = 1;
nodes = (
(1143,903,l),
(1143,1087,l),
(86,756,l),
(86,588,l),
(1143,256,l),
(1143,438,l),
(342,672,l)
);
},
{
closed = 1;
nodes = (
(86,0,l),
(1143,0,l),
(1143,170,l),
(86,170,l)
);
}
);
userData = {
assembly = "NPUSHB[ ]	/* 22 values pushed */
6 5 3 2 0 5 1 229 4 228 7 160 8 6 7 4 0 40 9 2 39 11
SRP0[ ]	/* SetRefPoint0 */
MIRP[11100]	/* MoveIndirectRelPt */
ALIGNRP[ ]	/* AlignRelativePt */
MIRP[01100]	/* MoveIndirectRelPt */
SHP[0]	/* ShiftPointByLastPoint */
SHP[0]	/* ShiftPointByLastPoint */
IP[ ]	/* InterpolatePts */
IUP[1]	/* InterpolateUntPts */
SVTCA[0]	/* SetFreedomAndProjectionVectorToAxis */
MDAP[1]	/* MoveDirectAbsPt */
MIRP[01100]	/* MoveIndirectRelPt */
MIRP[10100]	/* MoveIndirectRelPt */
MIRP[01100]	/* MoveIndirectRelPt */
SLOOP[ ]	/* SetLoopVariable */
IP[ ]	/* InterpolatePts */
IUP[0]	/* InterpolateUntPts */";
};
width = 1233;
}
);
note = lessequal;
unicode = 8804;
},
{
glyphname = greaterequal;
layers = (
{
layerId = m01;
shapes = (
{
closed = 1;
nodes = (
(1145,588,l),
(1145,756,l),
(88,1087,l),
(88,903,l),
(891,672,l),
(88,438,l),
(88,256,l)
);
},
{
closed = 1;
nodes = (
(1145,0,l),
(1145,170,l),
(88,170,l),
(88,0,l)
);
}
);
userData = {
assembly = "NPUSHB[ ]	/* 22 values pushed */
5 4 2 1 0 5 6 229 3 228 7 160 9 1 8 4 40 7 2 0 39 11
SRP0[ ]	/* SetRefPoint0 */
MIRP[11100]	/* MoveIndirectRelPt */
ALIGNRP[ ]	/* AlignRelativePt */
ALIGNRP[ ]	/* AlignRelativePt */
MIRP[01100]	/* MoveIndirectRelPt */
SHP[0]	/* ShiftPointByLastPoint */
IP[ ]	/* InterpolatePts */
IUP[1]	/* InterpolateUntPts */
SVTCA[0]	/* SetFreedomAndProjectionVectorToAxis */
MDAP[1]	/* MoveDirectAbsPt */
MIRP[01100]	/* MoveIndirectRelPt */
MIRP[10100]	/* MoveIndirectRelPt */
MIRP[01100]	/* MoveIndirectRelPt */
SLOOP[ ]	/* SetLoopVariable */
IP[ ]	/* InterpolatePts */
IUP[0]	/* InterpolateUntPts */";
};
width = 1233;
}
);
note = greaterequal;
unicode = 8805;
},
{
glyphname = yen;
layers = (
{
layerId = m01;
shapes = (
{
closed = 1;
nodes = (
(115,932,l),
(115,821,l),
(424,821,l),
(514,670,l),
(514,635,l),
(115,635,l),
(115,524,l),
(514,524,l),
(514,0,l),
(717,0,l),
(717,524,l),
(1118,524,l),
(1118,635,l),
(717,635,l),
(717,670,l),
(803,821,l),
(1118,821,l),
(1118,932,l),
(866,932,l),
(1196,1493,l),
(979,1493,l),
(616,834,l),
(252,1493,l),
(37,1493,l),
(358,932,l)
);
}
);
userData = {
assembly = "NPUSHB[ ]	/* 68 values pushed */
3 37 4 9 4 2 37 1 2 9 9 4 2 37 3 2 20 0 20 1 37 0 0 20 66 2 7 5 16 12 231 18 10 23 5 231 21 7 3 0 136 14 24 1 17 2 15 8 5 3 3 6 4 60 11 6 101 13 9 30 22 17 101 0 60 19 15 25
SRP0[ ]	/* SetRefPoint0 */
MDRP[10100]	/* MoveDirectRelPt */
ALIGNRP[ ]	/* AlignRelativePt */
MIRP[01100]	/* MoveIndirectRelPt */
MIRP[01100]	/* MoveIndirectRelPt */
SHP[0]	/* ShiftPointByLastPoint */
MIRP[11100]	/* MoveIndirectRelPt */
ALIGNRP[ ]	/* AlignRelativePt */
MIRP[01100]	/* MoveIndirectRelPt */
SHP[0]	/* ShiftPointByLastPoint */
MIRP[01100]	/* MoveIndirectRelPt */
SRP2[ ]	/* SetRefPoint2 */
SLOOP[ ]	/* SetLoopVariable */
IP[ ]	/* InterpolatePts */
SRP2[ ]	/* SetRefPoint2 */
IP[ ]	/* InterpolatePts */
SRP1[ ]	/* SetRefPoint1 */
IP[ ]	/* InterpolatePts */
IP[ ]	/* InterpolatePts */
IUP[1]	/* InterpolateUntPts */
SVTCA[0]	/* SetFreedomAndProjectionVectorToAxis */
MDAP[1]	/* MoveDirectAbsPt */
MIRP[00100]	/* MoveIndirectRelPt */
SHP[0]	/* ShiftPointByLastPoint */
MDRP[10100]	/* MoveDirectRelPt */
ALIGNRP[ ]	/* AlignRelativePt */
MIRP[01100]	/* MoveIndirectRelPt */
SHP[0]	/* ShiftPointByLastPoint */
MDRP[10100]	/* MoveDirectRelPt */
ALIGNRP[ ]	/* AlignRelativePt */
MIRP[01100]	/* MoveIndirectRelPt */
SHP[0]	/* ShiftPointByLastPoint */
SRP1[ ]	/* SetRefPoint1 */
SRP2[ ]	/* SetRefPoint2 */
IP[ ]	/* InterpolatePts */
IUP[0]	/* InterpolateUntPts */
MPPEM[ ]	/* MeasurePixelPerEm */
GTEQ[ ]	/* GreaterThanOrEqual */
IF[ ]	/* If */
SPVTL[1]	/* SetPVectorToLine */
SRP0[ ]	/* SetRefPoint0 */
SFVTCA[1]	/* SetFVectorToAxis */
MIRP[01101]	/* MoveIndirectRelPt */
SPVTL[1]	/* SetPVectorToLine */
SRP0[ ]	/* SetRefPoint0 */
SFVTL[0]	/* SetFVectorToLine */
MIRP[01101]	/* MoveIndirectRelPt */
SPVTL[1]	/* SetPVectorToLine */
SRP0[ ]	/* SetRefPoint0 */
SFVTL[0]	/* SetFVectorToLine */
MIRP[01101]	/* MoveIndirectRelPt */
SPVTL[1]	/* SetPVectorToLine */
SRP0[ ]	/* SetRefPoint0 */
SFVTCA[1]	/* SetFVectorToAxis */
MIRP[01101]	/* MoveIndirectRelPt */
EIF[ ]	/* EndIf */
CLEAR[ ]	/* ClearStack */";
};
width = 1233;
}
);
note = yen;
unicode = 165;
},
{
glyphname = mu;
layers = (
{
layerId = m01;
shapes = (
{
closed = 1;
nodes = (
(362,127,l),
(406,47,o),
(533,-29,o),
(625,-29,qs),
(714,-29,o),
(847,49,o),
(893,129,q),
(905,50,o),
(980,-29,o),
(1042,-29,qs),
(1076,-29,o),
(1144,-7,o),
(1182,16,q),
(1182,164,l),
(1154,151,o),
(1125,141,o),
(1116,141,qs),
(1083,141,o),
(1051,197,o),
(1051,256,qs),
(1051,1120,l),
(866,1120,l),
(866,467,ls),
(866,301,o),
(737,131,o),
(610,131,qs),
(499,131,o),
(379,282,o),
(379,424,qs),
(379,1120,l),
(195,1120,l),
(195,-428,l),
(362,-428,l)
);
}
);
userData = {
assembly = "NPUSHB[ ]	/* 42 values pushed */
19 25 31 3 22 6 3 9 12 3 1 18 6 140 15 139 28 22 153 0 195 10 1 194 33 25 11 9 32 31 2 0 18 9 6 11 74 2 6 0 70 33
SRP0[ ]	/* SetRefPoint0 */
MIRP[10100]	/* MoveIndirectRelPt */
MIRP[01100]	/* MoveIndirectRelPt */
MIRP[11100]	/* MoveIndirectRelPt */
MIRP[01100]	/* MoveIndirectRelPt */
MDRP[00100]	/* MoveDirectRelPt */
SRP1[ ]	/* SetRefPoint1 */
SRP2[ ]	/* SetRefPoint2 */
IP[ ]	/* InterpolatePts */
IP[ ]	/* InterpolatePts */
SRP1[ ]	/* SetRefPoint1 */
SRP2[ ]	/* SetRefPoint2 */
IP[ ]	/* InterpolatePts */
IUP[1]	/* InterpolateUntPts */
SVTCA[0]	/* SetFreedomAndProjectionVectorToAxis */
SRP0[ ]	/* SetRefPoint0 */
MIRP[00100]	/* MoveIndirectRelPt */
SHP[0]	/* ShiftPointByLastPoint */
MIRP[00100]	/* MoveIndirectRelPt */
MIRP[10100]	/* MoveIndirectRelPt */
ALIGNRP[ ]	/* AlignRelativePt */
MIRP[01100]	/* MoveIndirectRelPt */
MIRP[11100]	/* MoveIndirectRelPt */
MDRP[00100]	/* MoveDirectRelPt */
SRP1[ ]	/* SetRefPoint1 */
SLOOP[ ]	/* SetLoopVariable */
IP[ ]	/* InterpolatePts */
SRP1[ ]	/* SetRefPoint1 */
SRP2[ ]	/* SetRefPoint2 */
SLOOP[ ]	/* SetLoopVariable */
IP[ ]	/* InterpolatePts */
IUP[0]	/* InterpolateUntPts */";
};
width = 1233;
}
);
note = mu;
unicode = 181;
},
{
glyphname = partialdiff;
layers = (
{
layerId = m01;
shapes = (
{
closed = 1;
nodes = (
(674,809,o),
(573,809,qs),
(411,809,o),
(190,552,o),
(190,354,qs),
(190,191,o),
(393,-25,o),
(545,-25,qs),
(758,-25,o),
(1047,417,o),
(1047,752,qs),
(1047,1015,o),
(833,1325,o),
(653,1325,qs),
(552,1325,o),
(408,1227,o),
(408,1165,qs),
(408,1134,o),
(456,1090,o),
(492,1090,qs),
(528,1090,o),
(672,1206,o),
(727,1206,qs),
(799,1206,o),
(872,1075,o),
(872,946,qs),
(872,871,o),
(857,708,o),
(842,621,q),
(804,718,o)
);
},
{
closed = 1;
nodes = (
(652,31,o),
(543,31,qs),
(463,31,o),
(377,154,o),
(377,270,qs),
(377,477,o),
(518,735,o),
(627,735,qs),
(706,735,o),
(793,610,o),
(793,494,qs),
(793,291,o)
);
}
);
userData = {
assembly = "NPUSHB[ ]	/* 14 values pushed */
0 39 33 9 27 6 39 21 6 15 33 27 15 21
PUSHW[ ]	/* 1 value pushed */
269
NPUSHB[ ]	/* 10 values pushed */
42 12 36 3 0 30 18 36 24 42
SRP0[ ]	/* SetRefPoint0 */
MDRP[10100]	/* MoveDirectRelPt */
MDRP[01100]	/* MoveDirectRelPt */
MDRP[11100]	/* MoveDirectRelPt */
MDRP[01100]	/* MoveDirectRelPt */
IP[ ]	/* InterpolatePts */
IP[ ]	/* InterpolatePts */
SRP1[ ]	/* SetRefPoint1 */
IP[ ]	/* InterpolatePts */
IUP[1]	/* InterpolateUntPts */
SVTCA[0]	/* SetFreedomAndProjectionVectorToAxis */
SRP0[ ]	/* SetRefPoint0 */
MIRP[00100]	/* MoveIndirectRelPt */
MDRP[01100]	/* MoveDirectRelPt */
MDRP[11100]	/* MoveDirectRelPt */
MDRP[01100]	/* MoveDirectRelPt */
SRP0[ ]	/* SetRefPoint0 */
MDRP[01110]	/* MoveDirectRelPt */
SRP0[ ]	/* SetRefPoint0 */
MDRP[01110]	/* MoveDirectRelPt */
SRP1[ ]	/* SetRefPoint1 */
SRP2[ ]	/* SetRefPoint2 */
IP[ ]	/* InterpolatePts */
SRP1[ ]	/* SetRefPoint1 */
SRP2[ ]	/* SetRefPoint2 */
IP[ ]	/* InterpolatePts */
IUP[0]	/* InterpolateUntPts */";
};
width = 1233;
}
);
note = partialdiff;
unicode = 8706;
},
{
glyphname = summation;
layers = (
{
layerId = m01;
shapes = (
{
closed = 1;
nodes = (
(332,1378,l),
(1065,1378,l),
(1065,1518,l),
(143,1518,l),
(143,1423,l),
(692,575,l),
(143,-344,l),
(143,-436,l),
(1085,-436,l),
(1085,-299,l),
(332,-299,l),
(854,575,l)
);
}
);
userData = {
assembly = "PUSHB[ ]	/* 5 values pushed */
11 5 12 9 0
PUSHW[ ]	/* 8 values pushed */
271 2 9 271 7 270 2 272
NPUSHB[ ]	/* 11 values pushed */
12 11 10 8 5 0 5 1 6 3 12
SRP0[ ]	/* SetRefPoint0 */
MDRP[10100]	/* MoveDirectRelPt */
ALIGNRP[ ]	/* AlignRelativePt */
MDRP[00100]	/* MoveDirectRelPt */
SLOOP[ ]	/* SetLoopVariable */
IP[ ]	/* InterpolatePts */
IUP[1]	/* InterpolateUntPts */
SVTCA[0]	/* SetFreedomAndProjectionVectorToAxis */
SRP0[ ]	/* SetRefPoint0 */
MIRP[00100]	/* MoveIndirectRelPt */
MIRP[10100]	/* MoveIndirectRelPt */
MIRP[01100]	/* MoveIndirectRelPt */
SRP0[ ]	/* SetRefPoint0 */
MIRP[01110]	/* MoveIndirectRelPt */
SRP1[ ]	/* SetRefPoint1 */
SRP2[ ]	/* SetRefPoint2 */
IP[ ]	/* InterpolatePts */
IP[ ]	/* InterpolatePts */
IUP[0]	/* InterpolateUntPts */";
};
width = 1233;
}
);
note = summation;
unicode = 8721;
},
{
glyphname = product;
layers = (
{
layerId = m01;
shapes = (
{
closed = 1;
nodes = (
(307,1386,l),
(926,1386,l),
(926,-436,l),
(1081,-436,l),
(1081,1518,l),
(152,1518,l),
(152,-436,l),
(307,-436,l)
);
}
);
userData = {
assembly = "PUSHW[ ]	/* 2 values pushed */
5 271
NPUSHB[ ]	/* 11 values pushed */
1 3 0 8 4 128 2 6 128 0 8
SRP0[ ]	/* SetRefPoint0 */
MDRP[10100]	/* MoveDirectRelPt */
MIRP[01100]	/* MoveIndirectRelPt */
MDRP[10100]	/* MoveDirectRelPt */
MIRP[01100]	/* MoveIndirectRelPt */
IUP[1]	/* InterpolateUntPts */
SVTCA[0]	/* SetFreedomAndProjectionVectorToAxis */
SRP0[ ]	/* SetRefPoint0 */
MDRP[00100]	/* MoveDirectRelPt */
SHP[0]	/* ShiftPointByLastPoint */
MDRP[10100]	/* MoveDirectRelPt */
MIRP[01100]	/* MoveIndirectRelPt */
IUP[0]	/* InterpolateUntPts */";
};
width = 1233;
}
);
note = product;
unicode = 8719;
},
{
glyphname = pi;
layers = (
{
layerId = m01;
shapes = (
{
closed = 1;
nodes = (
(223,952,l),
(223,0,l),
(403,0,l),
(403,952,l),
(831,952,l),
(831,268,ls),
(831,92,o),
(923,-39,o),
(1036,-39,qs),
(1073,-39,o),
(1147,-27,o),
(1182,-14,q),
(1182,119,l),
(1175,118,o),
(1131,113,o),
(1116,113,qs),
(1061,113,o),
(1012,176,o),
(1012,248,qs),
(1012,952,l),
(1153,952,l),
(1153,1100,l),
(80,1100,l),
(80,952,l)
);
}
);
userData = {
assembly = "NPUSHB[ ]	/* 33 values pushed */
11 20 14 10 4 17 2 7 234 14 22 18 2 234 0 232 14 236 20 0 24 21 10 1 104 17 103 3 19 103 21 102 24
SRP0[ ]	/* SetRefPoint0 */
MIRP[10100]	/* MoveIndirectRelPt */
MIRP[01100]	/* MoveIndirectRelPt */
MDRP[10100]	/* MoveDirectRelPt */
MIRP[01100]	/* MoveIndirectRelPt */
MIRP[00100]	/* MoveIndirectRelPt */
MDRP[00100]	/* MoveDirectRelPt */
SRP1[ ]	/* SetRefPoint1 */
SRP2[ ]	/* SetRefPoint2 */
IP[ ]	/* InterpolatePts */
IUP[1]	/* InterpolateUntPts */
SVTCA[0]	/* SetFreedomAndProjectionVectorToAxis */
MDAP[1]	/* MoveDirectAbsPt */
MIRP[00100]	/* MoveIndirectRelPt */
MIRP[10100]	/* MoveIndirectRelPt */
MIRP[01100]	/* MoveIndirectRelPt */
SHP[0]	/* ShiftPointByLastPoint */
SHP[0]	/* ShiftPointByLastPoint */
SRP0[ ]	/* SetRefPoint0 */
MIRP[01110]	/* MoveIndirectRelPt */
SRP1[ ]	/* SetRefPoint1 */
IP[ ]	/* InterpolatePts */
IP[ ]	/* InterpolatePts */
IP[ ]	/* InterpolatePts */
SRP1[ ]	/* SetRefPoint1 */
SRP2[ ]	/* SetRefPoint2 */
IP[ ]	/* InterpolatePts */
IUP[0]	/* InterpolateUntPts */";
};
width = 1233;
}
);
note = pi;
unicode = 960;
},
{
glyphname = integral;
layers = (
{
layerId = m01;
shapes = (
{
closed = 1;
nodes = (
(363,-178,o),
(354,-161,qs),
(339,-133,o),
(291,-104,o),
(258,-104,qs),
(197,-104,o),
(129,-167,o),
(129,-223,qs),
(129,-288,o),
(230,-371,o),
(309,-371,qs),
(505,-371,o),
(694,43,o),
(711,522,qs),
(715,632,o),
(719,825,qs),
(733,1444,o),
(840,1444,qs),
(856,1444,o),
(865,1372,o),
(871,1357,qs),
(882,1322,o),
(939,1284,o),
(981,1284,qs),
(1036,1284,o),
(1100,1347,o),
(1100,1401,qs),
(1100,1466,o),
(1000,1550,o),
(920,1550,qs),
(718,1550,o),
(528,1106,o),
(516,591,qs),
(515,534,o),
(513,426,qs),
(499,-262,o),
(393,-262,qs),
(374,-262,o)
);
}
);
userData = {
assembly = "PUSHW[ ]	/* 2 values pushed */
32 274
PUSHB[ ]	/* 3 values pushed */
0 26 13
PUSHW[ ]	/* 6 values pushed */
274 19 26 275 7 273
NPUSHB[ ]	/* 9 values pushed */
38 10 129 23 130 29 129 4 38
SRP0[ ]	/* SetRefPoint0 */
MDRP[10100]	/* MoveDirectRelPt */
MIRP[01100]	/* MoveIndirectRelPt */
MIRP[11100]	/* MoveIndirectRelPt */
MIRP[01100]	/* MoveIndirectRelPt */
IUP[1]	/* InterpolateUntPts */
SVTCA[0]	/* SetFreedomAndProjectionVectorToAxis */
SRP0[ ]	/* SetRefPoint0 */
MIRP[11100]	/* MoveIndirectRelPt */
MIRP[01100]	/* MoveIndirectRelPt */
MDRP[11100]	/* MoveDirectRelPt */
MIRP[00100]	/* MoveIndirectRelPt */
SRP0[ ]	/* SetRefPoint0 */
MDRP[11110]	/* MoveDirectRelPt */
MIRP[00100]	/* MoveIndirectRelPt */
IUP[0]	/* InterpolateUntPts */";
};
width = 1233;
}
);
note = integral;
unicode = 8747;
},
{
glyphname = ordfeminine;
layers = (
{
layerId = m01;
shapes = (
{
closed = 1;
nodes = (
(811,1075,ls),
(811,960,o),
(680,817,o),
(575,817,qs),
(503,817,o),
(416,894,o),
(416,958,qs),
(416,1036,o),
(540,1104,o),
(684,1104,qs),
(811,1104,l)
);
},
{
closed = 1;
nodes = (
(782,1520,o),
(598,1520,qs),
(535,1520,o),
(400,1492,o),
(332,1464,q),
(332,1337,l),
(399,1370,o),
(524,1405,o),
(575,1405,qs),
(692,1405,o),
(811,1313,o),
(811,1223,qs),
(811,1219,l),
(629,1219,ls),
(457,1219,o),
(270,1079,o),
(270,950,qs),
(270,834,o),
(420,698,o),
(549,698,qs),
(631,698,o),
(762,764,o),
(811,829,q),
(811,717,l),
(954,717,l),
(954,1165,ls),
(954,1348,o)
);
},
{
closed = 1;
nodes = (
(961,469,l),
(961,592,l),
(293,592,l),
(293,469,l)
);
}
);
userData = {
assembly = "NPUSHB[ ]	/* 54 values pushed */
9 6 0 25 31 11 23 14 6 0 40 243 38 0 237 23 38 241 6 237 12 17 32 239 31 238 28 237 17 240 35 150 42 38 31 20 0 23 9 3 40 39 24 13 9 106 11 107 31 3 106 20 105 42
SRP0[ ]	/* SetRefPoint0 */
MIRP[11100]	/* MoveIndirectRelPt */
MIRP[01100]	/* MoveIndirectRelPt */
MDRP[00100]	/* MoveDirectRelPt */
MIRP[11100]	/* MoveIndirectRelPt */
MIRP[01100]	/* MoveIndirectRelPt */
SHP[0]	/* ShiftPointByLastPoint */
SHP[0]	/* ShiftPointByLastPoint */
MDRP[00000]	/* MoveDirectRelPt */
MDRP[00000]	/* MoveDirectRelPt */
SRP1[ ]	/* SetRefPoint1 */
SRP2[ ]	/* SetRefPoint2 */
IP[ ]	/* InterpolatePts */
IP[ ]	/* InterpolatePts */
SRP1[ ]	/* SetRefPoint1 */
SRP2[ ]	/* SetRefPoint2 */
IP[ ]	/* InterpolatePts */
IUP[1]	/* InterpolateUntPts */
SVTCA[0]	/* SetFreedomAndProjectionVectorToAxis */
SRP0[ ]	/* SetRefPoint0 */
MIRP[10100]	/* MoveIndirectRelPt */
MIRP[00100]	/* MoveIndirectRelPt */
MIRP[11100]	/* MoveIndirectRelPt */
MIRP[10100]	/* MoveIndirectRelPt */
MIRP[01100]	/* MoveIndirectRelPt */
SRP0[ ]	/* SetRefPoint0 */
MDRP[00100]	/* MoveDirectRelPt */
MIRP[01110]	/* MoveIndirectRelPt */
MIRP[01101]	/* MoveIndirectRelPt */
MDRP[10110]	/* MoveDirectRelPt */
MIRP[01110]	/* MoveIndirectRelPt */
SRP0[ ]	/* SetRefPoint0 */
MIRP[01110]	/* MoveIndirectRelPt */
SRP1[ ]	/* SetRefPoint1 */
SRP2[ ]	/* SetRefPoint2 */
IP[ ]	/* InterpolatePts */
SRP2[ ]	/* SetRefPoint2 */
IP[ ]	/* InterpolatePts */
SRP1[ ]	/* SetRefPoint1 */
IP[ ]	/* InterpolatePts */
SRP1[ ]	/* SetRefPoint1 */
SRP2[ ]	/* SetRefPoint2 */
IP[ ]	/* InterpolatePts */
IUP[0]	/* InterpolateUntPts */";
};
width = 1233;
}
);
note = ordfeminine;
unicode = 170;
},
{
glyphname = ordmasculine;
layers = (
{
layerId = m01;
shapes = (
{
closed = 1;
nodes = (
(834,1247,o),
(834,1108,qs),
(834,972,o),
(717,815,o),
(616,815,qs),
(514,815,o),
(399,969,o),
(399,1108,qs),
(399,1247,o),
(514,1403,o),
(616,1403,qs),
(719,1403,o)
);
},
{
closed = 1;
nodes = (
(244,1296,o),
(244,1108,qs),
(244,921,o),
(446,698,o),
(616,698,qs),
(787,698,o),
(989,921,o),
(989,1108,qs),
(989,1296,o),
(786,1520,o),
(616,1520,qs),
(447,1520,o)
);
},
{
closed = 1;
nodes = (
(952,469,l),
(952,592,l),
(276,592,l),
(276,469,l)
);
}
);
userData = {
assembly = "NPUSHB[ ]	/* 28 values pushed */
26 243 24 241 6 237 18 240 0 237 12 150 28 25 15 9 24 21 3 9 106 15 107 3 106 21 105 28
SRP0[ ]	/* SetRefPoint0 */
MIRP[11100]	/* MoveIndirectRelPt */
MIRP[01100]	/* MoveIndirectRelPt */
MIRP[11100]	/* MoveIndirectRelPt */
MIRP[01100]	/* MoveIndirectRelPt */
SRP1[ ]	/* SetRefPoint1 */
SRP2[ ]	/* SetRefPoint2 */
IP[ ]	/* InterpolatePts */
SRP1[ ]	/* SetRefPoint1 */
SRP2[ ]	/* SetRefPoint2 */
IP[ ]	/* InterpolatePts */
IUP[1]	/* InterpolateUntPts */
SVTCA[0]	/* SetFreedomAndProjectionVectorToAxis */
SRP0[ ]	/* SetRefPoint0 */
MIRP[10100]	/* MoveIndirectRelPt */
MIRP[01100]	/* MoveIndirectRelPt */
MIRP[10100]	/* MoveIndirectRelPt */
MIRP[01100]	/* MoveIndirectRelPt */
MIRP[11100]	/* MoveIndirectRelPt */
MIRP[01100]	/* MoveIndirectRelPt */
IUP[0]	/* InterpolateUntPts */";
};
width = 1233;
}
);
note = ordmasculine;
unicode = 186;
},
{
glyphname = Omega;
layers = (
{
layerId = m01;
shapes = (
{
closed = 1;
nodes = (
(537,172,l),
(417,248,o),
(283,577,o),
(283,799,qs),
(283,1029,o),
(462,1294,o),
(616,1294,qs),
(770,1294,o),
(950,1029,o),
(950,799,qs),
(950,577,o),
(816,248,o),
(696,172,q),
(696,0,l),
(1159,0,l),
(1159,172,l),
(911,172,l),
(1034,305,o),
(1145,594,o),
(1145,782,qs),
(1145,1094,o),
(856,1460,o),
(614,1460,qs),
(374,1460,o),
(86,1093,o),
(86,782,qs),
(86,594,o),
(196,306,o),
(319,172,q),
(74,172,l),
(74,0,l),
(537,0,l)
);
}
);
userData = {
assembly = "NPUSHB[ ]	/* 35 values pushed */
24 248 8 247 30 18 14 3 1 249 16 0 2 30 27 14 17 113 21 30 113 27 15 114 21 111 11 112 0 114 27 111 5 108 32
SRP0[ ]	/* SetRefPoint0 */
MIRP[10100]	/* MoveIndirectRelPt */
MIRP[01100]	/* MoveIndirectRelPt */
MIRP[00100]	/* MoveIndirectRelPt */
MIRP[10100]	/* MoveIndirectRelPt */
MIRP[01100]	/* MoveIndirectRelPt */
MIRP[00100]	/* MoveIndirectRelPt */
SRP0[ ]	/* SetRefPoint0 */
MIRP[00100]	/* MoveIndirectRelPt */
SRP0[ ]	/* SetRefPoint0 */
MIRP[00100]	/* MoveIndirectRelPt */
IP[ ]	/* InterpolatePts */
SRP1[ ]	/* SetRefPoint1 */
SRP2[ ]	/* SetRefPoint2 */
IP[ ]	/* InterpolatePts */
IUP[1]	/* InterpolateUntPts */
SVTCA[0]	/* SetFreedomAndProjectionVectorToAxis */
MDAP[1]	/* MoveDirectAbsPt */
ALIGNRP[ ]	/* AlignRelativePt */
MIRP[01110]	/* MoveIndirectRelPt */
SLOOP[ ]	/* SetLoopVariable */
SHP[0]	/* ShiftPointByLastPoint */
MIRP[10110]	/* MoveIndirectRelPt */
MIRP[01110]	/* MoveIndirectRelPt */
IUP[0]	/* InterpolateUntPts */";
};
width = 1233;
}
);
note = Omega;
unicode = 937;
},
{
glyphname = ae;
layers = (
{
layerId = m01;
shapes = (
{
closed = 1;
nodes = (
(469,125,o),
(377,125,qs),
(294,125,o),
(205,222,o),
(205,311,qs),
(205,424,o),
(325,514,o),
(494,514,qs),
(543,514,l),
(543,442,ls),
(543,258,o)
);
},
{
closed = 1;
nodes = (
(709,700,ls),
(709,857,o),
(785,993,o),
(872,993,qs),
(959,993,o),
(1036,860,o),
(1036,709,qs),
(1036,657,l),
(709,657,l)
);
},
{
closed = 1;
nodes = (
(1200,910,o),
(1055,1147,o),
(881,1147,qs),
(792,1147,o),
(660,1081,o),
(627,1020,q),
(590,1084,o),
(466,1147,o),
(375,1147,qs),
(315,1147,o),
(183,1114,o),
(106,1079,q),
(106,911,l),
(168,950,o),
(300,993,o),
(356,993,qs),
(450,993,o),
(549,865,o),
(549,745,qs),
(549,657,l),
(432,657,ls),
(241,657,o),
(41,478,o),
(41,307,qs),
(41,143,o),
(204,-29,o),
(360,-29,qs),
(457,-29,o),
(590,51,o),
(629,131,q),
(661,53,o),
(810,-29,o),
(920,-29,qs),
(991,-29,o),
(1123,14,o),
(1178,55,q),
(1178,227,l),
(1128,176,o),
(999,125,o),
(920,125,qs),
(808,125,o),
(707,269,o),
(707,430,qs),
(707,464,o),
(708,499,o),
(709,514,q),
(1200,514,l),
(1200,604,ls)
);
}
);
userData = {
assembly = "NPUSHB[ ]	/* 73 values pushed */
61 55 15 48 12 18 3 54 11 37 8 0 30 67 11 1 31 139 30 141 27 8 140 34 55 139 54 191 15 46 11 182 20 1 193 51 15 140 64 58 190 40 34 153 68 2 5 0 24 37 61 3 47 18 46 5 21 18 77 47 0 117 30 11 77 20 67 5 77 54 43 115 68
SRP0[ ]	/* SetRefPoint0 */
MIRP[10100]	/* MoveIndirectRelPt */
MDRP[00100]	/* MoveDirectRelPt */
MIRP[01100]	/* MoveIndirectRelPt */
MIRP[11100]	/* MoveIndirectRelPt */
MIRP[01100]	/* MoveIndirectRelPt */
MDRP[00100]	/* MoveDirectRelPt */
MIRP[11100]	/* MoveIndirectRelPt */
MDRP[00100]	/* MoveDirectRelPt */
MIRP[01100]	/* MoveIndirectRelPt */
SHP[0]	/* ShiftPointByLastPoint */
SRP2[ ]	/* SetRefPoint2 */
IP[ ]	/* InterpolatePts */
SRP1[ ]	/* SetRefPoint1 */
SRP2[ ]	/* SetRefPoint2 */
SLOOP[ ]	/* SetLoopVariable */
IP[ ]	/* InterpolatePts */
SRP1[ ]	/* SetRefPoint1 */
SRP2[ ]	/* SetRefPoint2 */
IP[ ]	/* InterpolatePts */
IUP[1]	/* InterpolateUntPts */
SVTCA[0]	/* SetFreedomAndProjectionVectorToAxis */
SRP0[ ]	/* SetRefPoint0 */
MIRP[00100]	/* MoveIndirectRelPt */
SHP[0]	/* ShiftPointByLastPoint */
MIRP[10100]	/* MoveIndirectRelPt */
ALIGNRP[ ]	/* AlignRelativePt */
MIRP[01100]	/* MoveIndirectRelPt */
SHP[0]	/* ShiftPointByLastPoint */
MIRP[10100]	/* MoveIndirectRelPt */
ALIGNRP[ ]	/* AlignRelativePt */
MIRP[01100]	/* MoveIndirectRelPt */
SHP[0]	/* ShiftPointByLastPoint */
SRP0[ ]	/* SetRefPoint0 */
MIRP[10100]	/* MoveIndirectRelPt */
MIRP[01110]	/* MoveIndirectRelPt */
SRP0[ ]	/* SetRefPoint0 */
MIRP[11110]	/* MoveIndirectRelPt */
ALIGNRP[ ]	/* AlignRelativePt */
MIRP[10100]	/* MoveIndirectRelPt */
MIRP[01110]	/* MoveIndirectRelPt */
SRP1[ ]	/* SetRefPoint1 */
SRP2[ ]	/* SetRefPoint2 */
IP[ ]	/* InterpolatePts */
SRP2[ ]	/* SetRefPoint2 */
IP[ ]	/* InterpolatePts */
SRP1[ ]	/* SetRefPoint1 */
IP[ ]	/* InterpolatePts */
SRP1[ ]	/* SetRefPoint1 */
SRP2[ ]	/* SetRefPoint2 */
SLOOP[ ]	/* SetLoopVariable */
IP[ ]	/* InterpolatePts */
SRP1[ ]	/* SetRefPoint1 */
SRP2[ ]	/* SetRefPoint2 */
IP[ ]	/* InterpolatePts */
IUP[0]	/* InterpolateUntPts */
NPUSHB[ ]	/* 9 values pushed */
48 53 48 54 48 55 48 56 4
DELTAP1[ ]	/* DeltaExceptionP1 */";
};
width = 1233;
}
);
note = ae;
unicode = 230;
},
